<?xml version="1.0" encoding="UTF-8" standalone="no"?>
<!DOCTYPE svg  PUBLIC '-//W3C//DTD SVG 1.1//EN'  'http://www.w3.org/Graphics/SVG/1.1/DTD/svg11.dtd'>
<svg xmlns="http://www.w3.org/2000/svg">
<defs>
<font id="Monosten-E" horiz-adv-x="1269">
<font-face underline-position="-102" font-weight="400" descent="-410" panose-1="2 0 5 9 4 0 0 2 0 4" units-per-em="2048" unicode-range="U+0020-25CA" bbox="10 -492 1233 1960" x-height="1024" underline-thickness="102" font-family="Monosten" ascent="1638" cap-height="1434"/>
<missing-glyph horiz-adv-x="2048"/>
<glyph glyph-name=".notdef" horiz-adv-x="2048"/>
<glyph glyph-name=".null" horiz-adv-x="0"/>
<glyph glyph-name="nonmarkingreturn" horiz-adv-x="682"/>
<glyph glyph-name="space" unicode=" "/>
<glyph glyph-name="exclam" d="M529 42q-42 42 -42 105q0 64 42 106t105 42q64 0 106 -42t42 -106q0 -63 -42 -105t-106 -42q-63 0 -105 42zM559 559l-31 778q2 54 30.5 85.5t76.5 31.5t76 -31t30 -86l-30 -778q-4 -109 -76 -109t-76 109z" unicode="!"/>
<glyph glyph-name="quotedbl" d="M713 1298q0 156 104 156q105 0 105 -156q0 -115 -34 -269q-35 -155 -71 -155t-71 155q-33 156 -33 269zM365 1298q0 156 104 156t104 -156q0 -115 -34 -269q-33 -155 -70 -155q-36 0 -71 155q-33 156 -33 269z" unicode='&quot;'/>
<glyph glyph-name="numbersign" d="M475 872l-51 -311h307l51 311h-307zM653 68v14l56 340h-308l-55 -340q-12 -82 -80 -82q-29 0 -46 19t-17 49v14l55 340h-135q-35 0 -55.5 18.5t-20.5 50.5q0 33 20.5 51.5t55.5 18.5h158l51 311h-209q-35 0 -55.5 18.5t-20.5 51.5t20.5 51.5t55.5 18.5h231l56 340 q12 82 79 82q29 0 46.5 -19t17.5 -49v-14l-55 -340h307l55 340q12 82 80 82q29 0 45 -18.5t16 -49.5v-14l-53 -340h135q35 0 55.5 -18.5t20.5 -51.5t-20.5 -51.5t-55.5 -18.5h-157l-52 -311h211q35 0 55.5 -18.5t20.5 -51.5q0 -32 -20.5 -50.5t-55.5 -18.5h-233l-55 -340 q-12 -82 -80 -82q-29 0 -46.5 19t-17.5 49z" unicode="#"/>
<glyph glyph-name="dollar" d="M305 1075q0 -84 67 -135q68 -51 195 -96v469q-262 -16 -262 -238zM963 397q0 103 -69 158q-69 57 -204 102v-536q131 14 202 84.5t71 191.5zM113 266q-17 32 -19 60q0 33 20.5 53t51.5 20q47 0 80 -49q70 -109 139 -163q71 -54 182 -66v573q-198 59 -307 144 q-110 86 -110 235q0 176 119 272t298 107v88q0 78 61 78q62 0 62 -78v-92q229 -27 352 -221q22 -37 22 -70t-19.5 -53.5t-51.5 -20.5q-49 0 -78 54q-78 146 -225 172v-506q97 -31 162 -59q61 -25 131 -70q135 -87 135 -264q0 -196 -120 -305q-118 -109 -308 -123v-88 q0 -78 -62 -78q-61 0 -61 78v88q-307 24 -454 284z" unicode="$"/>
<glyph glyph-name="percent" d="M166 455l860 600q25 16 41 16q22 0 37.5 -18t15.5 -39q0 -34 -33 -56l-860 -602q-23 -14 -41 -14q-22 0 -37.5 18t-15.5 41q0 31 33 54zM771 449q-52 -59 -52 -154t52 -153t142 -58q91 0 145 58t54 153q0 94 -54 154q-54 61 -145 61q-90 0 -142 -61zM598 295 q0 135 89 227t226 92q139 0 229 -92q91 -91 91 -227q0 -133 -90 -224t-230 -91q-138 0 -226 91q-89 92 -89 224zM218 1289q-52 -59 -52 -155q0 -94 52 -152t142 -58q91 0 145 58t54 152q0 95 -54 155q-54 61 -145 61q-90 0 -142 -61zM45 1135q0 135 89 227t226 92 q139 0 229 -92q91 -91 91 -227q0 -133 -90 -225q-90 -91 -230 -91q-138 0 -226 91q-89 92 -89 225z" unicode="%"/>
<glyph glyph-name="ampersand" d="M317 1128q0 -117 138 -270q147 74 197 134q50 62 50 145q0 85 -53 131.5t-141 46.5q-81 0 -137 -53q-54 -52 -54 -134zM483 119q207 0 332 141l-399 434q-197 -113 -197 -301q0 -131 75 -203q77 -71 189 -71zM854 1128q0 -214 -307 -362l348 -387q62 128 76 336 q6 76 67 76q66 0 66 -76q0 -249 -113 -439l131 -141q29 -32 29 -67q0 -31 -17.5 -49.5t-46.5 -18.5q-35 0 -67 35l-115 121q-164 -176 -428 -176q-177 0 -296 113q-118 114 -118 294q0 263 261 408l-15 16q-143 161 -143 307q0 156 95 246q94 90 247 90q162 0 254 -90 q92 -89 92 -236z" unicode="&amp;"/>
<glyph glyph-name="quotesingle" d="M528 1298q0 156 104 156q105 0 105 -156q0 -115 -34 -269q-33 -155 -70 -155q-36 0 -71 155q-34 154 -34 269z" unicode="&apos;"/>
<glyph glyph-name="parenleft" d="M684 1489q34 43 80 43q29 0 46 -16.5t17 -45.5q0 -32 -26 -67q-139 -174 -193 -357q-53 -182 -53 -432t53 -432q55 -182 193 -356q27 -35 26 -68q0 -29 -17 -45t-46 -16q-46 0 -80 43q-144 183 -209 395q-63 212 -63 479q0 268 63 480q65 212 209 395z" unicode="("/>
<glyph glyph-name="parenright" d="M557 1489q145 -184 208 -395q64 -210 64 -480q0 -269 -64 -479q-63 -211 -208 -395q-34 -43 -80 -43q-29 0 -46 16.5t-17 44.5q0 33 26 68q139 175 192 356q54 180 54 432q0 250 -53 432q-52 180 -193 357q-28 35 -26 67q0 29 17.5 45.5t45.5 16.5q46 0 80 -43z" unicode=")"/>
<glyph glyph-name="asterisk" d="M584 815l-252 -145q-38 -20 -62 -21q-30 0 -47 29q-8 14 -8 29q0 39 55 69l252 146l-252 145q-55 31 -55 70q0 14 8 28q17 29 47 29q24 0 62 -20l252 -146v291q0 90 61 90q62 0 62 -90v-291l251 146q38 20 62 20q30 0 47 -29q8 -14 8 -28q0 -39 -55 -70l-252 -145 l252 -146q55 -31 55 -69q0 -13 -8 -29q-17 -29 -47 -29q-25 0 -62 21l-251 145v-291q0 -90 -62 -90q-61 0 -61 90v291z" unicode="*"/>
<glyph glyph-name="plus" d="M721 985v-305h305q88 0 88 -64q0 -63 -88 -63h-305v-305q0 -88 -64 -88q-63 0 -63 88v305h-305q-88 0 -88 63q0 64 88 64h305v305q0 88 63 88q64 0 64 -88z" unicode="+"/>
<glyph glyph-name="comma" d="M563 18q-76 39 -76 129q0 61 42 104q42 44 108 44q61 0 103 -43q42 -44 42 -105v-14q-5 -142 -182 -319q-37 -37 -72 -37q-23 0 -37 14t-14 35q0 33 25 51q40 29 51 57q10 26 10 84z" unicode=","/>
<glyph glyph-name="hyphen" d="M311 680h647q88 0 88 -64q1 -31 -21.5 -47t-66.5 -16h-647q-88 0 -88 63q0 64 88 64z" unicode="-"/>
<glyph glyph-name="period" d="M529 42q-42 42 -42 105q0 64 42 106t105 42q64 0 106 -42t42 -106q0 -63 -42 -105t-106 -42q-63 0 -105 42z" unicode="."/>
<glyph glyph-name="slash" d="M1163 1313l-987 -1278q-29 -35 -63 -35q-63 0 -64 63q0 29 23 58l987 1278q29 35 63 35q63 0 64 -64q0 -28 -23 -57z" unicode="/"/>
<glyph glyph-name="zero" d="M637 106q153 0 227 87q74 89 74 229v569l-578 -710q61 -175 277 -175zM336 510v-68l577 711q-61 174 -276 174q-155 0 -228 -87q-73 -86 -73 -228v-502zM188 471v492q0 221 117 356t332 135t331 -135q117 -135 117 -356v-492q0 -221 -117 -356q-116 -135 -331 -135 t-332 135t-117 356z" unicode="0"/>
<glyph glyph-name="one" d="M762 127h285q94 0 94 -64q0 -63 -94 -63h-717q-94 0 -94 63q0 64 94 64h284v1087l-260 -167q-27 -15 -51 -17q-31 0 -51.5 20t-20.5 52q0 36 35 59l377 246q43 27 64 27q55 0 55 -80v-1227z" unicode="1"/>
<glyph glyph-name="two" d="M987 0h-694q-47 0 -72.5 27t-25.5 73v58q0 155 110 294q112 140 283 242q157 93 230 178t73 185q0 126 -63 198t-185 72q-121 0 -189 -77t-75 -191q-4 -56 -19 -79.5t-53 -23.5q-73 0 -71 101q0 177 118 286q119 111 289 111q179 0 286 -106q109 -105 109 -277 q0 -142 -95 -257t-279 -230q-322 -202 -322 -457h645q94 0 94 -64q0 -63 -94 -63z" unicode="2"/>
<glyph glyph-name="three" d="M932 430q0 127 -85 202q-86 75 -226 75h-74q-94 0 -94 63q0 64 94 64h61q123 0 197 65q74 66 74 178q0 121 -72 185.5t-205 64.5q-103 0 -176 -70q-75 -70 -82 -186q-2 -32 -23 -49.5t-51 -17.5q-31 0 -51 21.5t-20 57.5q0 147 117 259q118 112 286 112q192 0 308 -102 q116 -101 116 -275q0 -105 -64 -188q-64 -85 -139 -107q119 -41 187 -131q69 -90 69 -211q0 -218 -127 -339t-338 -121q-210 0 -340 124q-131 125 -131 326q0 88 70 88q37 0 55.5 -20.5t22.5 -69.5q12 -145 89 -234q76 -88 234 -88q162 0 240 88t78 236z" unicode="3"/>
<glyph glyph-name="four" d="M276 492h465v682zM741 100v265h-565q-35 0 -58.5 21.5t-23.5 53.5q0 25 15 47l630 926q27 41 76 41q74 0 74 -92v-870h158q94 0 94 -64q0 -63 -94 -63h-158v-265q0 -100 -74 -100t-74 100z" unicode="4"/>
<glyph glyph-name="five" d="M172 393q0 36 20 58t50 22q28 0 48.5 -21t24.5 -61q12 -133 90 -209t216 -76q160 0 234 101q75 102 75 272q0 157 -81 249q-81 91 -228 91q-85 0 -151 -32q-65 -32 -148 -103q-22 -18 -50 -18q-73 0 -71 77l2 21l78 579q12 89 98 91h549q94 0 94 -64q0 -63 -94 -63h-516 l-66 -457q45 38 126 66q81 30 153 30q202 0 327 -119t125 -348q0 -221 -121 -360q-120 -139 -335 -139q-201 0 -325 121t-124 292z" unicode="5"/>
<glyph glyph-name="six" d="M406 727q-82 -95 -82 -262q0 -166 82 -263q82 -96 247 -96t247 96q83 98 83 263t-83 262q-82 96 -247 96t-247 -96zM176 500v409q0 247 134 396t356 149q290 0 417 -219q17 -33 19 -61q0 -30 -19 -49t-47 -19q-49 0 -78 53q-90 168 -292 168q-168 0 -255 -126t-87 -312 v-98q25 54 123 107q97 52 206 52q221 0 349 -129q128 -130 128 -356q0 -218 -134 -352q-133 -133 -343 -133q-221 0 -349 135q-128 136 -128 385z" unicode="6"/>
<glyph glyph-name="seven" d="M444 117l492 1190h-709q-94 0 -94 63q0 64 94 64h770q44 0 69.5 -20t25.5 -54q0 -17 -9 -37l-503 -1266q-26 -57 -78 -57q-28 0 -48 20t-20 50q0 28 10 47z" unicode="7"/>
<glyph glyph-name="eight" d="M430 1254q-74 -72 -74 -177q0 -104 74 -178t205 -74q130 0 204 74t74 178q0 105 -74 177q-73 73 -204 73q-132 0 -205 -73zM403 630q-84 -82 -84 -216q0 -132 84 -221q84 -87 231 -87q148 0 232 87q84 88 84 221q0 134 -84 216q-85 83 -232 83q-146 0 -231 -83zM1098 414 q0 -210 -132 -323q-132 -111 -331 -111t-331 111q-132 113 -132 323q0 246 207 360q-73 46 -120 133q-46 85 -46 168q0 177 116 278q118 101 305 101q188 0 306 -101q117 -101 117 -278q0 -83 -46 -168q-47 -87 -120 -133q207 -114 207 -360z" unicode="8"/>
<glyph glyph-name="nine" d="M921 706q83 98 83 263t-83 262q-83 96 -247 96q-165 0 -247 -96q-83 -97 -83 -262t83 -263q82 -96 247 -96t247 96zM1151 934v-410q0 -247 -134 -396q-133 -148 -355 -148q-289 0 -418 219q-17 33 -19 61q0 30 19 49t47 19q49 0 78 -54q90 -168 293 -168q168 0 255 126 t87 313v98q-26 -56 -124 -108q-97 -52 -206 -52q-222 0 -349 129q-128 130 -128 357q0 218 134 352q133 133 343 133q222 0 349 -135q128 -136 128 -385z" unicode="9"/>
<glyph glyph-name="colon" d="M529 792q-42 42 -42 105q0 65 42 105q42 42 105 42q64 0 106 -42q42 -40 42 -105q0 -63 -42 -105t-106 -42q-63 0 -105 42zM529 42q-42 42 -42 105q0 64 42 106t105 42q64 0 106 -42t42 -106q0 -63 -42 -105t-106 -42q-63 0 -105 42z" unicode=":"/>
<glyph glyph-name="semicolon" d="M529 792q-42 42 -42 105q0 65 42 105q42 42 105 42q64 0 106 -42q42 -40 42 -105q0 -63 -42 -105t-106 -42q-63 0 -105 42zM563 18q-76 39 -76 129q0 61 42 104q42 44 108 44q61 0 103 -43q42 -44 42 -105v-14q-5 -142 -182 -319q-37 -37 -72 -37q-23 0 -37 14t-14 35 q0 33 25 51q40 29 51 57q10 26 10 84z" unicode=";"/>
<glyph glyph-name="less" d="M217 580l643 436q35 20 55 20q24 0 40 -15t16 -36q0 -35 -39 -63l-582 -398l582 -397q39 -29 39 -64q0 -21 -16 -36t-40 -15q-21 0 -55 21l-643 436q-31 25 -31 55q0 31 31 56z" unicode="&lt;"/>
<glyph glyph-name="equal" d="M289 537h737q88 0 88 -64q0 -63 -88 -63h-737q-88 0 -88 63q0 64 88 64zM289 926h737q88 0 88 -64q0 -63 -88 -63h-737q-88 0 -88 63q0 64 88 64z" unicode="="/>
<glyph glyph-name="greater" d="M399 1016l643 -436q31 -25 31 -56q0 -30 -31 -55l-643 -436q-34 -19 -55 -21q-24 0 -39.5 15t-15.5 36q0 35 39 64l581 397l-581 398q-39 28 -39 63q0 21 15.5 36t39.5 15q20 0 55 -20z" unicode="&gt;"/>
<glyph glyph-name="question" d="M529 42q-42 42 -42 105q0 64 42 106t105 42q64 0 106 -42t42 -106q0 -63 -42 -105t-106 -42q-63 0 -105 42zM883 1114q0 104 -63 160.5t-173 56.5q-115 0 -181 -66q-64 -65 -69 -159q-5 -78 -71 -78q-72 0 -72 84q0 134 105 238q107 104 288 104q168 0 273 -87 q106 -87 106 -245q0 -67 -32 -131q-32 -63 -66 -99q-33 -34 -97 -89q-125 -112 -124 -248q0 -104 -72 -104t-72 104q0 112 50 194q50 81 139 158q131 113 131 207z" unicode="?"/>
<glyph glyph-name="at" d="M811 289q98 0 150.5 68.5t52.5 189.5q0 119 -52.5 188.5t-150.5 69.5q-106 0 -164 -73q-57 -74 -57 -186t57 -185q59 -72 164 -72zM801 166q-164 0 -260 100q-95 101 -95 281q0 173 96 276q98 105 259 105q66 0 125 -23.5t88 -60.5v30q0 152 -88 221q-88 70 -226 70 q-228 0 -356 -165q-127 -163 -127 -453q0 -282 137 -451q138 -168 406 -168q142 0 260 68q20 12 41 12q25 0 41 -16.5t16 -40.5q0 -45 -51 -70q-145 -76 -307 -76q-312 0 -500 203q-186 202 -186 539t170 539q169 202 456 202q208 0 333 -110q124 -109 124 -304v-606 q0 -88 -67 -88q-59 0 -70 92q-32 -50 -92 -78t-127 -28z" unicode="@"/>
<glyph glyph-name="A" d="M635 1147l-205 -576h410zM1024 57l-135 375h-508l-135 -375q-20 -57 -74 -57q-33 0 -52.5 21.5t-19.5 56.5q0 16 6 39l467 1259q19 57 61 57h2q40 0 60 -57l467 -1259q6 -23 6 -39q0 -35 -19.5 -56.5t-51.5 -21.5q-54 0 -74 57z" unicode="A"/>
<glyph glyph-name="B" d="M721 1294h-361v-499h361q106 0 164 70q59 71 59 179t-59 179t-164 71zM766 655h-406v-516h412q115 0 175.5 69t60.5 189q0 112 -59 185q-58 73 -183 73zM309 1434h396q183 0 289 -101q106 -100 106 -272q0 -123 -54 -203q-53 -81 -131 -115q119 -37 183.5 -127t64.5 -223 q0 -166 -99 -280q-99 -113 -276 -113h-479q-45 0 -72.5 25.5t-27.5 70.5v1241q0 45 27.5 71t72.5 26z" unicode="B"/>
<glyph glyph-name="C" d="M696 1454q131 0 230 -38q98 -38 209 -150q35 -35 34 -72q0 -30 -21.5 -51t-51.5 -21q-34 0 -66 33q-74 87 -153 123.5t-181 36.5q-144 0 -241 -93q-97 -91 -136 -221q-38 -131 -38 -285q0 -339 174 -505q98 -92 241 -92q100 0 178 34q80 35 156 126q30 32 63 32h3 q31 0 52 -20.5t21 -50.5q0 -38 -34 -72q-112 -114 -209 -151q-96 -37 -230 -37q-276 0 -424 202q-147 203 -147 535q0 331 147 534q149 203 424 203z" unicode="C"/>
<glyph glyph-name="D" d="M344 1294v-1155h291q126 0 214 86q87 86 122 211q35 126 35 280q0 336 -157 492q-88 86 -214 86h-291zM629 0h-336q-45 0 -72.5 25.5t-27.5 70.5v1241q0 45 27.5 71t72.5 26h336q253 0 393 -207q139 -206 139 -510t-139 -510q-140 -207 -393 -207z" unicode="D"/>
<glyph glyph-name="E" d="M264 1434h725q92 0 92 -70t-92 -70h-674v-487h498q92 0 92 -70q0 -69 -92 -69h-498v-529h703q92 0 92 -70q0 -69 -92 -69h-754q-45 0 -72.5 25.5t-27.5 70.5v1241q0 45 27.5 71t72.5 26z" unicode="E"/>
<glyph glyph-name="F" d="M264 1434h740q92 0 92 -70t-92 -70h-689v-506h514q92 0 92 -70q1 -34 -22 -51.5t-70 -17.5h-514v-549q0 -100 -76 -100q-75 0 -75 100v1237q0 45 27.5 71t72.5 26z" unicode="F"/>
<glyph glyph-name="G" d="M651 1454q266 0 439 -188q37 -39 36 -82q0 -33 -20.5 -53.5t-50.5 -20.5q-39 0 -64 33q-139 172 -340 172q-109 0 -195 -57q-85 -55 -135 -146q-100 -185 -100 -393q0 -214 91 -397q47 -93 133 -148t194 -55q233 0 348 151v359h-297q-92 0 -92 69q0 70 92 70h348 q46 0 73.5 -26t27.5 -70v-572q0 -100 -76 -100t-76 100q-64 -58 -163 -89q-97 -31 -183 -31q-142 0 -255 59t-182 165q-134 211 -134 515q0 432 253 629q134 106 328 106z" unicode="G"/>
<glyph glyph-name="H" d="M956 1333q0 100 76 100h2q74 0 74 -100v-1233q0 -100 -76 -100t-76 100v562h-647v-562q0 -100 -76 -100q-75 0 -75 100v1233q0 100 75 100h2q74 0 74 -100v-532h647v532z" unicode="H"/>
<glyph glyph-name="I" d="M319 139h240v1155h-240q-92 0 -92 70t92 70h631q92 0 92 -70t-92 -70h-239v-1155h239q92 0 92 -70q0 -69 -92 -69h-631q-92 0 -92 69q0 70 92 70z" unicode="I"/>
<glyph glyph-name="J" d="M854 586v747q0 100 76 100h2q74 0 74 -100v-790q0 -563 -443 -563q-146 0 -233 40q-88 40 -180 140q-23 26 -23 65q0 33 21.5 54.5t56.5 21.5q36 0 59 -29q48 -55 77 -84q26 -25 83 -47q56 -22 139 -22q291 0 291 467z" unicode="J"/>
<glyph glyph-name="K" d="M1010 1305l-346 -420l487 -760q18 -31 18 -62q0 -29 -20 -46t-51 -17q-43 0 -76 49l-459 711l-233 -281v-379q0 -100 -76 -100t-76 100v1233q0 100 76 100h2q74 0 74 -100v-639l567 701q31 39 70 39q30 0 49.5 -17.5t19.5 -46.5q1 -31 -26 -65z" unicode="K"/>
<glyph glyph-name="L" d="M268 1333q0 100 76 100h2q74 0 74 -100v-1194h674q92 0 92 -70q0 -69 -92 -69h-725q-46 0 -73.5 26t-27.5 70v1237z" unicode="L"/>
<glyph glyph-name="M" d="M1128 1339v-1239q0 -100 -76 -100q-75 0 -75 100v959l-264 -531q-29 -51 -78 -51t-78 51l-264 531v-959q0 -100 -76 -100t-76 100v1239q0 93 72 95q47 0 72 -45l350 -717l350 717q25 45 72 45q71 -2 71 -95z" unicode="M"/>
<glyph glyph-name="N" d="M162 100v1233q0 44 22 72.5t62 28.5q51 0 88 -52l622 -1071v1022q0 100 76 100h2q74 0 74 -100v-1233q0 -44 -22 -72t-62 -28q-51 0 -88 51l-623 1071v-1022q0 -100 -76 -100q-75 0 -75 100z" unicode="N"/>
<glyph glyph-name="O" d="M937 284q107 166 107 433t-107 433q-107 165 -303 165t-303 -165q-106 -164 -106 -433t106 -433q107 -165 303 -165t303 165zM1053 1248q147 -205 147 -532q0 -326 -147 -531q-145 -205 -419 -205q-273 0 -418 205q-146 206 -146 531q0 326 146 532t418 206 q273 0 419 -206z" unicode="O"/>
<glyph glyph-name="P" d="M756 1294h-404v-585h404q127 0 194.5 77.5t67.5 214.5q0 134 -67 213q-66 80 -195 80zM301 1434h418q217 0 336 -117t119 -316q0 -209 -117 -320.5t-338 -111.5h-367v-469q0 -100 -76 -100q-75 0 -75 100v1237q0 45 27.5 71t72.5 26z" unicode="P"/>
<glyph glyph-name="Q" d="M1044 717q0 267 -107 433q-107 165 -303 165t-303 -165q-106 -164 -106 -433t106 -433q107 -165 304 -165q159 0 260 110l-107 107q-42 42 -40 76q0 27 22.5 49t48.5 22q35 0 76 -41l84 -84q65 151 65 359zM1083 41l-84 82q-143 -143 -364 -143q-272 0 -419 205 q-146 206 -146 531q0 326 146 532t418 206q273 0 419 -206q147 -206 147 -531q0 -281 -108 -473l98 -97q41 -41 41 -75q0 -27 -22.5 -49.5t-49.5 -22.5q-35 0 -76 41z" unicode="Q"/>
<glyph glyph-name="R" d="M717 1294h-381v-569h381q131 0 206 81q76 80 76 204t-76 203q-75 81 -206 81zM285 1434h415q212 0 334 -114q121 -114 121 -310q0 -146 -80 -255q-79 -108 -221 -153l307 -481q17 -31 19 -58q0 -29 -18 -46t-48 -17q-50 0 -82 51l-346 535h-350v-486q0 -100 -76 -100 t-76 100v1237q0 45 28 71t73 26z" unicode="R"/>
<glyph glyph-name="S" d="M104 266q-18 33 -18 60q0 33 20.5 53t51.5 20q47 0 80 -49q77 -118 160 -176q80 -55 225 -55q160 0 245.5 71t85.5 207q0 95 -69 162q-26 26 -84 52q-53 24 -97 39t-118 36q-208 62 -327 147q-118 87 -118 240q0 188 134 284q134 97 327 97q289 0 432 -227q22 -37 22 -70 t-19.5 -53.5t-51.5 -20.5q-49 0 -78 54q-50 95 -123 136.5t-182 41.5q-147 0 -226 -60.5t-79 -179.5q0 -73 72 -139q29 -26 86 -51q41 -18 97 -38q11 -4 27 -9.5t42.5 -14t44.5 -14.5q92 -29 135 -46q43 -16 116 -53q68 -35 104 -72q89 -95 89 -228q0 -212 -138 -321 q-137 -109 -349 -109h-4q-349 0 -515 286z" unicode="S"/>
<glyph glyph-name="T" d="M152 1434h966q92 0 92 -70t-92 -70h-407v-1194q0 -100 -76 -100t-76 100v1194h-407q-92 0 -92 70t92 70z" unicode="T"/>
<glyph glyph-name="U" d="M139 522v811q0 100 76 100h2q74 0 74 -100v-805q0 -212 89 -310.5t269 -98.5q179 0 267 98.5t88 310.5v805q0 100 75 100h2q74 0 74 -100v-805q0 -262 -132 -405t-374 -143q-241 0 -376 143q-134 143 -134 399z" unicode="U"/>
<glyph glyph-name="V" d="M565 57l-463 1274q-6 18 -6 33q0 30 21.5 50t52.5 20q57 0 78 -60l389 -1091l389 1091q20 58 78 60q31 0 52.5 -20t21.5 -50q0 -15 -7 -33l-462 -1274q-19 -57 -72 -57t-72 57z" unicode="V"/>
<glyph glyph-name="W" d="M899 66l-264 931l-264 -931q-20 -66 -70 -66q-59 0 -70 66l-168 1249q-2 16 -2 24q0 93 72 95q65 0 76 -72l117 -975l229 807q19 70 79 70t81 -70l229 -807l117 975q11 72 76 72q71 0 71 -91q0 -10 -2 -28l-168 -1249q-10 -66 -69 -66q-51 0 -70 66z" unicode="W"/>
<glyph glyph-name="X" d="M621 612l-402 -573q-27 -39 -67 -39q-27 0 -46.5 19.5t-19.5 46.5q0 29 18 53l433 614l-408 582q-18 21 -18 50q0 28 18 48.5t44 20.5h3q41 0 68 -39l377 -539l376 539q27 39 68 39q27 0 46 -19.5t19 -46.5q0 -29 -18 -53l-407 -582l432 -614q18 -21 18 -50 q0 -28 -18 -48.5t-44 -20.5h-3q-41 0 -68 39z" unicode="X"/>
<glyph glyph-name="Y" d="M559 100v541l-444 659q-21 27 -21 57q0 32 20.5 54.5t51.5 22.5h2q48 0 76 -45l391 -598l391 598q28 45 76 45h2q31 0 51.5 -22.5t20.5 -54.5t-21 -57l-444 -659v-541q0 -100 -76 -100t-76 100z" unicode="Y"/>
<glyph glyph-name="Z" d="M1057 0h-858q-40 0 -63 23t-23 59q0 28 16 53l797 1159h-701q-56 0 -78 13.5t-22 54.5t23.5 56.5t76.5 15.5h801q45 0 72.5 -22.5t27.5 -57.5q0 -28 -18 -56l-789 -1159h738q54 0 78 -14.5t24 -54.5t-24.5 -55t-77.5 -15z" unicode="Z"/>
<glyph glyph-name="bracketleft" d="M864 1376h-303v-1581h303q80 0 80 -61q0 -62 -80 -62h-381q-33 0 -49.5 15.5t-15.5 46.5v1704q0 61 65 61h381q80 0 80 -62q0 -61 -80 -61z" unicode="["/>
<glyph glyph-name="backslash" d="M1059 35l-987 1278q-23 29 -23 57q0 63 64 64q34 0 63 -35l987 -1278q23 -29 23 -58q0 -63 -64 -63q-34 0 -63 35z" unicode="\"/>
<glyph glyph-name="bracketright" d="M801 1376h-303q-80 0 -80 61q0 62 80 62h381q33 0 49.5 -15t15.5 -46v-1704q0 -60 -65 -62h-381q-80 0 -80 62q0 61 80 61h303v1581z" unicode="]"/>
<glyph glyph-name="asciicircum" d="M690 1423l453 -643q20 -35 20 -55q0 -24 -15 -39.5t-36 -15.5q-34 0 -63 39l-414 581l-414 -581q-29 -39 -63 -39q-21 0 -36.5 15.5t-15.5 39.5q0 21 21 55l453 643q25 31 55 31t55 -31z" unicode="^"/>
<glyph glyph-name="underscore" d="M289 0h737q88 0 88 -63q0 -64 -88 -64h-737q-88 0 -88 64q0 63 88 63z" unicode="_"/>
<glyph glyph-name="grave" d="M713 1663l-252 129q-51 27 -51 72q0 28 16.5 44.5t46.5 16.5q15 0 39 -10l252 -129q51 -26 51 -72q0 -28 -16.5 -44.5t-46.5 -16.5q-15 0 -39 10z" unicode="`"/>
<glyph glyph-name="a" d="M383 809q-88 -112 -88 -297t88 -297q89 -113 239 -113q151 0 240 113q88 112 88 297t-88 297q-89 113 -240 113q-150 0 -239 -113zM618 -20q-215 0 -341 139q-125 140 -125 393q0 230 119 381q120 151 347 151q104 0 194 -44q88 -43 138 -113v47q0 90 72 90t72 -90v-844 q0 -90 -72 -90t-72 90v43q-40 -63 -134 -108q-92 -45 -198 -45z" unicode="a"/>
<glyph glyph-name="b" d="M915 215q82 112 82 297t-82 297q-81 113 -231 113q-149 0 -232 -113t-83 -297t83 -297t232 -113q150 0 231 113zM688 -20q-100 0 -190 44q-88 43 -129 109v-43q0 -90 -72 -90t-72 90v1253q0 90 72 90h2q70 0 70 -90v-456q116 157 315 157h4q225 0 339 -150 q114 -149 114 -382q0 -256 -120 -394t-333 -138z" unicode="b"/>
<glyph glyph-name="c" d="M649 1044q131 0 206 -37q77 -36 144 -106q39 -41 39 -80q0 -61 -61 -61q-36 0 -64 37q-101 125 -264 125q-174 0 -264 -114t-90 -296t90 -296t264 -114q163 0 264 125q28 37 64 37q61 0 61 -61q0 -39 -39 -80q-65 -68 -145 -107q-76 -36 -205 -36q-237 0 -368 149 q-129 150 -129 383t129 382q131 150 368 150z" unicode="c"/>
<glyph glyph-name="d" d="M395 809q-82 -112 -82 -297t82 -297q83 -113 231 -113q150 0 233 113t83 297t-83 297t-233 113q-148 0 -231 -113zM623 -20q-213 0 -333 138t-120 394q0 233 113 382q114 150 340 150q204 0 319 -157v456q0 90 71 90h2q70 0 70 -90v-1253q0 -90 -72 -90q-71 0 -71 90v43 q-41 -67 -129 -110q-87 -43 -190 -43z" unicode="d"/>
<glyph glyph-name="e" d="M303 582h684q-23 151 -108 245q-84 95 -230 95q-142 0 -236 -103q-93 -101 -110 -237zM152 512q0 217 139 374q140 158 358 158q211 0 346 -143t135 -360q0 -82 -90 -82h-745q6 -141 102 -249q98 -108 244 -108q216 0 340 142q33 35 68 35q29 0 47 -19t18 -49 q0 -38 -31 -66q-95 -94 -199 -130q-103 -35 -235 -35q-227 0 -362 154t-135 378z" unicode="e"/>
<glyph glyph-name="f" d="M487 90v811h-276q-88 0 -88 61q0 62 88 62h276v70q0 171 89 266q90 94 235 94q155 0 276 -90q37 -25 37 -61q0 -26 -18 -43t-43 -17q-26 0 -51 19q-89 69 -191 69h-4q-186 0 -186 -256v-51h395q88 0 88 -62q0 -61 -88 -61h-395v-811q0 -90 -72 -90t-72 90z" unicode="f"/>
<glyph glyph-name="g" d="M596 102q149 0 232 113t83 297t-83 297t-232 113q-152 0 -239 -114t-87 -296t87 -296t239 -114zM592 1044q108 0 191.5 -42t127.5 -111v43q0 90 72 90t72 -90v-830q0 -254 -108 -394q-107 -140 -331 -140q-310 0 -440 256q-12 27 -12 49q0 30 18 48t45 18q43 0 72 -50 q56 -102 130.5 -150t186.5 -48q295 0 295 383v61q-116 -157 -315 -157h-4q-228 0 -346 150q-119 152 -119 382q0 253 125 393q124 139 340 139z" unicode="g"/>
<glyph glyph-name="h" d="M233 90v1253q0 90 72 90h2q70 0 70 -90v-479q40 71 133 126q92 54 195 54q182 0 270 -99t88 -310v-545q0 -90 -72 -90q-71 0 -71 90v522q0 164 -52 237q-51 73 -176 73q-147 0 -231 -126t-84 -335v-371q0 -90 -72 -90t-72 90z" unicode="h"/>
<glyph glyph-name="i" d="M769 1400q34 -34 34 -81t-34 -81t-81 -34t-81 34t-34 81t34 81t81 34t81 -34zM313 123h322v778h-244q-88 0 -88 61q0 62 88 62h322q33 0 49.5 -15t15.5 -46v-840h309q88 0 88 -64q0 -59 -88 -59h-774q-88 0 -88 61q0 62 88 62z" unicode="i"/>
<glyph glyph-name="j" d="M863 1396q38 -38 38 -92q0 -53 -38 -91q-37 -37 -91 -37t-91 37q-38 38 -38 91q0 54 38 92t91 38t91 -38zM713 901h-254q-88 0 -88 61q0 62 88 62h332q33 0 49.5 -15t15.5 -46v-1065q0 -174 -84 -251q-85 -77 -223 -77q-163 0 -281 84q-45 33 -45 72q0 27 19.5 45 t46.5 18q29 0 57 -22q92 -74 207 -74q82 0 121 48t39 155v1005z" unicode="j"/>
<glyph glyph-name="k" d="M950 903l-256 -266l348 -514q20 -29 21 -57q0 -30 -18 -48t-46 -18q-41 0 -71 45l-330 490l-172 -179v-266q0 -90 -72 -90q-71 0 -71 90v1253q0 90 71 90h2q70 0 70 -90v-796l422 444q27 33 65 33q27 0 45.5 -17.5t18.5 -43.5q0 -31 -27 -60z" unicode="k"/>
<glyph glyph-name="l" d="M313 123h322v1188h-244q-88 0 -88 61q0 62 88 62h322q33 0 49.5 -15.5t15.5 -46.5v-1249h309q88 0 88 -64q0 -59 -88 -59h-774q-88 0 -88 61q0 62 88 62z" unicode="l"/>
<glyph glyph-name="m" d="M111 90v844q0 90 71 90q72 0 72 -90v-31q63 141 217 141q181 0 236 -159q61 159 224 159h3q125 0 188 -79q64 -77 64 -207v-668q0 -90 -72 -90t-72 90v617q0 112 -32.5 163.5t-104.5 51.5q-84 0 -133 -94q-49 -92 -49 -236v-502q0 -90 -72 -90q-71 0 -71 90v623 q0 209 -144 209q-90 0 -136 -105q-46 -102 -46 -252v-475q0 -90 -72 -90q-71 0 -71 90z" unicode="m"/>
<glyph glyph-name="n" d="M233 90v844q0 90 72 90t72 -90v-70q40 71 133 126q92 54 195 54q182 0 270 -99t88 -310v-545q0 -90 -72 -90q-71 0 -71 90v522q0 164 -52 237q-51 73 -176 73q-147 0 -231 -126t-84 -335v-371q0 -90 -72 -90t-72 90z" unicode="n"/>
<glyph glyph-name="o" d="M394 809q-91 -112 -91 -297t91 -297q92 -113 238 -113q147 0 239 113t92 297t-92 297t-239 113q-146 0 -238 -113zM981 130q-125 -150 -348 -150t-348 150q-125 152 -125 382t125 381q124 151 348 151t348 -151q125 -151 125 -381t-125 -382z" unicode="o"/>
<glyph glyph-name="p" d="M915 215q82 112 82 297t-82 297q-81 113 -231 113q-149 0 -232 -113t-83 -297t83 -297t232 -113q150 0 231 113zM688 1044q213 0 333 -138t120 -394q0 -233 -114 -383q-114 -149 -339 -149q-204 0 -319 157v-456q0 -90 -72 -90h-2q-70 0 -70 90v1253q0 90 72 90t72 -90 v-43q40 65 129 109q90 44 190 44z" unicode="p"/>
<glyph glyph-name="q" d="M395 809q-82 -112 -82 -297t82 -297q83 -113 231 -113q150 0 233 113t83 297t-83 297t-233 113q-148 0 -231 -113zM623 1044q100 0 190 -44q88 -43 129 -109v43q0 90 71 90q72 0 72 -90v-1253q0 -90 -72 -90h-2q-69 0 -69 90v456q-116 -157 -315 -157h-4q-225 0 -339 149 q-114 150 -114 383q0 256 120 394t333 138z" unicode="q"/>
<glyph glyph-name="r" d="M324 90v844q0 90 71 90q72 0 72 -90v-70q34 66 128 123q93 57 202 57q236 0 325 -194q9 -23 11 -41q0 -74 -74 -74q-49 0 -76 60q-55 127 -195 127q-147 0 -234 -125t-87 -297v-410q0 -90 -72 -90q-71 0 -71 90z" unicode="r"/>
<glyph glyph-name="s" d="M250 168q-27 35 -27 68q0 29 21 47t51 18q45 0 72 -39q30 -44 64 -79q31 -30 92 -55q64 -26 149 -26q274 0 274 193q0 43 -23.5 71t-78.5 46q-61 21 -95 28q-42 10 -128 23q-78 12 -131 28q-50 15 -110 46q-114 61 -114 200q0 145 114 226t269 81q125 0 209.5 -36.5 t149.5 -122.5q22 -27 22 -59q0 -29 -18.5 -48.5t-46.5 -19.5q-44 0 -76 47q-78 117 -240 117q-112 0 -176 -53q-63 -53 -63 -132q0 -1 -0.5 -5t-0.5 -5q0 -60 85 -103q21 -10 62 -19l64 -14q72 -13 74 -13q157 -23 268 -78q128 -60 128 -189q0 -156 -112 -244 q-112 -87 -306 -87q-282 0 -422 188z" unicode="s"/>
<glyph glyph-name="t" d="M487 1364q0 90 72 90t72 -90v-340h395q88 0 88 -62q0 -61 -88 -61h-395v-598q0 -201 178 -201q76 0 115 16q40 16 92 56q25 18 47 19q24 0 40.5 -17.5t16.5 -42.5q0 -36 -39 -65q-68 -47 -131 -68q-65 -20 -157 -20q-143 0 -224.5 78.5t-81.5 226.5v616h-276 q-88 0 -88 61q0 62 88 62h276v340z" unicode="t"/>
<glyph glyph-name="u" d="M1067 934v-844q0 -90 -72 -90q-71 0 -71 90v70q-40 -72 -134 -126q-92 -54 -194 -54q-182 0 -270 99t-88 310v545q0 90 71 90q72 0 72 -90v-522q0 -164 51 -237t176 -73q147 0 231 126q85 125 85 335v371q0 90 71 90q72 0 72 -90z" unicode="u"/>
<glyph glyph-name="v" d="M584 41l-398 870q-10 19 -10 43q0 30 20 50t50 20q55 0 82 -61l317 -721l318 721q27 61 81 61q30 0 50 -20t20 -50q0 -24 -10 -43l-397 -870q-20 -41 -62 -41q-43 0 -61 41z" unicode="v"/>
<glyph glyph-name="w" d="M365 0q-53 0 -70 66l-215 847q-4 17 -4 31q0 36 22 58t54 22q57 0 71 -68l158 -690l182 514q23 59 72 59h2q47 0 70 -59l182 -514l158 690q14 68 71 68q32 0 54 -22t22 -58q0 -12 -4 -31l-215 -847q-17 -66 -70 -66q-55 0 -78 63l-192 551l-193 -551q-22 -63 -77 -63z " unicode="w"/>
<glyph glyph-name="x" d="M719 512l309 -387q25 -29 25 -62q0 -27 -18 -45t-48 -18q-39 0 -67 37l-291 362l-291 -362q-28 -37 -68 -37q-29 0 -47 18t-18 45q0 32 24 62l310 387l-310 387q-24 30 -24 61q0 27 18.5 45.5t46.5 18.5q40 0 68 -37l291 -364l291 364q28 37 67 37q30 0 48 -18t18 -45 q0 -33 -25 -62z" unicode="x"/>
<glyph glyph-name="y" d="M567 35l-395 874q-6 18 -6 35q0 35 21.5 57.5t52.5 22.5q46 0 71 -57l332 -760l324 758q27 59 80 59q29 0 49 -20t20 -50q0 -20 -12 -49l-379 -848q-47 -107 -75 -162q-28 -60 -73 -129q-44 -71 -86 -109t-102.5 -62.5t-126.5 -24.5q-158 0 -158 80q0 30 18 46.5t48 16.5 q5 0 40 -10t56 -10q96 0 158 80q63 80 143 262z" unicode="y"/>
<glyph glyph-name="z" d="M965 0h-693q-41 0 -63.5 21t-22.5 57q0 28 21 51l641 772h-543q-88 0 -88 61q0 62 88 62h641q86 0 86 -80q0 -30 -20 -53l-637 -768h590q88 0 88 -62q0 -61 -88 -61z" unicode="z"/>
<glyph glyph-name="braceleft" d="M262 647q93 0 147 66.5t54 199.5v525q0 61 65 61h353q80 0 80 -62q0 -61 -80 -61h-275v-481q0 -251 -186 -309q186 -58 186 -310v-481h275q80 0 80 -61q0 -62 -80 -62h-353q-33 0 -49.5 15.5t-15.5 46.5v524q0 133 -54 199.5t-147 66.5q-80 0 -80 61q0 62 80 62z" unicode="{"/>
<glyph glyph-name="bar" d="M563 -72v1577q0 35 20.5 58.5t51.5 23.5t51.5 -23.5t20.5 -58.5v-1577q0 -35 -20.5 -58.5t-51.5 -23.5t-51.5 23.5t-20.5 58.5z" unicode="|"/>
<glyph glyph-name="braceright" d="M1008 524q-93 0 -147 -66.5t-54 -199.5v-524q0 -60 -66 -62h-352q-80 0 -80 62q0 61 80 61h275v481q0 250 186 310q-186 58 -186 309v481h-275q-80 0 -80 61q0 62 80 62h352q66 0 66 -61v-525q0 -133 54 -199.5t147 -66.5q79 0 79 -62q0 -61 -79 -61z" unicode="}"/>
<glyph glyph-name="asciitilde" d="M317 575q-27 -25 -55 -24q-24 0 -38.5 15.5t-14.5 41.5q0 31 29 60q84 84 213 84q91 0 208 -58q119 -57 187 -57q75 0 133 53q28 25 55 25q24 0 38.5 -15.5t14.5 -42.5q0 -31 -28 -59q-84 -84 -213 -84q-92 0 -211 57q-117 58 -184 58q-77 -2 -134 -54z" unicode="~"/>
<glyph glyph-name="uni00A0" unicode=" "/>
<glyph glyph-name="exclamdown" d="M529 792q-42 42 -42 105q0 65 42 105q42 42 105 42q64 0 106 -42q42 -40 42 -105q0 -63 -42 -105t-106 -42q-63 0 -105 42zM528 -293l31 778q4 109 76 109t76 -109l30 -778q-2 -54 -30 -85.5t-76 -31.5t-76.5 31.5t-30.5 85.5z" unicode="¡"/>
<glyph glyph-name="cent" d="M567 309v813q-142 -19 -216 -131q-72 -109 -72 -274q0 -164 72 -275q74 -111 216 -133zM567 57v129q-208 22 -321 169q-111 147 -111 362t111 361q113 148 321 167v131q0 78 61 78q62 0 62 -78v-131q170 -13 293 -139q39 -40 39 -80q0 -61 -61 -61q-35 0 -64 36 q-79 100 -207 121v-813q124 19 207 123q28 37 64 37q61 0 61 -61q0 -40 -39 -80q-57 -60 -125 -97q-64 -36 -168 -45v-129q0 -78 -62 -78q-61 0 -61 78z" unicode="¢"/>
<glyph glyph-name="sterling" d="M967 0h-785q-61 0 -61 59q0 40 47 60q93 38 131 101q39 64 39 188v290h-84q-88 0 -88 61q0 62 88 62h84v248q0 184 91 278q92 95 237 95q211 0 309 -209q12 -28 12 -49q0 -34 -18.5 -52t-46.5 -18q-48 0 -70 55q-58 150 -186 150q-86 0 -135.5 -63t-49.5 -181v-254h224 q88 0 88 -62q0 -61 -88 -61h-224v-286q0 -116 -29 -185t-102 -104h559v221q0 88 61 88q62 0 62 -88v-283q1 -31 -15.5 -46t-49.5 -15z" unicode="£"/>
<glyph glyph-name="currency" d="M401 966q-69 -74 -69 -182t69 -182q71 -74 180 -74q111 0 180 74q70 73 70 182t-70 182q-69 74 -180 74q-109 0 -180 -74zM279 1001l-52 52q-37 33 -37 65q0 20 18.5 39t39.5 19q29 0 65 -37l52 -52q95 66 217 66t217 -66l51 52q37 37 65 37q20 0 39 -18.5t19 -39.5 q0 -34 -37 -65l-51 -52q67 -94 67 -212v-5q0 -123 -67 -217l51 -51q37 -33 37 -65q0 -20 -18.5 -39t-39.5 -19q-29 0 -65 37l-51 51q-95 -66 -217 -66q-122 1 -217 66l-52 -51q-37 -37 -65 -37q-20 0 -39 18.5t-19 39.5q0 34 37 65l52 51q-68 95 -68 217t68 217z" unicode="¤"/>
<glyph glyph-name="yen" d="M307 768h166l-358 532q-21 27 -21 57q0 32 20.5 54.5t51.5 22.5h2q48 0 76 -45l391 -598l391 598q28 45 76 45h2q31 0 51.5 -22.5t20.5 -54.5t-21 -57l-358 -532h166q88 0 88 -64q0 -63 -88 -63h-252v-201h252q88 0 88 -64q0 -63 -88 -63h-252v-213q0 -100 -76 -100 t-76 100v213h-252q-88 0 -88 63q0 64 88 64h252v201h-252q-88 0 -88 63q0 64 88 64z" unicode="¥"/>
<glyph glyph-name="brokenbar" d="M563 883v622q0 35 20.5 58.5t51.5 23.5t51.5 -23.5t20.5 -58.5v-622q0 -35 -20.5 -58.5t-51.5 -23.5t-51.5 23.5t-20.5 58.5zM563 -72v623q0 35 20.5 58.5t51.5 23.5t51.5 -23.5t20.5 -58.5v-623q0 -35 -20.5 -58.5t-51.5 -23.5t-51.5 23.5t-20.5 58.5z" unicode="¦"/>
<glyph glyph-name="section" d="M453 760q-101 -84 -103 -203q0 -88 62 -142q64 -53 278 -155q111 102 111 215q0 84 -63 132q-62 49 -285 153zM944 477q0 -151 -145 -284q139 -112 139 -267q0 -182 -103 -269q-102 -87 -257 -87q-233 0 -375 205q-20 26 -20 56q0 28 18 47.5t45 19.5h2q45 0 74 -50 q95 -155 253 -155h3q99 0 158 61t59 168q0 91 -61 153q-60 65 -147 102q-83 36 -173 80q-86 42 -147 115q-60 74 -60 183q0 152 135 272q-141 111 -141 271q0 182 102 269q103 87 258 87q236 0 369 -199q18 -32 18 -55q0 -29 -18 -48t-45 -19q-46 0 -74 49q-90 149 -247 149 h-3q-99 0 -158 -61t-59 -168q0 -72 42.5 -129t113.5 -88l144 -69q76 -38 144 -75q69 -37 112 -104q44 -68 44 -160z" unicode="§"/>
<glyph glyph-name="dieresis" d="M814 1792q30 -30 30 -74t-30 -74t-75 -30t-75 30q-29 29 -29 74t29 74q30 31 75 31t75 -31zM421 1792q30 -30 30 -74t-30 -74t-75 -30t-75 30q-29 29 -29 74t29 74q30 31 75 31t75 -31z" unicode="¨"/>
<glyph glyph-name="copyright" d="M639 1018q147 0 225 -90q18 -24 18 -48q0 -19 -12.5 -31.5t-31.5 -12.5q-28 0 -41 22q-51 72 -158 72q-83 0 -133.5 -55t-50.5 -150q0 -91 51 -147q51 -54 133 -54q105 0 158 72q14 23 41 22q18 0 31.5 -14t13.5 -35q0 -18 -19 -43q-78 -90 -225 -90q-127 0 -207 83 t-80 206q0 127 80 210t207 83zM639 266q213 0 334 133t121 326t-122 327t-333 134q-210 0 -332 -134q-121 -133 -121 -327q0 -193 121 -326t332 -133zM59 725q0 248 171 410q170 163 409 163q237 0 410 -164q172 -163 172 -409t-172 -409q-173 -162 -410 -162 q-238 0 -409 162q-171 163 -171 409z" unicode="©"/>
<glyph glyph-name="ordfeminine" d="M616 721q112 0 177 84q65 85 65 225t-65 225q-65 84 -177 84q-114 0 -178.5 -82.5t-64.5 -226.5t64 -226q65 -83 179 -83zM612 614q-168 0 -265 108q-97 109 -97 308q0 179 92 297q92 117 270 117q172 0 250 -115v29q0 69 58 69h2q61 0 61 -69v-658q0 -69 -58 -69h-3 q-58 0 -60 69v27q-31 -51 -98.5 -82t-151.5 -31z" unicode="ª"/>
<glyph glyph-name="guillemotleft" d="M926 98l-377 381q-29 27 -29 56q0 26 29 55l377 381q24 24 54 24h3q25 0 41 -16t16 -43q0 -29 -22 -51l-334 -350l334 -351q23 -23 22 -51q0 -27 -16 -43t-41 -16h-3q-30 0 -54 24zM578 98l-377 381q-29 27 -29 56q0 26 29 55l377 381q24 24 54 24h3q25 0 41 -16t16 -43 q0 -29 -22 -51l-334 -350l334 -351q23 -23 22 -51q0 -27 -16 -43t-41 -16h-3q-30 0 -54 24z" unicode="«"/>
<glyph glyph-name="logicalnot" d="M1079 430q0 -100 -76 -100q-75 0 -75 100v303h-703q-92 0 -92 69q0 70 92 70h754q45 0 72.5 -25.5t27.5 -70.5v-346z" unicode="¬"/>
<glyph glyph-name="uni00AD" d="M311 680h647q88 0 88 -64q1 -31 -21.5 -47t-66.5 -16h-647q-88 0 -88 63q0 64 88 64z" unicode="­"/>
<glyph glyph-name="registered" d="M686 938h-154v-188h154q109 0 109 94t-109 94zM498 1012h200q88 0 137.5 -46t49.5 -122q0 -125 -133 -162l125 -170q12 -16 12 -33t-12.5 -29t-28.5 -12q-29 0 -47 27l-152 211h-117v-182q0 -54 -47 -56q-43 0 -43 56v462q2 56 56 56zM639 266q213 0 334 133t121 326 t-122 327t-333 134q-210 0 -332 -134q-121 -133 -121 -327q0 -193 121 -326t332 -133zM59 725q0 248 171 410q170 163 409 163q237 0 410 -164q172 -163 172 -409t-172 -409q-173 -162 -410 -162q-238 0 -409 162q-171 163 -171 409z" unicode="®"/>
<glyph glyph-name="overscore" d="M451 1782h303q90 0 90 -62q0 -61 -90 -61h-303q-90 0 -90 61q0 62 90 62z" unicode="¯"/>
<glyph glyph-name="degree" d="M373 1135q0 -89 53 -150q53 -59 139 -59q88 0 142 59q55 58 55 150q0 93 -55 152q-54 61 -142 61q-87 0 -139 -61q-53 -61 -53 -152zM254 1135q0 136 86 224q86 87 225 87q141 0 228 -87q88 -87 88 -224q0 -135 -87 -222q-88 -86 -229 -86q-139 0 -225 86q-86 88 -86 222 z" unicode="°"/>
<glyph glyph-name="plusminus" d="M289 127h737q88 0 88 -64q0 -63 -88 -63h-737q-88 0 -88 63q0 64 88 64zM721 1174v-306h305q88 0 88 -64q0 -63 -88 -63h-305v-305q0 -88 -64 -88q-63 0 -63 88v305h-305q-88 0 -88 63q0 64 88 64h305v306q0 88 63 88q64 0 64 -88z" unicode="±"/>
<glyph glyph-name="uni00B2" d="M852 756h-403q-23 0 -38.5 16t-15.5 39v29q0 159 223 256q87 38 122.5 70t35.5 79q0 49 -35 79t-94 30q-54 0 -89.5 -33.5t-41.5 -87.5q-6 -55 -55 -55q-23 0 -37 15t-14 40q0 86 68 148q69 63 169 63q113 0 173 -57q61 -55 61 -144q0 -73 -49 -125.5t-152 -99.5 q-86 -40 -126 -77t-48 -89h346q55 0 55 -49q0 -47 -55 -47z" unicode="²"/>
<glyph glyph-name="uni00B3" d="M748 961q0 49 -31.5 81.5t-81.5 32.5h-19q-53 0 -53 45t53 45h15q96 0 96 99q0 38 -27.5 64t-74.5 26q-81 0 -107 -86q-13 -49 -55 -49q-19 0 -33 13.5t-14 35.5q0 8 2 16q40 160 207 160q95 0 150 -52q56 -51 56 -128q0 -94 -90 -140q111 -40 111 -157q0 -93 -63 -158 q-61 -64 -164 -64q-105 0 -170 61q-66 61 -66 152q0 55 49 56q51 0 56 -56q12 -122 128 -122h3q56 0 89.5 32.5t33.5 92.5z" unicode="³"/>
<glyph glyph-name="acute" d="M764 1792l-252 -129q-24 -10 -39 -10q-30 0 -46.5 17t-16.5 44q0 46 51 72l252 129q24 10 39 10q30 0 46.5 -17t16.5 -44q0 -45 -51 -72z" unicode="´"/>
<glyph glyph-name="mu" d="M1067 934v-844q0 -90 -72 -90q-71 0 -71 90v70q-40 -72 -134 -126q-92 -54 -194 -54q-132 0 -215 51v-350q0 -90 -72 -90h-2q-69 0 -69 90v1253q0 90 71 90q72 0 72 -90v-522q0 -164 51 -237t176 -73q147 0 231 126q85 125 85 335v371q0 90 71 90q72 0 72 -90z" unicode="µ"/>
<glyph glyph-name="mu" d="M1067 934v-844q0 -90 -72 -90q-71 0 -71 90v70q-40 -72 -134 -126q-92 -54 -194 -54q-132 0 -215 51v-350q0 -90 -72 -90h-2q-69 0 -69 90v1253q0 90 71 90q72 0 72 -90v-522q0 -164 51 -237t176 -73q147 0 231 126q85 125 85 335v371q0 90 71 90q72 0 72 -90z" unicode="μ"/>
<glyph glyph-name="paragraph" d="M524 1434h551q92 0 92 -70t-92 -70h-18v-1345q0 -100 -76 -100h-2q-74 0 -74 100v1345h-229v-1345q0 -100 -76 -100h-2q-74 0 -74 100v829q-136 0 -230 96q-95 98 -95 232t95 231q94 97 230 97z" unicode="¶"/>
<glyph glyph-name="middot" d="M529 509q-42 42 -42 105q0 64 42 106t105 42q64 0 106 -42t42 -106q0 -63 -42 -105t-106 -42q-63 0 -105 42z" unicode="·"/>
<glyph glyph-name="cedilla" d="M455 -387l77 201q22 55 72 55q28 0 45 -17t17 -47q0 -23 -9 -41l-77 -200q-22 -54 -72 -56q-28 0 -45 17t-17 47q2 23 9 41z" unicode="¸"/>
<glyph glyph-name="uni00B9" d="M621 819v481l-125 -79q-15 -9 -31 -11q-18 0 -29.5 12.5t-11.5 30.5q0 20 27 41l161 111q46 29 66 29q41 0 41 -45v-570q0 -63 -49 -63t-49 63z" unicode="¹"/>
<glyph glyph-name="ordmasculine" d="M446 1255q-65 -82 -65 -225t65 -226q66 -83 180 -83q115 0 180 83q66 82 66 226t-66 225q-64 82 -180 82q-114 0 -180 -82zM898 732q-97 -118 -271 -118q-175 0 -272 118t-97 298q0 181 97 297q97 117 272 117q174 0 271 -117q97 -116 97 -297q0 -180 -97 -298z" unicode="º"/>
<glyph glyph-name="guillemotright" d="M721 479l-377 -381q-24 -24 -54 -24h-3q-25 0 -41.5 16t-16.5 43q0 28 23 51l334 351l-334 350q-23 23 -23 51q0 27 16.5 43t41.5 16q33 0 57 -24l377 -381q29 -29 29 -55q0 -29 -29 -56zM1069 479l-377 -381q-24 -24 -54 -24h-3q-25 0 -41 16t-16 43q0 29 22 51l334 351 l-334 350q-23 23 -22 51q0 27 16 43t41 16q33 0 57 -24l377 -381q29 -29 29 -55q0 -29 -29 -56z" unicode="»"/>
<glyph glyph-name="onequarter" d="M313 819v481l-125 -79q-15 -9 -30 -11q-18 0 -29.5 12.5t-11.5 30.5q0 20 26 41l162 111q46 29 66 29q41 0 41 -45v-570q0 -63 -50 -63q-49 0 -49 63zM166 455l860 600q25 16 41 16q22 0 37.5 -18t15.5 -39q0 -34 -33 -56l-860 -602q-23 -14 -41 -14q-22 0 -37.5 18 t-15.5 41q0 31 33 54zM721 238h170v266zM891 78v65h-258q-18 0 -31.5 11.5t-13.5 29.5q0 16 8 27l281 426q27 39 65 39q20 0 33.5 -13.5t13.5 -33.5v-391h78q51 0 51 -48q0 -47 -51 -47h-78v-65q0 -78 -49 -78t-49 78z" unicode="¼"/>
<glyph glyph-name="onehalf" d="M1118 0h-403q-23 0 -38 16.5t-15 38.5v29q0 159 223 256q87 38 122 70t35 79q0 50 -34.5 79.5t-94.5 29.5q-54 0 -89.5 -33.5t-41.5 -87.5q-6 -55 -55 -55q-23 0 -37 15.5t-14 39.5q0 86 68 148q69 63 169 63q113 0 173 -57q61 -55 61 -144q0 -73 -49 -125.5t-152 -99.5 q-87 -40 -126.5 -76.5t-47.5 -89.5h346q55 0 56 -49q-2 -47 -56 -47zM313 819v481l-125 -79q-15 -9 -30 -11q-18 0 -29.5 12.5t-11.5 30.5q0 20 26 41l162 111q46 29 66 29q41 0 41 -45v-570q0 -63 -50 -63q-49 0 -49 63zM166 455l860 600q25 16 41 16q22 0 37.5 -18 t15.5 -39q0 -34 -33 -56l-860 -602q-23 -14 -41 -14q-22 0 -37.5 18t-15.5 41q0 31 33 54z" unicode="½"/>
<glyph glyph-name="threequarters" d="M418 961q0 49 -31.5 81.5t-81.5 32.5h-18q-53 0 -54 45q0 45 54 45h14q96 0 96 99q0 38 -27.5 64t-74.5 26q-81 0 -107 -86q-13 -49 -55 -49q-19 0 -33 13.5t-14 35.5q0 8 2 16q20 77 74 118.5t133 41.5q95 0 150 -52q57 -51 57 -128q0 -94 -90 -140q110 -41 110 -154 q0 -97 -63 -161q-61 -64 -164 -64q-105 0 -170 61q-66 62 -66 152q0 54 50 56q50 0 55 -56q12 -122 128 -122h3q56 0 89.5 32.5t33.5 92.5zM166 455l860 600q25 16 41 16q22 0 37.5 -18t15.5 -39q0 -34 -33 -56l-860 -602q-23 -14 -41 -14q-22 0 -37.5 18t-15.5 41 q0 31 33 54zM721 238h170v266zM891 78v65h-258q-18 0 -31.5 11.5t-13.5 29.5q0 16 8 27l281 426q27 39 65 39q20 0 33.5 -13.5t13.5 -33.5v-391h78q51 0 51 -48q0 -47 -51 -47h-78v-65q0 -78 -49 -78t-49 78z" unicode="¾"/>
<glyph glyph-name="questiondown" d="M751 982q42 -42 42 -106q0 -63 -42 -105t-106 -42q-63 0 -105 42t-42 105q0 64 42 106t105 42q64 0 106 -42zM397 -90q0 -104 63 -160.5t173 -56.5q115 0 180 66q65 64 70 159q5 78 71 78q72 0 72 -84q0 -135 -106 -238q-106 -104 -287 -104q-167 0 -274 87 q-105 87 -105 245q0 69 31 131q30 61 67 99q33 34 97 89q125 112 124 248q0 104 72 104t72 -104q0 -113 -51 -195q-49 -80 -138 -157q-131 -113 -131 -207z" unicode="¿"/>
<glyph glyph-name="Agrave" d="M735 1622l-252 129q-51 27 -51 72q0 28 17 44.5t47 16.5q15 0 39 -10l251 -129q50 -25 52 -72q0 -28 -17 -44.5t-47 -16.5q-15 0 -39 10zM635 1147l-205 -576h410zM1024 57l-135 375h-508l-135 -375q-20 -57 -74 -57q-33 0 -52.5 21.5t-19.5 56.5q0 16 6 39l467 1259 q19 57 61 57h2q40 0 60 -57l467 -1259q6 -23 6 -39q0 -35 -19.5 -56.5t-51.5 -21.5q-54 0 -74 57z" unicode="À"/>
<glyph glyph-name="Aacute" d="M786 1751l-251 -129q-24 -10 -39 -10q-30 0 -47 17t-17 44q0 47 51 72l252 129q24 10 39 10q30 0 47 -17t17 -44q-2 -45 -52 -72zM635 1147l-205 -576h410zM1024 57l-135 375h-508l-135 -375q-20 -57 -74 -57q-33 0 -52.5 21.5t-19.5 56.5q0 16 6 39l467 1259 q19 57 61 57h2q40 0 60 -57l467 -1259q6 -23 6 -39q0 -35 -19.5 -56.5t-51.5 -21.5q-54 0 -74 57z" unicode="Á"/>
<glyph glyph-name="Acircumflex" d="M635 1718l-176 -141q-17 -16 -45 -16q-66 0 -66 63q0 34 33 59l197 156q31 25 57 25t57 -25l197 -156q33 -27 33 -59q0 -63 -66 -63q-28 0 -45 16zM635 1147l-205 -576h410zM1024 57l-135 375h-508l-135 -375q-20 -57 -74 -57q-33 0 -52.5 21.5t-19.5 56.5q0 16 6 39 l467 1259q19 57 61 57h2q40 0 60 -57l467 -1259q6 -23 6 -39q0 -35 -19.5 -56.5t-51.5 -21.5q-54 0 -74 57z" unicode="Â"/>
<glyph glyph-name="Atilde" d="M395 1640q-23 -26 -51 -24q-53 0 -53 53q0 30 22 53q88 93 195 95h6q41 0 78.5 -18t60 -39.5t53 -39.5t60.5 -18h6q52 0 102 53q22 25 52 25q53 0 53 -54q0 -28 -23 -53q-88 -94 -194 -94h-8q-42 0 -79 18t-59 39.5t-52.5 39.5t-60.5 18h-5q-53 -1 -103 -54zM635 1147 l-205 -576h410zM1024 57l-135 375h-508l-135 -375q-20 -57 -74 -57q-33 0 -52.5 21.5t-19.5 56.5q0 16 6 39l467 1259q19 57 61 57h2q40 0 60 -57l467 -1259q6 -23 6 -39q0 -35 -19.5 -56.5t-51.5 -21.5q-54 0 -74 57z" unicode="Ã"/>
<glyph glyph-name="Adieresis" d="M906 1751q30 -30 30 -74t-30 -74q-28 -30 -75 -30q-45 0 -75 30q-29 29 -29 74t29 74q30 31 75 31q47 0 75 -31zM513 1751q30 -30 30 -74t-30 -74t-75 -30t-75 30q-29 29 -29 74t29 74q30 31 75 31t75 -31zM635 1147l-205 -576h410zM1024 57l-135 375h-508l-135 -375 q-20 -57 -74 -57q-33 0 -52.5 21.5t-19.5 56.5q0 16 6 39l467 1259q19 57 61 57h2q40 0 60 -57l467 -1259q6 -23 6 -39q0 -35 -19.5 -56.5t-51.5 -21.5q-54 0 -74 57z" unicode="Ä"/>
<glyph glyph-name="Aring" d="M551 1835q-33 -33 -33 -84t33 -84t84 -33t84 33t33 84t-33 84t-84 33t-84 -33zM487 1602q-61 61 -61 149t61 148q61 61 148 61q86 0 147 -61q62 -60 62 -148q0 -87 -62 -149q-62 -60 -147 -60q-87 0 -148 60zM635 1147l-205 -576h410zM1024 57l-135 375h-508l-135 -375 q-20 -57 -74 -57q-33 0 -52.5 21.5t-19.5 56.5q0 16 6 39l467 1259q19 57 61 57h2q40 0 60 -57l467 -1259q6 -23 6 -39q0 -35 -19.5 -56.5t-51.5 -21.5q-54 0 -74 57z" unicode="Å"/>
<glyph glyph-name="AE" d="M469 1294l-162 -723h221v723h-59zM401 1434h689q92 0 92 -70t-92 -70h-410v-487h330q92 0 92 -70q0 -69 -92 -69h-330v-529h438q92 0 92 -70q0 -69 -92 -69h-489q-46 0 -73.5 26t-27.5 70v336h-252l-79 -356q-16 -76 -80 -76q-78 0 -78 82q0 12 4 35l295 1259 q12 58 63 58z" unicode="Æ"/>
<glyph glyph-name="Ccedilla" d="M561 -387l78 201q22 55 72 55q28 0 44.5 -17t16.5 -47q0 -22 -8 -41l-78 -200q-22 -54 -72 -56q-28 0 -44.5 17t-16.5 47q0 22 8 41zM696 1454q131 0 230 -38q98 -38 209 -150q35 -35 34 -72q0 -30 -21.5 -51t-51.5 -21q-34 0 -66 33q-74 87 -153 123.5t-181 36.5 q-144 0 -241 -93q-97 -91 -136 -221q-38 -131 -38 -285q0 -339 174 -505q98 -92 241 -92q100 0 178 34q80 35 156 126q30 32 63 32h3q31 0 52 -20.5t21 -50.5q0 -38 -34 -72q-112 -114 -209 -151q-96 -37 -230 -37q-276 0 -424 202q-147 203 -147 535q0 331 147 534 q149 203 424 203z" unicode="Ç"/>
<glyph glyph-name="Egrave" d="M735 1622l-252 129q-51 27 -51 72q0 28 17 44.5t47 16.5q15 0 39 -10l251 -129q50 -25 52 -72q0 -28 -17 -44.5t-47 -16.5q-15 0 -39 10zM264 1434h725q92 0 92 -70t-92 -70h-674v-487h498q92 0 92 -70q0 -69 -92 -69h-498v-529h703q92 0 92 -70q0 -69 -92 -69h-754 q-45 0 -72.5 25.5t-27.5 70.5v1241q0 45 27.5 71t72.5 26z" unicode="È"/>
<glyph glyph-name="Eacute" d="M786 1751l-251 -129q-24 -10 -39 -10q-30 0 -47 17t-17 44q0 47 51 72l252 129q24 10 39 10q30 0 47 -17t17 -44q-2 -45 -52 -72zM264 1434h725q92 0 92 -70t-92 -70h-674v-487h498q92 0 92 -70q0 -69 -92 -69h-498v-529h703q92 0 92 -70q0 -69 -92 -69h-754 q-45 0 -72.5 25.5t-27.5 70.5v1241q0 45 27.5 71t72.5 26z" unicode="É"/>
<glyph glyph-name="Ecircumflex" d="M635 1718l-176 -141q-17 -16 -45 -16q-66 0 -66 63q0 34 33 59l197 156q31 25 57 25t57 -25l197 -156q33 -27 33 -59q0 -63 -66 -63q-28 0 -45 16zM264 1434h725q92 0 92 -70t-92 -70h-674v-487h498q92 0 92 -70q0 -69 -92 -69h-498v-529h703q92 0 92 -70q0 -69 -92 -69 h-754q-45 0 -72.5 25.5t-27.5 70.5v1241q0 45 27.5 71t72.5 26z" unicode="Ê"/>
<glyph glyph-name="Edieresis" d="M906 1751q30 -30 30 -74t-30 -74q-28 -30 -75 -30q-45 0 -75 30q-29 29 -29 74t29 74q30 31 75 31q47 0 75 -31zM513 1751q30 -30 30 -74t-30 -74t-75 -30t-75 30q-29 29 -29 74t29 74q30 31 75 31t75 -31zM264 1434h725q92 0 92 -70t-92 -70h-674v-487h498q92 0 92 -70 q0 -69 -92 -69h-498v-529h703q92 0 92 -70q0 -69 -92 -69h-754q-45 0 -72.5 25.5t-27.5 70.5v1241q0 45 27.5 71t72.5 26z" unicode="Ë"/>
<glyph glyph-name="Igrave" d="M735 1622l-252 129q-51 27 -51 72q0 28 17 44.5t47 16.5q15 0 39 -10l251 -129q50 -25 52 -72q0 -28 -17 -44.5t-47 -16.5q-15 0 -39 10zM319 139h240v1155h-240q-92 0 -92 70t92 70h631q92 0 92 -70t-92 -70h-239v-1155h239q92 0 92 -70q0 -69 -92 -69h-631 q-92 0 -92 69q0 70 92 70z" unicode="Ì"/>
<glyph glyph-name="Iacute" d="M786 1751l-251 -129q-24 -10 -39 -10q-30 0 -47 17t-17 44q0 47 51 72l252 129q24 10 39 10q30 0 47 -17t17 -44q-2 -45 -52 -72zM319 139h240v1155h-240q-92 0 -92 70t92 70h631q92 0 92 -70t-92 -70h-239v-1155h239q92 0 92 -70q0 -69 -92 -69h-631q-92 0 -92 69 q0 70 92 70z" unicode="Í"/>
<glyph glyph-name="Icircumflex" d="M635 1718l-176 -141q-17 -16 -45 -16q-66 0 -66 63q0 34 33 59l197 156q31 25 57 25t57 -25l197 -156q33 -27 33 -59q0 -63 -66 -63q-28 0 -45 16zM319 139h240v1155h-240q-92 0 -92 70t92 70h631q92 0 92 -70t-92 -70h-239v-1155h239q92 0 92 -70q0 -69 -92 -69h-631 q-92 0 -92 69q0 70 92 70z" unicode="Î"/>
<glyph glyph-name="Idieresis" d="M906 1751q30 -30 30 -74t-30 -74q-28 -30 -75 -30q-45 0 -75 30q-29 29 -29 74t29 74q30 31 75 31q47 0 75 -31zM513 1751q30 -30 30 -74t-30 -74t-75 -30t-75 30q-29 29 -29 74t29 74q30 31 75 31t75 -31zM319 139h240v1155h-240q-92 0 -92 70t92 70h631q92 0 92 -70 t-92 -70h-239v-1155h239q92 0 92 -70q0 -69 -92 -69h-631q-92 0 -92 69q0 70 92 70z" unicode="Ï"/>
<glyph glyph-name="Eth" d="M344 1294v-508h90q92 0 92 -70q0 -69 -92 -69h-90v-508h291q126 0 214 86q87 86 122 211q35 126 35 280q0 336 -157 492q-88 86 -214 86h-291zM102 786h91v551q0 45 27.5 71t72.5 26h336q253 0 393 -207q139 -206 139 -510t-139 -510q-140 -207 -393 -207h-336 q-45 0 -72.5 25.5t-27.5 70.5v551h-91q-92 0 -92 69q0 70 92 70z" unicode="Ð"/>
<glyph glyph-name="Ntilde" d="M395 1640q-23 -26 -51 -24q-53 0 -53 53q0 30 22 53q88 93 195 95h6q41 0 78.5 -18t60 -39.5t53 -39.5t60.5 -18h6q52 0 102 53q22 25 52 25q53 0 53 -54q0 -28 -23 -53q-88 -94 -194 -94h-8q-42 0 -79 18t-59 39.5t-52.5 39.5t-60.5 18h-5q-53 -1 -103 -54zM162 100 v1233q0 44 22 72.5t62 28.5q51 0 88 -52l622 -1071v1022q0 100 76 100h2q74 0 74 -100v-1233q0 -44 -22 -72t-62 -28q-51 0 -88 51l-623 1071v-1022q0 -100 -76 -100q-75 0 -75 100z" unicode="Ñ"/>
<glyph glyph-name="Ograve" d="M735 1622l-252 129q-51 27 -51 72q0 28 17 44.5t47 16.5q15 0 39 -10l251 -129q50 -25 52 -72q0 -28 -17 -44.5t-47 -16.5q-15 0 -39 10zM937 284q107 166 107 433t-107 433q-107 165 -303 165t-303 -165q-106 -164 -106 -433t106 -433q107 -165 303 -165t303 165z M1053 1248q147 -205 147 -532q0 -326 -147 -531q-145 -205 -419 -205q-273 0 -418 205q-146 206 -146 531q0 326 146 532t418 206q273 0 419 -206z" unicode="Ò"/>
<glyph glyph-name="Oacute" d="M786 1751l-251 -129q-24 -10 -39 -10q-30 0 -47 17t-17 44q0 47 51 72l252 129q24 10 39 10q30 0 47 -17t17 -44q-2 -45 -52 -72zM937 284q107 166 107 433t-107 433q-107 165 -303 165t-303 -165q-106 -164 -106 -433t106 -433q107 -165 303 -165t303 165zM1053 1248 q147 -205 147 -532q0 -326 -147 -531q-145 -205 -419 -205q-273 0 -418 205q-146 206 -146 531q0 326 146 532t418 206q273 0 419 -206z" unicode="Ó"/>
<glyph glyph-name="Ocircumflex" d="M635 1718l-176 -141q-17 -16 -45 -16q-66 0 -66 63q0 34 33 59l197 156q31 25 57 25t57 -25l197 -156q33 -27 33 -59q0 -63 -66 -63q-28 0 -45 16zM937 284q107 166 107 433t-107 433q-107 165 -303 165t-303 -165q-106 -164 -106 -433t106 -433q107 -165 303 -165 t303 165zM1053 1248q147 -205 147 -532q0 -326 -147 -531q-145 -205 -419 -205q-273 0 -418 205q-146 206 -146 531q0 326 146 532t418 206q273 0 419 -206z" unicode="Ô"/>
<glyph glyph-name="Otilde" d="M395 1640q-23 -26 -51 -24q-53 0 -53 53q0 30 22 53q88 93 195 95h6q41 0 78.5 -18t60 -39.5t53 -39.5t60.5 -18h6q52 0 102 53q22 25 52 25q53 0 53 -54q0 -28 -23 -53q-88 -94 -194 -94h-8q-42 0 -79 18t-59 39.5t-52.5 39.5t-60.5 18h-5q-53 -1 -103 -54zM937 284 q107 166 107 433t-107 433q-107 165 -303 165t-303 -165q-106 -164 -106 -433t106 -433q107 -165 303 -165t303 165zM1053 1248q147 -205 147 -532q0 -326 -147 -531q-145 -205 -419 -205q-273 0 -418 205q-146 206 -146 531q0 326 146 532t418 206q273 0 419 -206z" unicode="Õ"/>
<glyph glyph-name="Odieresis" d="M906 1751q30 -30 30 -74t-30 -74q-28 -30 -75 -30q-45 0 -75 30q-29 29 -29 74t29 74q30 31 75 31q47 0 75 -31zM513 1751q30 -30 30 -74t-30 -74t-75 -30t-75 30q-29 29 -29 74t29 74q30 31 75 31t75 -31zM937 284q107 166 107 433t-107 433q-107 165 -303 165 t-303 -165q-106 -164 -106 -433t106 -433q107 -165 303 -165t303 165zM1053 1248q147 -205 147 -532q0 -326 -147 -531q-145 -205 -419 -205q-273 0 -418 205q-146 206 -146 531q0 326 146 532t418 206q273 0 419 -206z" unicode="Ö"/>
<glyph glyph-name="multiply" d="M442 922l215 -215l215 215q36 36 66 36h2q26 0 42.5 -17t16.5 -42q0 -31 -36 -68l-215 -215l215 -215q37 -37 36 -67q0 -25 -16.5 -42.5t-42.5 -17.5q-31 0 -68 37l-215 215l-215 -215q-37 -37 -67 -37q-26 0 -43 17.5t-17 42.5q0 31 37 67l215 215l-215 215 q-37 37 -37 68q0 25 16.5 42t43.5 17h2q29 0 65 -36z" unicode="×"/>
<glyph glyph-name="Oslash" d="M225 717q0 -204 58 -342l628 811q-107 129 -276 129q-197 0 -304 -165q-106 -164 -106 -433zM1044 717q0 203 -57 342l-629 -811q106 -129 277 -129q197 0 303 165q106 164 106 433zM1182 1313l-92 -119q110 -188 110 -469v-8q0 -327 -147 -532q-145 -205 -418 -205 q-223 0 -371 147l-71 -92q-29 -35 -64 -35q-63 0 -63 63q0 30 22 58l92 119q-110 188 -110 469v8q0 325 146 531t419 206q223 0 371 -147l71 92q29 35 64 35q63 0 63 -64q1 -27 -22 -57z" unicode="Ø"/>
<glyph glyph-name="Ugrave" d="M735 1622l-252 129q-51 27 -51 72q0 28 17 44.5t47 16.5q15 0 39 -10l251 -129q50 -25 52 -72q0 -28 -17 -44.5t-47 -16.5q-15 0 -39 10zM139 522v811q0 100 76 100h2q74 0 74 -100v-805q0 -212 89 -310.5t269 -98.5q179 0 267 98.5t88 310.5v805q0 100 75 100h2 q74 0 74 -100v-805q0 -262 -132 -405t-374 -143q-241 0 -376 143q-134 143 -134 399z" unicode="Ù"/>
<glyph glyph-name="Uacute" d="M786 1751l-251 -129q-24 -10 -39 -10q-30 0 -47 17t-17 44q0 47 51 72l252 129q24 10 39 10q30 0 47 -17t17 -44q-2 -45 -52 -72zM139 522v811q0 100 76 100h2q74 0 74 -100v-805q0 -212 89 -310.5t269 -98.5q179 0 267 98.5t88 310.5v805q0 100 75 100h2q74 0 74 -100 v-805q0 -262 -132 -405t-374 -143q-241 0 -376 143q-134 143 -134 399z" unicode="Ú"/>
<glyph glyph-name="Ucircumflex" d="M649 1718l-176 -141q-17 -16 -45 -16q-66 0 -66 63q0 34 33 59l197 156q31 25 58 25q26 0 57 -25l196 -156q33 -27 33 -59q0 -63 -66 -63q-28 0 -45 16zM139 522v811q0 100 76 100h2q74 0 74 -100v-805q0 -212 89 -310.5t269 -98.5q179 0 267 98.5t88 310.5v805 q0 100 75 100h2q74 0 74 -100v-805q0 -262 -132 -405t-374 -143q-241 0 -376 143q-134 143 -134 399z" unicode="Û"/>
<glyph glyph-name="Udieresis" d="M906 1769q30 -30 30 -73q0 -44 -30 -74q-28 -31 -75 -31q-45 0 -75 31q-29 29 -29 74q0 44 29 73q30 31 75 31q47 0 75 -31zM513 1769q30 -30 30 -73q0 -44 -30 -74q-30 -31 -75 -31t-75 31q-29 29 -29 74q0 44 29 73q30 31 75 31t75 -31zM139 522v811q0 100 76 100h2 q74 0 74 -100v-805q0 -212 89 -310.5t269 -98.5q179 0 267 98.5t88 310.5v805q0 100 75 100h2q74 0 74 -100v-805q0 -262 -132 -405t-374 -143q-241 0 -376 143q-134 143 -134 399z" unicode="Ü"/>
<glyph glyph-name="Yacute" d="M786 1751l-251 -129q-24 -10 -39 -10q-30 0 -47 17t-17 44q0 47 51 72l252 129q24 10 39 10q30 0 47 -17t17 -44q-2 -45 -52 -72zM559 100v541l-444 659q-21 27 -21 57q0 32 20.5 54.5t51.5 22.5h2q48 0 76 -45l391 -598l391 598q28 45 76 45h2q31 0 51.5 -22.5 t20.5 -54.5t-21 -57l-444 -659v-541q0 -100 -76 -100t-76 100z" unicode="Ý"/>
<glyph glyph-name="Thorn" d="M352 424h404q127 0 194.5 78t67.5 215t-67.5 215t-194.5 78h-404v-586zM352 285v-185q0 -100 -76 -100q-75 0 -75 100v1233q0 100 75 100h2q74 0 74 -100v-184h367q221 0 338 -111.5t117 -320.5q0 -207 -118 -319.5t-337 -112.5h-367z" unicode="Þ"/>
<glyph glyph-name="germandbls" d="M692 0h-39q-88 0 -88 61q0 62 88 62h29q322 0 322 295q0 130 -82.5 204t-229.5 74h-37q-88 0 -88 61q0 62 88 62h21q111 0 174 70.5t63 193.5q0 121 -57.5 184.5t-161.5 63.5q-110 0 -173.5 -74t-63.5 -206v-961q0 -90 -72 -90t-72 90v811h-141q-88 0 -88 61q0 62 88 62 h141v14q0 205 113 310q112 106 268 106q162 0 262 -93q101 -93 101 -263q0 -200 -152 -316q242 -107 242 -364q0 -201 -119 -309.5t-336 -108.5z" unicode="ß"/>
<glyph glyph-name="agrave" d="M735 1233l-252 129q-51 27 -51 72q0 28 17 44.5t47 16.5q15 0 39 -10l251 -129q50 -25 52 -72q0 -28 -17 -44.5t-47 -16.5q-15 0 -39 10zM383 809q-88 -112 -88 -297t88 -297q89 -113 239 -113q151 0 240 113q88 112 88 297t-88 297q-89 113 -240 113q-150 0 -239 -113z M618 -20q-215 0 -341 139q-125 140 -125 393q0 230 119 381q120 151 347 151q104 0 194 -44q88 -43 138 -113v47q0 90 72 90t72 -90v-844q0 -90 -72 -90t-72 90v43q-40 -63 -134 -108q-92 -45 -198 -45z" unicode="à"/>
<glyph glyph-name="aacute" d="M786 1362l-251 -129q-24 -10 -39 -10q-30 0 -47 16.5t-17 44.5q0 46 51 72l252 129q24 10 39 10q30 0 47 -17t17 -44q-2 -45 -52 -72zM383 809q-88 -112 -88 -297t88 -297q89 -113 239 -113q151 0 240 113q88 112 88 297t-88 297q-89 113 -240 113q-150 0 -239 -113z M618 -20q-215 0 -341 139q-125 140 -125 393q0 230 119 381q120 151 347 151q104 0 194 -44q88 -43 138 -113v47q0 90 72 90t72 -90v-844q0 -90 -72 -90t-72 90v43q-40 -63 -134 -108q-92 -45 -198 -45z" unicode="á"/>
<glyph glyph-name="acircumflex" d="M635 1329l-176 -141q-17 -15 -45 -17q-66 0 -66 64q0 33 33 59l197 156q31 25 57 25t57 -25l197 -156q33 -27 33 -59q0 -63 -66 -64q-26 0 -45 17zM383 809q-88 -112 -88 -297t88 -297q89 -113 239 -113q151 0 240 113q88 112 88 297t-88 297q-89 113 -240 113 q-150 0 -239 -113zM618 -20q-215 0 -341 139q-125 140 -125 393q0 230 119 381q120 151 347 151q104 0 194 -44q88 -43 138 -113v47q0 90 72 90t72 -90v-844q0 -90 -72 -90t-72 90v43q-40 -63 -134 -108q-92 -45 -198 -45z" unicode="â"/>
<glyph glyph-name="atilde" d="M395 1272q-22 -25 -51 -25q-53 0 -53 53q0 29 22 54q88 94 195 94h8q41 0 78 -18t59.5 -39.5t53 -39.5t60.5 -18h5q52 0 102 53q22 25 52 25q53 0 53 -53q0 -28 -23 -53q-88 -94 -194 -95h-6q-43 0 -80 18t-59.5 39.5t-52.5 39.5t-60 18h-6q-53 0 -103 -53zM383 809 q-88 -112 -88 -297t88 -297q89 -113 239 -113q151 0 240 113q88 112 88 297t-88 297q-89 113 -240 113q-150 0 -239 -113zM618 -20q-215 0 -341 139q-125 140 -125 393q0 230 119 381q120 151 347 151q104 0 194 -44q88 -43 138 -113v47q0 90 72 90t72 -90v-844 q0 -90 -72 -90t-72 90v43q-40 -63 -134 -108q-92 -45 -198 -45z" unicode="ã"/>
<glyph glyph-name="adieresis" d="M906 1362q30 -30 30 -74t-30 -74q-28 -30 -75 -30q-45 0 -75 30q-29 29 -29 74t29 74q30 31 75 31q47 0 75 -31zM513 1362q30 -30 30 -74t-30 -74t-75 -30t-75 30q-29 29 -29 74t29 74q30 31 75 31t75 -31zM383 809q-88 -112 -88 -297t88 -297q89 -113 239 -113 q151 0 240 113q88 112 88 297t-88 297q-89 113 -240 113q-150 0 -239 -113zM618 -20q-215 0 -341 139q-125 140 -125 393q0 230 119 381q120 151 347 151q104 0 194 -44q88 -43 138 -113v47q0 90 72 90t72 -90v-844q0 -90 -72 -90t-72 90v43q-40 -63 -134 -108 q-92 -45 -198 -45z" unicode="ä"/>
<glyph glyph-name="aring" d="M540 1466q-32 -32 -32 -84q0 -50 32 -84q34 -32 84 -32q52 0 84 32q33 33 33 84q0 52 -33 84q-32 33 -84 33q-51 0 -84 -33zM477 1234q-61 60 -61 148t61 148q61 61 148 61q86 0 147 -61q62 -60 62 -148t-62 -148t-147 -60q-87 0 -148 60zM383 809q-88 -112 -88 -297 t88 -297q89 -113 239 -113q151 0 240 113q88 112 88 297t-88 297q-89 113 -240 113q-150 0 -239 -113zM618 -20q-215 0 -341 139q-125 140 -125 393q0 230 119 381q120 151 347 151q104 0 194 -44q88 -43 138 -113v47q0 90 72 90t72 -90v-844q0 -90 -72 -90t-72 90v43 q-40 -63 -134 -108q-92 -45 -198 -45z" unicode="å"/>
<glyph glyph-name="ae" d="M528 307v148q-140 0 -219.5 -47t-79.5 -136q0 -77 41.5 -118t104.5 -41h2q151 0 151 194zM672 582h372q-17 323 -190 323h-2q-92 0 -134 -79.5t-46 -243.5zM852 1044q164 0 252 -135q88 -134 88 -352q0 -102 -92 -102h-428v-101q0 -110 49 -175q49 -66 131 -66 q106 0 190 145q29 47 72 47q27 0 45.5 -20.5t18.5 -51.5q0 -39 -25 -73q-57 -87 -126 -134q-65 -46 -175 -46q-83 0 -149.5 37.5t-100.5 97.5q-78 -135 -235 -135q-132 0 -206.5 74t-74.5 218q0 156 123 233q124 77 319 77v73q0 250 -151 250q-97 0 -152 -135 q-20 -47 -63 -47q-27 0 -47.5 21t-20.5 51q0 19 4 28q34 102 112 161q76 60 167 60q151 0 237 -141q93 141 238 141z" unicode="æ"/>
<glyph glyph-name="ccedilla" d="M520 -387l78 201q22 55 72 55q28 0 44.5 -17t16.5 -47q0 -22 -8 -41l-78 -200q-22 -54 -72 -56q-28 0 -44.5 17t-16.5 47q0 22 8 41zM649 1044q131 0 206 -37q77 -36 144 -106q39 -41 39 -80q0 -61 -61 -61q-36 0 -64 37q-101 125 -264 125q-174 0 -264 -114t-90 -296 t90 -296t264 -114q163 0 264 125q28 37 64 37q61 0 61 -61q0 -39 -39 -80q-65 -68 -145 -107q-76 -36 -205 -36q-237 0 -368 149q-129 150 -129 383t129 382q131 150 368 150z" unicode="ç"/>
<glyph glyph-name="egrave" d="M735 1233l-252 129q-51 27 -51 72q0 28 17 44.5t47 16.5q15 0 39 -10l251 -129q50 -25 52 -72q0 -28 -17 -44.5t-47 -16.5q-15 0 -39 10zM303 582h684q-23 151 -108 245q-84 95 -230 95q-142 0 -236 -103q-93 -101 -110 -237zM152 512q0 217 139 374q140 158 358 158 q211 0 346 -143t135 -360q0 -82 -90 -82h-745q6 -141 102 -249q98 -108 244 -108q216 0 340 142q33 35 68 35q29 0 47 -19t18 -49q0 -38 -31 -66q-95 -94 -199 -130q-103 -35 -235 -35q-227 0 -362 154t-135 378z" unicode="è"/>
<glyph glyph-name="eacute" d="M786 1362l-251 -129q-24 -10 -39 -10q-30 0 -47 16.5t-17 44.5q0 46 51 72l252 129q24 10 39 10q30 0 47 -17t17 -44q-2 -45 -52 -72zM303 582h684q-23 151 -108 245q-84 95 -230 95q-142 0 -236 -103q-93 -101 -110 -237zM152 512q0 217 139 374q140 158 358 158 q211 0 346 -143t135 -360q0 -82 -90 -82h-745q6 -141 102 -249q98 -108 244 -108q216 0 340 142q33 35 68 35q29 0 47 -19t18 -49q0 -38 -31 -66q-95 -94 -199 -130q-103 -35 -235 -35q-227 0 -362 154t-135 378z" unicode="é"/>
<glyph glyph-name="ecircumflex" d="M635 1329l-176 -141q-17 -15 -45 -17q-66 0 -66 64q0 33 33 59l197 156q31 25 57 25t57 -25l197 -156q33 -27 33 -59q0 -63 -66 -64q-26 0 -45 17zM303 582h684q-23 151 -108 245q-84 95 -230 95q-142 0 -236 -103q-93 -101 -110 -237zM152 512q0 217 139 374 q140 158 358 158q211 0 346 -143t135 -360q0 -82 -90 -82h-745q6 -141 102 -249q98 -108 244 -108q216 0 340 142q33 35 68 35q29 0 47 -19t18 -49q0 -38 -31 -66q-95 -94 -199 -130q-103 -35 -235 -35q-227 0 -362 154t-135 378z" unicode="ê"/>
<glyph glyph-name="edieresis" d="M906 1362q30 -30 30 -74t-30 -74q-28 -30 -75 -30q-45 0 -75 30q-29 29 -29 74t29 74q30 31 75 31q47 0 75 -31zM513 1362q30 -30 30 -74t-30 -74t-75 -30t-75 30q-29 29 -29 74t29 74q30 31 75 31t75 -31zM303 582h684q-23 151 -108 245q-84 95 -230 95 q-142 0 -236 -103q-93 -101 -110 -237zM152 512q0 217 139 374q140 158 358 158q211 0 346 -143t135 -360q0 -82 -90 -82h-745q6 -141 102 -249q98 -108 244 -108q216 0 340 142q33 35 68 35q29 0 47 -19t18 -49q0 -38 -31 -66q-95 -94 -199 -130q-103 -35 -235 -35 q-227 0 -362 154t-135 378z" unicode="ë"/>
<glyph glyph-name="igrave" d="M735 1233l-252 129q-51 27 -51 72q0 28 17 44.5t47 16.5q15 0 39 -10l251 -129q50 -25 52 -72q0 -28 -17 -44.5t-47 -16.5q-15 0 -39 10zM313 123h322v778h-244q-88 0 -88 61q0 62 88 62h322q33 0 49.5 -15t15.5 -46v-840h309q88 0 88 -64q0 -59 -88 -59h-774 q-88 0 -88 61q0 62 88 62z" unicode="ì"/>
<glyph glyph-name="iacute" d="M786 1362l-251 -129q-24 -10 -39 -10q-30 0 -47 16.5t-17 44.5q0 46 51 72l252 129q24 10 39 10q30 0 47 -17t17 -44q-2 -45 -52 -72zM313 123h322v778h-244q-88 0 -88 61q0 62 88 62h322q33 0 49.5 -15t15.5 -46v-840h309q88 0 88 -64q0 -59 -88 -59h-774q-88 0 -88 61 q0 62 88 62z" unicode="í"/>
<glyph glyph-name="icircumflex" d="M635 1329l-176 -141q-17 -15 -45 -17q-66 0 -66 64q0 33 33 59l197 156q31 25 57 25t57 -25l197 -156q33 -27 33 -59q0 -63 -66 -64q-26 0 -45 17zM313 123h322v778h-244q-88 0 -88 61q0 62 88 62h322q33 0 49.5 -15t15.5 -46v-840h309q88 0 88 -64q0 -59 -88 -59h-774 q-88 0 -88 61q0 62 88 62z" unicode="î"/>
<glyph glyph-name="idieresis" d="M906 1362q30 -30 30 -74t-30 -74q-28 -30 -75 -30q-45 0 -75 30q-29 29 -29 74t29 74q30 31 75 31q47 0 75 -31zM513 1362q30 -30 30 -74t-30 -74t-75 -30t-75 30q-29 29 -29 74t29 74q30 31 75 31t75 -31zM313 123h322v778h-244q-88 0 -88 61q0 62 88 62h322 q33 0 49.5 -15t15.5 -46v-840h309q88 0 88 -64q0 -59 -88 -59h-774q-88 0 -88 61q0 62 88 62z" unicode="ï"/>
<glyph glyph-name="eth" d="M397 809q-90 -113 -90 -297t90 -297t235 -113q146 0 236 113t90 297t-90 297t-236 113q-145 0 -235 -113zM446 1245l193 39q-76 49 -125 70q-63 27 -63 73q0 28 19.5 46t53.5 18q31 0 62 -16q129 -67 227 -154l133 27q23 4 35 4q68 0 68 -64q0 -46 -78 -63l-58 -13 q193 -251 193 -680v-20q0 -230 -125 -382q-125 -150 -348 -150t-348 150q-125 152 -125 382t125 381q124 151 348 151q172 0 276 -92q-50 130 -147 230l-291 -60q-23 -4 -35 -4q-34 0 -51 16t-16 48q-1 23 18.5 39t58.5 24z" unicode="ð"/>
<glyph glyph-name="ntilde" d="M395 1272q-22 -25 -51 -25q-53 0 -53 53q0 29 22 54q88 94 195 94h8q41 0 78 -18t59.5 -39.5t53 -39.5t60.5 -18h5q52 0 102 53q22 25 52 25q53 0 53 -53q0 -28 -23 -53q-88 -94 -194 -95h-6q-43 0 -80 18t-59.5 39.5t-52.5 39.5t-60 18h-6q-53 0 -103 -53zM233 90v844 q0 90 72 90t72 -90v-70q40 71 133 126q92 54 195 54q182 0 270 -99t88 -310v-545q0 -90 -72 -90q-71 0 -71 90v522q0 164 -52 237q-51 73 -176 73q-147 0 -231 -126t-84 -335v-371q0 -90 -72 -90t-72 90z" unicode="ñ"/>
<glyph glyph-name="ograve" d="M735 1233l-252 129q-51 27 -51 72q0 28 17 44.5t47 16.5q15 0 39 -10l251 -129q50 -25 52 -72q0 -28 -17 -44.5t-47 -16.5q-15 0 -39 10zM394 809q-91 -112 -91 -297t91 -297q92 -113 238 -113q147 0 239 113t92 297t-92 297t-239 113q-146 0 -238 -113zM981 130 q-125 -150 -348 -150t-348 150q-125 152 -125 382t125 381q124 151 348 151t348 -151q125 -151 125 -381t-125 -382z" unicode="ò"/>
<glyph glyph-name="oacute" d="M786 1362l-251 -129q-24 -10 -39 -10q-30 0 -47 16.5t-17 44.5q0 46 51 72l252 129q24 10 39 10q30 0 47 -17t17 -44q-2 -45 -52 -72zM394 809q-91 -112 -91 -297t91 -297q92 -113 238 -113q147 0 239 113t92 297t-92 297t-239 113q-146 0 -238 -113zM981 130 q-125 -150 -348 -150t-348 150q-125 152 -125 382t125 381q124 151 348 151t348 -151q125 -151 125 -381t-125 -382z" unicode="ó"/>
<glyph glyph-name="ocircumflex" d="M635 1329l-176 -141q-17 -15 -45 -17q-66 0 -66 64q0 33 33 59l197 156q31 25 57 25t57 -25l197 -156q33 -27 33 -59q0 -63 -66 -64q-26 0 -45 17zM394 809q-91 -112 -91 -297t91 -297q92 -113 238 -113q147 0 239 113t92 297t-92 297t-239 113q-146 0 -238 -113z M981 130q-125 -150 -348 -150t-348 150q-125 152 -125 382t125 381q124 151 348 151t348 -151q125 -151 125 -381t-125 -382z" unicode="ô"/>
<glyph glyph-name="otilde" d="M395 1272q-22 -25 -51 -25q-53 0 -53 53q0 29 22 54q88 94 195 94h8q41 0 78 -18t59.5 -39.5t53 -39.5t60.5 -18h5q52 0 102 53q22 25 52 25q53 0 53 -53q0 -28 -23 -53q-88 -94 -194 -95h-6q-43 0 -80 18t-59.5 39.5t-52.5 39.5t-60 18h-6q-53 0 -103 -53zM394 809 q-91 -112 -91 -297t91 -297q92 -113 238 -113q147 0 239 113t92 297t-92 297t-239 113q-146 0 -238 -113zM981 130q-125 -150 -348 -150t-348 150q-125 152 -125 382t125 381q124 151 348 151t348 -151q125 -151 125 -381t-125 -382z" unicode="õ"/>
<glyph glyph-name="odieresis" d="M906 1362q30 -30 30 -74t-30 -74q-28 -30 -75 -30q-45 0 -75 30q-29 29 -29 74t29 74q30 31 75 31q47 0 75 -31zM513 1362q30 -30 30 -74t-30 -74t-75 -30t-75 30q-29 29 -29 74t29 74q30 31 75 31t75 -31zM394 809q-91 -112 -91 -297t91 -297q92 -113 238 -113 q147 0 239 113t92 297t-92 297t-239 113q-146 0 -238 -113zM981 130q-125 -150 -348 -150t-348 150q-125 152 -125 382t125 381q124 151 348 151t348 -151q125 -151 125 -381t-125 -382z" unicode="ö"/>
<glyph glyph-name="divide" d="M266 680h738q88 0 88 -64q0 -63 -88 -63h-738q-88 0 -88 63q0 64 88 64zM529 886q-42 42 -42 105q0 64 42 106t105 42q64 0 106 -42t42 -106q0 -63 -42 -105t-106 -42q-63 0 -105 42zM529 136q-42 42 -42 105q0 64 42 106t105 42q64 0 106 -42t42 -106q0 -63 -42 -105 t-106 -42q-63 0 -105 42z" unicode="÷"/>
<glyph glyph-name="oslash" d="M307 512q0 -141 53 -242l457 592q-78 59 -184 60q-144 0 -236 -113q-90 -113 -90 -297zM958 512q0 141 -53 242l-456 -592q78 -59 184 -60q145 0 235 113t90 297zM633 -20q-159 0 -266 75l-17 -20q-27 -35 -63 -35q-63 0 -64 63q0 26 23 58l22 29q-108 141 -108 356v6 q0 230 125 381q124 151 348 151q157 0 266 -75l16 20q27 35 64 35q63 0 63 -63q0 -27 -22 -58l-23 -29q109 -142 109 -362q0 -230 -125 -382q-125 -150 -348 -150z" unicode="ø"/>
<glyph glyph-name="ugrave" d="M735 1233l-252 129q-51 27 -51 72q0 28 17 44.5t47 16.5q15 0 39 -10l251 -129q50 -25 52 -72q0 -28 -17 -44.5t-47 -16.5q-15 0 -39 10zM1067 934v-844q0 -90 -72 -90q-71 0 -71 90v70q-40 -72 -134 -126q-92 -54 -194 -54q-182 0 -270 99t-88 310v545q0 90 71 90 q72 0 72 -90v-522q0 -164 51 -237t176 -73q147 0 231 126q85 125 85 335v371q0 90 71 90q72 0 72 -90z" unicode="ù"/>
<glyph glyph-name="uacute" d="M786 1362l-251 -129q-24 -10 -39 -10q-30 0 -47 16.5t-17 44.5q0 46 51 72l252 129q24 10 39 10q30 0 47 -17t17 -44q-2 -45 -52 -72zM1067 934v-844q0 -90 -72 -90q-71 0 -71 90v70q-40 -72 -134 -126q-92 -54 -194 -54q-182 0 -270 99t-88 310v545q0 90 71 90 q72 0 72 -90v-522q0 -164 51 -237t176 -73q147 0 231 126q85 125 85 335v371q0 90 71 90q72 0 72 -90z" unicode="ú"/>
<glyph glyph-name="ucircumflex" d="M643 1329l-176 -141q-17 -15 -45 -17q-66 0 -66 64q0 33 33 59l197 156q31 25 57 25t57 -25l197 -156q33 -27 33 -59q0 -63 -66 -64q-26 0 -45 17zM1067 934v-844q0 -90 -72 -90q-71 0 -71 90v70q-40 -72 -134 -126q-92 -54 -194 -54q-182 0 -270 99t-88 310v545 q0 90 71 90q72 0 72 -90v-522q0 -164 51 -237t176 -73q147 0 231 126q85 125 85 335v371q0 90 71 90q72 0 72 -90z" unicode="û"/>
<glyph glyph-name="udieresis" d="M906 1362q30 -30 30 -74t-30 -74q-28 -30 -75 -30q-45 0 -75 30q-29 29 -29 74t29 74q30 31 75 31q47 0 75 -31zM513 1362q30 -30 30 -74t-30 -74t-75 -30t-75 30q-29 29 -29 74t29 74q30 31 75 31t75 -31zM1067 934v-844q0 -90 -72 -90q-71 0 -71 90v70 q-40 -72 -134 -126q-92 -54 -194 -54q-182 0 -270 99t-88 310v545q0 90 71 90q72 0 72 -90v-522q0 -164 51 -237t176 -73q147 0 231 126q85 125 85 335v371q0 90 71 90q72 0 72 -90z" unicode="ü"/>
<glyph glyph-name="yacute" d="M786 1362l-251 -129q-24 -10 -39 -10q-30 0 -47 16.5t-17 44.5q0 46 51 72l252 129q24 10 39 10q30 0 47 -17t17 -44q-2 -45 -52 -72zM567 35l-395 874q-6 18 -6 35q0 35 21.5 57.5t52.5 22.5q46 0 71 -57l332 -760l324 758q27 59 80 59q29 0 49 -20t20 -50 q0 -20 -12 -49l-379 -848q-47 -107 -75 -162q-28 -60 -73 -129q-44 -71 -86 -109t-102.5 -62.5t-126.5 -24.5q-158 0 -158 80q0 30 18 46.5t48 16.5q5 0 40 -10t56 -10q96 0 158 80q63 80 143 262z" unicode="ý"/>
<glyph glyph-name="thorn" d="M868 215q82 112 82 297t-82 297q-83 113 -232 113t-232 -113q-82 -112 -82 -297t82 -297q83 -113 232 -113t232 113zM641 -20q-101 0 -191 44q-86 42 -128 109v-452q0 -90 -72 -90h-2q-70 0 -70 90v1662q0 90 72 90h2q70 0 70 -90v-456q116 157 315 157h4q225 0 339 -150 q114 -149 114 -382q0 -256 -120 -394t-333 -138z" unicode="þ"/>
<glyph glyph-name="OE" d="M614 139v1155q-195 0 -292 -154q-97 -152 -97 -424q0 -270 97 -424q98 -153 292 -153zM631 1434h473q92 0 92 -70t-92 -70h-338v-487h231q92 0 92 -70q1 -34 -22 -51.5t-70 -17.5h-231v-529h360q92 0 92 -70q1 -34 -22 -51.5t-70 -17.5h-495q-274 0 -418 196 q-143 197 -143 520q0 324 143 521q144 197 418 197z" unicode="Œ"/>
<glyph glyph-name="oe" d="M727 582h266q-19 130 -87 222q-66 91 -179 114v-336zM299 512q0 -160 78 -270q77 -109 203 -136v812q-122 -28 -202 -140q-79 -109 -79 -266zM655 -20q-227 0 -365 152q-138 153 -138 380q0 228 138 379q138 153 365 153q211 0 346 -143q136 -142 136 -360q0 -82 -90 -82 h-320v-353q157 20 260 138q33 35 68 35q29 0 47 -19t18 -49q0 -37 -30 -66q-96 -93 -200 -130q-103 -35 -235 -35z" unicode="œ"/>
<glyph glyph-name="Scaron" d="M430 1847l176 -141l176 141q17 15 45 17q66 0 66 -64q0 -34 -33 -59l-196 -156q-30 -24 -57 -24t-58 24l-197 156q-33 27 -33 59q0 62 66 64q28 -2 45 -17zM104 266q-18 33 -18 60q0 33 20.5 53t51.5 20q47 0 80 -49q77 -118 160 -176q80 -55 225 -55q160 0 245.5 71 t85.5 207q0 95 -69 162q-26 26 -84 52q-53 24 -97 39t-118 36q-208 62 -327 147q-118 87 -118 240q0 188 134 284q134 97 327 97q289 0 432 -227q22 -37 22 -70t-19.5 -53.5t-51.5 -20.5q-49 0 -78 54q-50 95 -123 136.5t-182 41.5q-147 0 -226 -60.5t-79 -179.5 q0 -73 72 -139q29 -26 86 -51q41 -18 97 -38q11 -4 27 -9.5t42.5 -14t44.5 -14.5q92 -29 135 -46q43 -16 116 -53q68 -35 104 -72q89 -95 89 -228q0 -212 -138 -321q-137 -109 -349 -109h-4q-349 0 -515 286z" unicode="Š"/>
<glyph glyph-name="scaron" d="M469 1458l176 -141l176 141q17 15 45 17q66 0 66 -64q0 -33 -33 -59l-197 -156q-31 -25 -57 -25t-57 25l-197 156q-33 27 -33 59q0 63 66 64q28 -2 45 -17zM250 168q-27 35 -27 68q0 29 21 47t51 18q45 0 72 -39q30 -44 64 -79q31 -30 92 -55q64 -26 149 -26 q274 0 274 193q0 43 -23.5 71t-78.5 46q-61 21 -95 28q-42 10 -128 23q-78 12 -131 28q-50 15 -110 46q-114 61 -114 200q0 145 114 226t269 81q125 0 209.5 -36.5t149.5 -122.5q22 -27 22 -59q0 -29 -18.5 -48.5t-46.5 -19.5q-44 0 -76 47q-78 117 -240 117 q-112 0 -176 -53q-63 -53 -63 -132q0 -1 -0.5 -5t-0.5 -5q0 -60 85 -103q21 -10 62 -19l64 -14q72 -13 74 -13q157 -23 268 -78q128 -60 128 -189q0 -156 -112 -244q-112 -87 -306 -87q-282 0 -422 188z" unicode="š"/>
<glyph glyph-name="Ydieresis" d="M906 1771q30 -30 30 -73q0 -44 -30 -74q-28 -31 -75 -31q-45 0 -75 31q-29 29 -29 74q0 44 29 73q30 31 75 31q47 0 75 -31zM513 1771q30 -30 30 -73q0 -44 -30 -74q-30 -31 -75 -31t-75 31q-29 29 -29 74q0 44 29 73q30 31 75 31t75 -31zM559 100v541l-444 659 q-21 27 -21 57q0 32 20.5 54.5t51.5 22.5h2q48 0 76 -45l391 -598l391 598q28 45 76 45h2q31 0 51.5 -22.5t20.5 -54.5t-21 -57l-444 -659v-541q0 -100 -76 -100t-76 100z" unicode="Ÿ"/>
<glyph glyph-name="circumflex" d="M614 1739l-176 -142q-17 -16 -45 -16q-65 0 -65 61q0 36 32 62l197 156q30 24 57 24q26 0 58 -24l196 -156q33 -27 33 -59q0 -62 -65 -64q-28 0 -45 16z" unicode="ˆ"/>
<glyph glyph-name="tilde" d="M393 1681q-23 -25 -51 -24q-53 0 -53 53q0 30 22 53q88 93 195 95h6q41 0 78.5 -18t60 -39.5t53 -39.5t60.5 -18h6q52 0 102 53q22 25 52 25q53 0 53 -54q0 -28 -23 -53q-88 -94 -194 -94h-8q-42 0 -79 18t-59 39.5t-52.5 39.5t-60.5 18h-5q-53 -1 -103 -54z" unicode="˜"/>
<glyph glyph-name="pi" d="M799 61v840h-330v-811q0 -90 -72 -90q-71 0 -71 90v811h-172q-88 0 -88 61q0 62 88 62h960q88 0 88 -62q0 -61 -88 -61h-172v-778h119q88 0 88 -62q0 -61 -88 -61h-197q-65 0 -65 61z" unicode="π"/>
<glyph glyph-name="uni2002" horiz-adv-x="1009" unicode=" "/>
<glyph glyph-name="uni2003" horiz-adv-x="2021" unicode=" "/>
<glyph glyph-name="uni2009" horiz-adv-x="403" unicode=" "/>
<glyph glyph-name="endash" d="M289 680h737q88 0 88 -64q0 -63 -88 -63h-737q-88 0 -88 63q0 64 88 64z" unicode="–"/>
<glyph glyph-name="emdash" d="M186 680h897q88 0 88 -64q0 -63 -88 -63h-897q-88 0 -88 63q0 64 88 64z" unicode="—"/>
<glyph glyph-name="quoteleft" d="M672 1049q76 -43 76 -129q0 -62 -42 -105t-108 -43q-64 0 -104 43q-41 44 -41 105v14q0 140 64 249q64 111 155 156q28 13 59 15q51 0 51 -47q0 -34 -43 -50q-118 -47 -118 -133q0 -31 9.5 -45t41.5 -30z" unicode="‘"/>
<glyph glyph-name="quotesinglbase" d="M543 18q-76 43 -76 129q0 61 42 104q42 44 107 44q64 0 104 -43q42 -44 42 -105v-14q0 -139 -65 -249q-65 -111 -154 -156q-29 -14 -60 -15q-51 0 -51 47q0 34 43 50q119 47 119 135q0 29 -10 43t-41 30z" unicode="‚"/>
<glyph glyph-name="quotedblleft" d="M508 1049q76 -43 76 -129q0 -62 -42 -105t-108 -43q-64 0 -104 43q-41 44 -41 105v14q0 140 64 249q64 111 155 156q28 13 59 15q51 0 51 -47q0 -34 -43 -50q-118 -47 -118 -133q0 -31 9.5 -45t41.5 -30zM883 1049q75 -42 75 -126q0 -65 -42 -108t-107 -43q-64 0 -104 43 q-41 44 -41 105v14q0 140 64 249q64 111 155 156q28 13 59 15q51 0 51 -47q0 -34 -43 -50q-119 -47 -119 -135q0 -29 10.5 -43t41.5 -30z" unicode="“"/>
<glyph glyph-name="quotedblright" d="M774 1077q-76 43 -76 129q0 60 42 104t108 44q64 0 104 -43q41 -44 41 -105v-14q0 -138 -65 -250q-65 -111 -154 -156q-30 -14 -59 -14q-51 0 -51 47q0 33 43 49q118 47 118 134q0 31 -9.5 45t-41.5 30zM399 1077q-75 42 -75 126q0 64 42 107q42 44 107 44q64 0 104 -43 q41 -44 41 -105v-14q0 -138 -65 -250q-65 -111 -154 -156q-30 -14 -59 -14q-51 0 -51 47q0 33 43 49q119 47 119 136q0 29 -10.5 43t-41.5 30z" unicode="”"/>
<glyph glyph-name="dagger" d="M707 1024h251q88 0 88 -64q1 -31 -21.5 -47t-66.5 -16h-251v-1122q0 -35 -20.5 -58.5t-51.5 -23.5t-51.5 23.5t-20.5 58.5v1122h-252q-88 0 -88 63q0 64 88 64h252v328q0 35 20.5 58.5t51.5 23.5q30 0 51 -24t21 -58v-328z" unicode="†"/>
<glyph glyph-name="daggerdbl" d="M563 102h-252q-88 0 -88 63q0 64 88 64h252v668h-252q-88 0 -88 63q0 64 88 64h252v328q0 35 20.5 58.5t51.5 23.5q30 0 51 -24t21 -58v-328h251q88 0 88 -64q1 -31 -21.5 -47t-66.5 -16h-251v-668h251q88 0 88 -64q1 -31 -21.5 -47t-66.5 -16h-251v-327 q0 -35 -20.5 -58.5t-51.5 -23.5t-51.5 23.5t-20.5 58.5v327z" unicode="‡"/>
<glyph glyph-name="ellipsis" d="M972 42q-42 42 -42 105q0 64 42 106t105 42q64 0 106 -42t42 -106q0 -63 -42 -105t-106 -42q-63 0 -105 42zM529 42q-42 42 -42 105q0 64 42 106t105 42q64 0 106 -42t42 -106q0 -63 -42 -105t-106 -42q-63 0 -105 42zM87 42q-42 42 -42 105q0 64 42 106t105 42 q64 0 106 -42t42 -106q0 -63 -42 -105t-106 -42q-63 0 -105 42z" unicode="…"/>
<glyph glyph-name="perthousand" d="M948 82q80 0 124 46.5t44 127.5t-44 127.5t-124 46.5q-76 0 -120 -47t-44 -127t44 -127t120 -47zM514 430q-80 0 -124 -46.5t-44 -127.5t44 -127.5t124 -46.5q76 0 120 47t44 127t-44 127t-120 47zM198 1303q-44 -49 -44 -128q0 -78 44 -125q43 -46 123 -46t126 46 q47 47 47 125q0 79 -47 128q-46 49 -126 49t-123 -49zM98 618l930 482q20 12 45 12q51 0 51 -55q0 -34 -47 -60l-930 -481q-19 -12 -45 -12q-51 0 -51 55q0 33 47 59zM47 1176q0 118 78 197q78 81 197 81q121 0 199 -81q79 -80 79 -197q0 -116 -79 -195q-80 -80 -199 -80 t-197 80q-78 79 -78 195zM510 532q143 0 221 -108q77 108 217 108h4q118 0 195 -80q76 -79 76 -196q0 -118 -76 -197t-195 -79q-143 0 -221 108q-77 -108 -217 -108h-4q-119 0 -195 79q-75 79 -75 197q0 116 75 196q77 80 195 80z" unicode="‰"/>
<glyph glyph-name="guilsinglleft" d="M721 98l-377 381q-29 27 -29 56q0 26 29 55l377 381q24 24 54 24h3q25 0 41.5 -16t16.5 -43q0 -28 -23 -51l-334 -350l334 -351q23 -23 23 -51q0 -27 -16.5 -43t-41.5 -16h-3q-30 0 -54 24z" unicode="‹"/>
<glyph glyph-name="guilsinglright" d="M926 479l-377 -381q-24 -24 -54 -24h-3q-25 0 -41.5 16t-16.5 43q0 28 23 51l334 351l-334 350q-23 23 -23 51q0 27 16.5 43t41.5 16q33 0 57 -24l377 -381q30 -30 28 -55q1 -28 -28 -56z" unicode="›"/>
<glyph glyph-name="fraction" d="M166 455l860 600q25 16 41 16q22 0 37.5 -18t15.5 -39q0 -34 -33 -56l-860 -602q-23 -14 -41 -14q-22 0 -37.5 18t-15.5 41q0 31 33 54z" unicode="⁄"/>
<glyph glyph-name="Euro" d="M170 942h84v14q0 230 128 364t341 134q256 0 385 -213q14 -23 14 -45q0 -24 -18.5 -41.5t-42.5 -17.5q-41 0 -68 41q-51 79 -110 114t-160 35q-164 0 -243 -97t-79 -259v-29h375q88 0 88 -64q0 -63 -88 -63h-375v-197h375q88 0 88 -63t-88 -63h-375v-29q0 -163 79 -260 t243 -97q101 0 160 35q58 34 110 115q27 41 68 41q25 0 43 -17.5t18 -41.5q0 -22 -14 -45q-129 -213 -385 -213q-214 0 -341 133q-128 134 -128 364v15h-84q-88 0 -88 63t88 63h84v197h-84q-88 0 -88 63q0 64 88 64z" unicode="€"/>
<glyph glyph-name="trademark" d="M1198 1384v-636q0 -50 -47 -52q-47 0 -47 52v456l-123 -237q-13 -27 -45 -27t-45 27l-123 237v-456q0 -50 -47 -52q-47 0 -47 52v636q0 48 45 50q28 0 41 -25l176 -340l176 340q13 25 41 25q19 0 32 -13.5t13 -36.5zM100 1434h418q47 0 47 -41t-47 -41h-162v-604 q0 -50 -47 -52q-47 0 -47 52v604h-162q-47 0 -47 41t47 41z" unicode="™"/>
<glyph glyph-name="partialdiff" d="M678 922q-179 0 -292 -146q-112 -145 -112 -334q0 -160 72 -250t199 -90q181 0 290 142q111 143 111 329q0 349 -268 349zM395 1245q96 209 332 209q416 0 416 -614q0 -326 -128 -576q-64 -128 -187 -207q-122 -77 -283 -77q-207 0 -313 133q-105 133 -105 327 q0 248 153 426q154 178 412 178q115 0 196 -49.5t111 -140.5q0 217 -64 346q-63 131 -190 131q-72 0 -129 -35.5t-84 -97.5q-25 -61 -73 -61q-30 0 -51 21.5t-21 51.5q0 17 8 35z" unicode="∂"/>
<glyph glyph-name="product" d="M819 100v1194h-368v-1194q0 -100 -76 -100t-76 100v1194h-119q-92 0 -92 70t92 70h910q92 0 92 -70t-92 -70h-119v-1194q0 -100 -76 -100t-76 100z" unicode="∏"/>
<glyph glyph-name="summation" d="M541 561l-398 737q-18 28 -18 56q0 35 27.5 57.5t72.5 22.5h705q53 0 76.5 -15.5t23.5 -56.5t-22 -54.5t-78 -13.5h-625l359 -665q20 -34 20 -68q0 -36 -20 -67l-359 -666h707q56 0 78 -13.5t22 -54.5t-23 -56t-77 -15h-787q-45 0 -72.5 22.5t-27.5 57.5q0 26 18 55z" unicode="∑"/>
<glyph glyph-name="minus" d="M289 680h737q88 0 88 -64q0 -63 -88 -63h-737q-88 0 -88 63q0 64 88 64z" unicode="−"/>
<glyph glyph-name="radical" d="M166 512q-82 0 -82 61q0 62 82 62h174q57 0 70 -49l133 -498l456 1327q18 51 64 51q57 0 57 -61q0 -11 -6 -31l-520 -1497q-16 -49 -59 -49t-56 49l-174 635h-139z" unicode="√"/>
<glyph glyph-name="infinity" d="M862 410q91 0 141 55.5t50 146.5q0 89 -49 145q-48 58 -142 58q-93 0 -139 -58q-47 -58 -47 -145t47 -145q47 -57 139 -57zM408 410q92 0 139 57q47 58 47 145t-47 145q-46 58 -139 58q-94 0 -143 -58q-48 -57 -48 -145t48 -145t143 -57zM408 899q143 0 227 -117 q84 117 227 117q123 0 201 -83q78 -82 78 -204q0 -120 -78 -203t-201 -83q-143 0 -227 116q-83 -116 -223 -116h-4q-123 0 -201 83t-78 203q0 122 78 204q78 83 201 83z" unicode="∞"/>
<glyph glyph-name="approxequal" d="M305 748q-26 -25 -55 -25q-24 0 -38.5 15.5t-14.5 41.5q0 32 28 60q84 84 213 84q92 0 209 -58q119 -57 187 -57q75 0 133 53q28 25 55 25q24 0 38.5 -15.5t14.5 -42.5q0 -31 -28 -59q-84 -84 -213 -84q-92 0 -211 57q-117 58 -185 58q-75 0 -133 -53zM305 369 q-26 -25 -55 -25q-24 0 -38.5 15.5t-14.5 41.5q0 32 28 60q84 84 213 84q92 0 209 -58q119 -57 187 -57q75 0 133 53q28 25 55 25q24 0 38.5 -15.5t14.5 -41.5q0 -32 -28 -60q-84 -84 -213 -84q-92 0 -211 57q-117 58 -185 58q-75 0 -133 -53z" unicode="≈"/>
<glyph glyph-name="notequal" d="M289 537h221l147 262h-368q-88 0 -88 63q0 64 88 64h440l164 288q31 54 72 56q59 0 59 -60q0 -22 -20 -59l-127 -225h149q88 0 88 -64q0 -63 -88 -63h-221l-152 -262h373q88 0 88 -64q0 -63 -88 -63h-442l-162 -289q-31 -55 -72 -55q-59 0 -59 59q0 22 20 59l129 226 h-151q-88 0 -88 63q0 64 88 64z" unicode="≠"/>
<glyph glyph-name="lessequal" d="M274 973l644 436q34 19 55 21q24 0 39.5 -15t15.5 -37q0 -34 -39 -63l-581 -397l581 -398q39 -28 39 -63q0 -21 -15.5 -36t-39.5 -15q-20 0 -55 20l-644 436q-31 25 -31 56q0 30 31 55zM266 127h738q88 0 88 -64q0 -63 -88 -63h-738q-88 0 -88 63q0 64 88 64z" unicode="≤"/>
<glyph glyph-name="greaterequal" d="M354 1409l643 -436q31 -25 31 -55q0 -31 -31 -56l-643 -436q-35 -20 -55 -20q-24 0 -39.5 15t-15.5 36q0 35 39 63l581 398l-581 397q-39 29 -39 63q0 21 15.5 36.5t39.5 15.5q21 -2 55 -21zM266 127h738q88 0 88 -64q0 -63 -88 -63h-738q-88 0 -88 63q0 64 88 64z" unicode="≥"/>
<glyph glyph-name="lozenge" d="M246 717l377 -557l376 557l-376 557zM123 766l448 635q24 33 51 33q28 0 52 -33l448 -635q17 -27 19 -49q0 -26 -19 -49l-448 -635q-24 -33 -52 -33q-27 0 -51 33l-448 635q-17 25 -19 49q2 22 19 49z" unicode="◊"/>
</font>
</defs>
</svg>
