<?xml version="1.0" encoding="UTF-8" standalone="no"?>
<!DOCTYPE svg  PUBLIC '-//W3C//DTD SVG 1.1//EN'  'http://www.w3.org/Graphics/SVG/1.1/DTD/svg11.dtd'>
<svg xmlns="http://www.w3.org/2000/svg">
<defs>
<font id="Monosten-C" horiz-adv-x="1269">
<font-face underline-position="-102" font-weight="400" descent="-410" panose-1="2 0 0 9 0 0 0 0 0 0" units-per-em="2048" unicode-range="U+0020-25CA" bbox="-9 -518 1251 1993" x-height="1024" underline-thickness="102" font-family="Monosten" ascent="1638" cap-height="1434"/>
<missing-glyph horiz-adv-x="2048"/>
<glyph glyph-name=".notdef" horiz-adv-x="2048"/>
<glyph glyph-name=".null" horiz-adv-x="0"/>
<glyph glyph-name="nonmarkingreturn" horiz-adv-x="682"/>
<glyph glyph-name="space" unicode=" "/>
<glyph glyph-name="exclam" d="M502 53q-53 53 -53 133t53 133q52 54 133 54t133 -54q53 -53 53 -133t-53 -133t-133 -53t-133 53zM477 1303q0 71 40.5 111t117.5 40t117.5 -40.5t40.5 -110.5l-54 -713q-4 -46 -31 -74.5t-73 -28.5t-73 28t-32 75z" unicode="!"/>
<glyph glyph-name="quotedbl" d="M707 1264q0 190 141 190t141 -190q0 -117 -45 -288t-96 -171t-96 171t-45 288zM297 1264q0 190 141 190q142 0 142 -190q0 -119 -46 -288q-45 -171 -96 -171t-96 171t-45 288z" unicode='&quot;'/>
<glyph glyph-name="numbersign" d="M516 831l-39 -229h234l39 229h-234zM184 113l45 276h-110q-113 0 -113 106q0 107 113 107h145l39 229h-184q-113 0 -113 106q0 107 113 107h219l47 277q17 113 125 113q36 0 63 -27.5t27 -65.5l-2 -20l-47 -277h233l47 277q17 113 125 113q34 0 63 -27q28 -27 28 -66 l-3 -20l-47 -277h113q113 0 113 -107q0 -106 -113 -106h-147l-39 -229h186q113 0 113 -107q0 -106 -113 -106h-221l-45 -276q-17 -113 -125 -113q-36 0 -63 27t-27 65l2 21l45 276h-234l-45 -276q-17 -113 -125 -113q-36 0 -63 27t-27 65z" unicode="#"/>
<glyph glyph-name="dollar" d="M375 1047q0 -59 43.5 -98t134.5 -68v346q-178 -30 -178 -180zM946 397q0 75 -48.5 120.5t-147.5 76.5v-387q92 16 144 67t52 123zM111 225q-31 40 -31 88q0 54 34 88.5t91 34.5q66 0 102 -51q100 -149 246 -178v436q-67 17 -125 35q-55 19 -112 51q-59 34 -96 73 q-87 90 -87 240q0 176 119 280q118 105 301 126v53q0 117 98 117q99 0 99 -117v-53q246 -32 358 -215q25 -43 25 -80q0 -58 -33.5 -90.5t-87.5 -32.5q-63 0 -103 64q-63 98 -159 125v-392q99 -28 160 -52q64 -25 135 -72q143 -92 143 -289q0 -186 -124 -297 q-125 -112 -314 -131v-33q0 -117 -99 -117q-98 0 -98 117v33q-284 20 -442 239z" unicode="$"/>
<glyph glyph-name="percent" d="M259 1245q-38 -41 -38 -109q0 -67 38 -108t103 -41q66 0 104 41t38 108q0 68 -38 109t-104 41q-65 0 -103 -41zM127 907q-90 89 -90 229q0 142 90 230q89 88 235 88q147 0 236 -88q90 -88 90 -230q0 -140 -90 -229q-89 -88 -236 -88q-146 0 -235 88zM812 405 q-38 -41 -38 -108q0 -68 38 -109t103 -41q66 0 104 41t38 109q0 67 -38 108t-104 41q-65 0 -103 -41zM680 68q-90 88 -90 229t90 229q89 88 235 88q147 0 236 -88q90 -88 90 -229t-90 -229q-89 -88 -236 -88q-146 0 -235 88zM143 473l889 621q28 18 53 18q84 0 84 -84 q0 -42 -36 -67l-889 -621q-27 -18 -54 -18q-84 0 -84 84q0 40 37 67z" unicode="%"/>
<glyph glyph-name="ampersand" d="M369 1098q0 -70 104 -189q96 53 134 95q38 44 38 96q0 61 -36 97t-101 36q-61 0 -100 -36.5t-39 -98.5zM487 201q143 0 244 84l-313 342q-133 -100 -133 -234q0 -90 57 -141t145 -51zM948 49l-67 74q-161 -143 -381 -143q-196 0 -327 114q-130 115 -130 301 q0 229 225 396q-129 162 -129 307q0 158 106 257t263 99q174 0 270 -96t96 -242q0 -107 -58 -192q-60 -87 -195 -172l245 -273q44 105 58 236q4 47 32.5 73.5t69.5 26.5q44 0 74 -29.5t30 -78.5q0 -211 -106 -404l102 -113q35 -38 35 -86q0 -45 -30.5 -74.5t-77.5 -29.5 q-59 0 -105 49z" unicode="&amp;"/>
<glyph glyph-name="quotesingle" d="M494 1264q0 190 141 190t141 -190q0 -117 -45 -288t-96 -171t-96 171t-45 288z" unicode="&apos;"/>
<glyph glyph-name="parenleft" d="M680 1550q33 35 82 35q44 0 75 -28t31 -74q0 -43 -30 -80q-254 -302 -254 -789q0 -486 254 -788q31 -37 30 -80q0 -46 -31 -74t-75 -28q-49 0 -82 34q-159 175 -238 431q-80 261 -80 505t80 505q79 256 238 431z" unicode="("/>
<glyph glyph-name="parenright" d="M590 1550q158 -173 237 -431q80 -261 80 -505t-80 -505q-79 -258 -237 -431q-32 -34 -78 -34h-4q-44 0 -75.5 28t-31.5 74q0 43 31 80q254 302 254 788q0 487 -254 789q-31 37 -31 80q0 46 31.5 74t75.5 28q49 0 82 -35z" unicode=")"/>
<glyph glyph-name="asterisk" d="M750 1098l196 114q26 15 58 17q59 0 86 -51q14 -23 14 -52q0 -59 -55 -90l-197 -114l197 -115q55 -31 55 -90q0 -28 -14 -51q-27 -50 -86 -52q-29 0 -58 17l-196 114v-229q0 -44 -29.5 -75t-73.5 -31t-73 31t-29 75v229l-197 -114q-27 -15 -57 -17q-59 0 -86 52 q-13 22 -15 51q0 58 56 90l196 115l-196 114q-54 31 -56 90q0 30 15 52q27 51 86 51q28 0 57 -17l197 -114v229q0 44 29 75.5t73 31.5t73.5 -31.5t29.5 -75.5v-229z" unicode="*"/>
<glyph glyph-name="plus" d="M741 1047v-324h326q113 0 113 -107q0 -106 -113 -106h-326v-326q0 -113 -107 -113q-106 1 -106 113v326h-323q-113 0 -113 106q0 107 113 107h323v324q0 113 106 113q107 0 107 -113z" unicode="+"/>
<glyph glyph-name="comma" d="M547 23q-96 45 -96 161q0 77 53 133t131 56q80 0 134 -56t54 -133v-16q-4 -115 -60 -208q-55 -92 -165 -202q-46 -41 -94 -41q-66 0 -66 66q0 38 31 57q53 33 65 69q13 35 13 114z" unicode=","/>
<glyph glyph-name="hyphen" d="M317 723h639q113 0 113 -107q0 -106 -113 -106h-639q-113 0 -113 106q0 107 113 107z" unicode="-"/>
<glyph glyph-name="period" d="M504 53q-53 53 -53 133t53 133q52 54 133 54t133 -54q53 -53 53 -133t-53 -133t-133 -53t-133 53z" unicode="."/>
<glyph glyph-name="slash" d="M233 41q-32 -41 -83 -41q-48 0 -78.5 29.5t-30.5 74.5q0 36 22 64l945 1225q32 41 84 41q48 0 78 -29.5t30 -75.5q0 -35 -22 -63z" unicode="/"/>
<glyph glyph-name="zero" d="M401 975v-375l439 530q-57 115 -203 115q-111 0 -173.5 -70.5t-62.5 -199.5zM637 188q111 0 173 71t62 200v375l-438 -531q58 -115 203 -115zM1106 991v-549q0 -208 -122 -336q-122 -126 -347 -126t-347 126q-122 128 -122 336v549q0 208 122 336q121 127 347 127 t347 -127q122 -128 122 -336z" unicode="0"/>
<glyph glyph-name="one" d="M805 209h246q54 0 84 -27t30 -78q0 -50 -30 -77t-84 -27h-725q-54 0 -84.5 27t-30.5 77q0 51 30 78t85 27h245v905l-192 -119q-27 -18 -68 -18q-51 0 -81.5 28.5t-30.5 79.5q0 57 55 93l352 225q44 31 90 31q50 0 79.5 -28.5t29.5 -80.5v-1116z" unicode="1"/>
<glyph glyph-name="two" d="M1008 0h-717q-55 0 -90 36t-35 91v37q0 201 142 349q73 74 132 118q77 55 152 100q128 77 192 149q64 71 64 167q0 198 -200 198h-3q-199 0 -221 -207q-6 -47 -36 -73.5t-73 -26.5q-50 0 -83 32t-33 87q0 177 126 287q127 110 316 110q199 0 319 -111q121 -109 121 -303 q0 -146 -93 -259q-91 -109 -251 -214q-78 -49 -119 -79q-31 -23 -92 -73q-101 -85 -127 -206h609q48 0 75 -27.5t27 -77.5q0 -49 -27.5 -76.5t-74.5 -27.5z" unicode="2"/>
<glyph glyph-name="three" d="M868 430q0 111 -68.5 171.5t-191.5 60.5h-55q-49 0 -81 28.5t-32 75.5q0 45 32.5 74.5t80.5 29.5h43q108 0 165.5 51t57.5 144q0 87 -54.5 133.5t-152.5 46.5q-207 0 -237 -198q-8 -47 -38.5 -74t-70.5 -27q-46 0 -83 32q-36 32 -36 85q0 162 128 276q127 115 325 115 q217 0 333 -104t116 -277q0 -112 -49 -189q-48 -76 -119 -102q221 -86 221 -338q0 -221 -134 -343q-133 -121 -356 -121q-214 0 -354 124q-141 125 -141 326q0 52 32.5 83.5t81.5 31.5q45 0 77 -29t36 -78q25 -250 268 -250q120 0 188 63t68 179z" unicode="3"/>
<glyph glyph-name="four" d="M383 537h328v485zM711 115v213h-523q-49 0 -81.5 28t-32.5 72q0 43 28 86l603 872q50 68 118 68q56 0 88.5 -32t32.5 -93v-792h113q54 0 84 -27t30 -78q0 -50 -30 -77t-84 -27h-113v-213q0 -49 -33 -82t-84 -33t-83.5 33t-32.5 82z" unicode="4"/>
<glyph glyph-name="five" d="M616 -20q-185 0 -330 112t-145 299q0 48 31.5 78.5t75.5 30.5q87 0 112 -94q58 -216 265 -218q256 0 256 281q0 127 -68 197.5t-192 70.5q-127 0 -242 -88q-32 -26 -75 -26h-5q-55 0 -88 29.5t-33 82.5q0 8 4 37l68 559q4 44 36.5 73.5t84.5 29.5h569q54 0 84.5 -27.5 t30.5 -77.5t-30.5 -77t-84.5 -27h-489l-48 -340q116 61 256 61q207 0 331 -124t124 -353t-136 -359q-134 -130 -362 -130z" unicode="5"/>
<glyph glyph-name="six" d="M395 465q0 -129 67 -203t191 -74q123 0 190 76q68 77 68 201t-68 200q-67 76 -190 76q-124 0 -191 -76q-67 -74 -67 -200zM162 522v375q0 251 139 403q139 154 365 154q305 0 438 -223q18 -31 18 -62q0 -56 -32 -88t-86 -32q-59 0 -95 53q-90 143 -243 143 q-124 0 -197 -93q-74 -94 -74 -263v-27q133 88 287 88q208 0 336 -126q127 -126 127 -359q0 -223 -137 -354t-355 -131q-230 0 -360 142q-131 143 -131 400z" unicode="6"/>
<glyph glyph-name="seven" d="M422 168l424 1057h-608q-52 0 -83.5 28t-31.5 76q0 51 30.5 78t84.5 27h749q129 0 129 -99q0 -21 -10 -47l-488 -1208q-33 -80 -108 -80q-49 0 -76.5 27.5t-27.5 74.5q0 28 16 66z" unicode="7"/>
<glyph glyph-name="eight" d="M791 931q57 54 57 132q0 77 -57 130q-55 52 -156 52t-157 -52q-56 -53 -56 -130q0 -78 56 -132q57 -54 157 -54q101 0 156 54zM817 257q70 69 70 169q0 101 -70 171q-69 71 -182 71q-112 0 -183 -71q-69 -71 -69 -171t69 -169q70 -69 183 -69t182 69zM150 420 q0 240 190 354q-147 96 -147 287q0 178 122 285q123 108 319 108q197 0 320 -108q123 -106 123 -285q0 -189 -147 -287q190 -115 190 -354q0 -201 -136 -321q-137 -119 -349 -119t-349 119q-136 120 -136 321z" unicode="8"/>
<glyph glyph-name="nine" d="M913 969q0 129 -67 202.5t-191 73.5t-191 -76q-67 -74 -67 -200q0 -125 67 -201t191 -76q123 0 190 76q68 77 68 201zM1147 911v-374q0 -249 -140 -404q-139 -153 -364 -153q-305 0 -438 223q-17 31 -19 61q0 56 32.5 88.5t86.5 32.5q59 0 94 -53q90 -143 244 -144 q123 0 196 93q74 95 74 264v26q-133 -88 -286 -88q-209 0 -336 126t-127 360q0 224 136 354q137 131 355 131q229 0 360 -143q132 -143 132 -400z" unicode="9"/>
<glyph glyph-name="colon" d="M504 725q-53 53 -53 133t53 133t133 53t133 -53t53 -133t-53 -133t-133 -53t-133 53zM504 53q-53 53 -53 133t53 133q52 54 133 54t133 -54q53 -53 53 -133t-53 -133t-133 -53t-133 53z" unicode=":"/>
<glyph glyph-name="semicolon" d="M504 725q-53 53 -53 133t53 133t133 53t133 -53t53 -133t-53 -133t-133 -53t-133 53zM547 23q-96 45 -96 161q0 77 53 133t131 56q80 0 134 -56t54 -133v-16q-4 -115 -60 -208q-55 -92 -165 -202q-46 -41 -94 -41q-66 0 -66 66q0 38 31 57q53 33 65 69q13 35 13 114z" unicode=";"/>
<glyph glyph-name="less" d="M858 2l-674 444q-41 27 -41 78t41 78l674 445q27 18 68 18t66 -28q26 -28 26 -66q0 -63 -51 -99l-523 -348l523 -348q51 -34 51 -98q0 -40 -25.5 -67t-66.5 -27t-68 18z" unicode="&lt;"/>
<glyph glyph-name="equal" d="M217 981h862q113 0 113 -107q0 -106 -113 -106h-862q-113 0 -113 106q0 107 113 107zM217 567h862q113 0 113 -107q0 -106 -113 -106h-862q-113 0 -113 106q0 107 113 107z" unicode="="/>
<glyph glyph-name="greater" d="M1085 446l-673 -444q-27 -18 -68 -18q-42 0 -67 27q-25 28 -25 67q0 64 51 98l522 348l-522 348q-51 34 -51 99q0 40 25.5 67t66.5 27t68 -18l673 -445q41 -27 41 -78t-41 -78z" unicode="&gt;"/>
<glyph glyph-name="question" d="M823 1114q0 62 -43.5 98.5t-115.5 36.5q-180 0 -222 -155q-16 -60 -42 -84.5t-74 -24.5q-52 0 -80.5 31.5t-28.5 83.5q0 141 124 247q125 107 314 107q184 0 291 -89t107 -241q0 -112 -52 -185q-51 -73 -145 -148q-103 -84 -113 -201q-7 -101 -104 -103q-47 0 -75.5 33 t-28.5 82q0 110 35 174t126 139q127 106 127 199zM506 53q-53 53 -53 133t53 133q52 54 133 54t133 -54q53 -53 53 -133t-53 -133t-133 -53t-133 53z" unicode="?"/>
<glyph glyph-name="at" d="M795 350q76 0 117.5 53.5t41.5 143.5t-41.5 143t-117.5 53t-118 -55q-42 -56 -42 -141q0 -86 42 -142q42 -55 118 -55zM780 166q-164 0 -261 106t-97 275q0 160 98 270q98 111 260 111q109 0 174 -47q0 107 -65 165t-187 58q-186 0 -312 -149t-126 -408q0 -254 137 -406 q138 -151 359 -151q120 0 244 65q27 14 55 15q90 0 90 -95q0 -66 -74 -102q-134 -68 -315 -68q-332 0 -521 207q-188 208 -188 535q0 325 176 533q175 208 475 208q216 0 340 -114q125 -113 125 -310v-567q0 -117 -94 -117q-72 0 -98 68q-72 -82 -195 -82z" unicode="@"/>
<glyph glyph-name="A" d="M780 612l-145 389l-146 -389h291zM408 391l-113 -301q-33 -90 -111 -90q-54 0 -87.5 33.5t-33.5 89.5q0 24 11 55l448 1172q38 96 113 96t113 -96l448 -1172q10 -30 10 -55q0 -57 -33 -90t-88 -33q-79 0 -110 90l-113 301h-454z" unicode="A"/>
<glyph glyph-name="B" d="M418 1212v-376h244q221 0 221 188t-221 188h-244zM418 614v-393h311q236 0 236 196q0 197 -236 197h-311zM303 1434h399q188 0 305 -105q117 -103 117 -291q0 -185 -131 -286q213 -94 213 -334q0 -190 -119 -304t-325 -114h-459q-59 0 -93 34t-34 93v1180q0 59 34 93 t93 34z" unicode="B"/>
<glyph glyph-name="C" d="M698 1454q285 0 457 -172q47 -47 47 -106q0 -48 -31.5 -80.5t-76.5 -32.5q-46 0 -93 45q-125 125 -303 125q-126 0 -211 -78t-123 -191q-36 -113 -36 -247q0 -295 159 -439q86 -77 211 -77q178 0 303 125q45 45 93 45q45 0 76.5 -32.5t31.5 -80.5q0 -59 -47 -106 q-172 -172 -457 -172q-279 0 -448 193q-168 193 -168 544q0 350 169 543q170 194 447 194z" unicode="C"/>
<glyph glyph-name="D" d="M383 1212v-991h186q178 0 283 128q106 127 106 367t-105 368t-284 128h-186zM580 0h-312q-59 0 -93 34t-34 93v1180q0 59 34 93t93 34h312q283 0 451 -196q169 -196 169 -522q0 -325 -169 -521q-168 -195 -451 -195z" unicode="D"/>
<glyph glyph-name="E" d="M266 1434h727q54 0 84.5 -29t30.5 -82t-30.5 -82t-84.5 -29h-612v-364h446q54 0 84.5 -29t30.5 -82t-30.5 -81.5t-84.5 -28.5h-446v-406h651q54 0 84.5 -29t30.5 -82t-30.5 -81.5t-84.5 -28.5h-766q-59 0 -93 34t-34 93v1180q0 59 34 93t93 34z" unicode="E"/>
<glyph glyph-name="F" d="M266 1434h742q54 0 84 -29t30 -82t-30 -82t-84 -29h-627v-385h459q54 0 84 -28.5t30 -81.5t-30 -82t-84 -29h-459v-485q0 -53 -34 -87t-87 -34t-87 34t-34 87v1186q0 59 34 93t93 34z" unicode="F"/>
<glyph glyph-name="G" d="M662 1454q153 0 256 -39q104 -39 202 -137q45 -45 45 -99q0 -53 -34 -86q-34 -32 -82 -32q-50 0 -97 47q-60 68 -126.5 96.5t-159.5 28.5q-166 0 -263 -141q-96 -140 -96 -373q0 -239 93 -379q94 -139 274 -139q171 0 260 141v205h-232q-54 0 -84 28.5t-30 81.5t30 82 t84 29h347q59 0 93 -34t34 -93v-520q0 -53 -34 -87t-87 -34q-76 0 -115 74q-103 -94 -281 -94q-272 0 -435 202t-163 537q0 330 166 532q167 203 435 203z" unicode="G"/>
<glyph glyph-name="H" d="M367 121q0 -53 -34 -87t-87 -34t-87 34t-34 87v1192q0 53 34 87t87 34t87 -34t34 -87v-467h536v467q0 53 34 87t87 34t87 -34t34 -87v-1192q0 -53 -34 -87t-87 -34t-87 34t-34 87v504h-536v-504z" unicode="H"/>
<glyph glyph-name="I" d="M973 0h-721q-54 0 -84.5 28.5t-30.5 81.5t30.5 82t84.5 29h240v991h-240q-54 0 -84.5 29t-30.5 82t30.5 82t84.5 29h721q54 0 84 -29t30 -82t-30 -82t-84 -29h-240v-991h240q54 0 84 -29t30 -82t-30 -81.5t-84 -28.5z" unicode="I"/>
<glyph glyph-name="J" d="M803 545v768q0 53 33.5 87t86.5 34q54 0 87.5 -34t33.5 -87v-717q0 -308 -118 -462q-117 -154 -381 -154q-254 0 -412 167q-43 44 -43 97q0 54 33.5 88.5t87.5 34.5q58 0 92 -37q73 -74 121 -102q50 -27 127 -27q130 0 191 84.5t61 259.5z" unicode="J"/>
<glyph glyph-name="K" d="M389 121q0 -53 -33.5 -87t-87.5 -34q-53 0 -87 34t-34 87v1192q0 53 34 87t87 34q54 0 87.5 -34t33.5 -87v-486l442 551q44 54 107 56q48 0 86 -33q37 -33 37 -80q0 -44 -31 -82l-301 -367l442 -677q23 -35 23 -74q0 -58 -32.5 -89.5t-86.5 -31.5q-77 0 -117 66l-387 610 l-182 -215v-340z" unicode="K"/>
<glyph glyph-name="L" d="M1102 0h-731q-59 0 -93 34t-34 93v1186q0 53 33.5 87t86.5 34q54 0 87.5 -34t33.5 -87v-1092h617q54 0 84.5 -29t30.5 -82t-30.5 -81.5t-84.5 -28.5z" unicode="L"/>
<glyph glyph-name="M" d="M1182 1313v-1192q0 -53 -34 -87t-87 -34t-87 34t-34 87v766l-209 -352q-33 -59 -97 -60q-64 0 -95 60l-209 352v-766q0 -53 -34 -87t-87 -34t-87 34t-34 87v1192q0 54 30.5 87.5t88.5 33.5q67 0 108 -72l320 -553l319 553q40 72 109 72q57 0 88 -34t31 -87z" unicode="M"/>
<glyph glyph-name="N" d="M104 121v1192q0 53 31 87t88 34q60 0 96 -54l605 -864v797q0 53 33.5 87t86.5 34q54 0 87.5 -34t33.5 -87v-1192q0 -54 -30.5 -87.5t-88.5 -33.5t-96 53l-604 860v-792q0 -53 -33.5 -87t-87.5 -34q-53 0 -87 34t-34 87z" unicode="N"/>
<glyph glyph-name="O" d="M884 344q85 142 85 372q0 231 -85 373q-86 144 -249 144t-249 -144q-85 -142 -85 -373q0 -230 85 -372q86 -143 249 -143t249 143zM1062 1248q152 -206 152 -532q0 -325 -152 -531q-151 -205 -428 -205t-428 205t-151 531q0 327 151 532q152 206 428 206t428 -206z" unicode="O"/>
<glyph glyph-name="P" d="M702 1212h-296v-462h296q264 0 264 231t-264 231zM291 1434h397q255 0 387.5 -115.5t132.5 -337.5t-132.5 -337.5t-387.5 -115.5h-282v-407q0 -53 -34 -87t-88 -34q-53 0 -86.5 34t-33.5 87v1186q0 59 34 93t93 34z" unicode="P"/>
<glyph glyph-name="Q" d="M969 717q0 230 -85 372q-86 144 -249 144t-249 -144q-85 -142 -85 -373q0 -230 85 -372q86 -143 249 -143q85 0 149 41l-67 67q-39 37 -39 86q0 47 39 86t86 39t86 -39l39 -41q41 125 41 277zM991 37l-41 39q-130 -96 -315 -96q-277 0 -428 205q-152 206 -152 531 q0 327 151 532q152 206 428 206t428 -206t152 -531q0 -265 -104 -459l51 -51q37 -37 37 -86q0 -47 -37 -84q-39 -39 -86 -39q-48 0 -84 39z" unicode="Q"/>
<glyph glyph-name="R" d="M686 1212h-280v-442h280q256 0 256 221t-256 221zM291 1434h414q235 0 357 -123q122 -124 122 -320q0 -291 -252 -401l239 -383q33 -53 33 -94q0 -51 -31.5 -82t-80.5 -31q-78 0 -125 78l-289 471h-272v-428q0 -53 -34 -87t-88 -34q-53 0 -86.5 34t-33.5 87v1186 q0 59 34 93t93 34z" unicode="R"/>
<glyph glyph-name="S" d="M90 225q-31 44 -31 88q0 54 34.5 88.5t90.5 34.5q66 0 103 -51q66 -96 146 -140q82 -44 210 -44q131 0 207 54t76 142q0 81 -61 130q-61 52 -150 71q-68 15 -196 49q-99 27 -196 65q-89 36 -150 119q-60 84 -60 211q0 198 147 305q149 107 361 107q335 0 466 -221 q25 -43 25 -80q0 -58 -33.5 -90.5t-87.5 -32.5q-63 0 -102 64q-85 139 -268 139q-125 0 -196 -47.5t-71 -138.5q0 -67 60 -110q63 -44 151 -65q85 -18 195 -53q105 -32 196 -72q90 -37 151 -124q60 -85 60 -209q0 -210 -151 -322q-149 -112 -373 -112h-5q-383 0 -548 245z " unicode="S"/>
<glyph glyph-name="T" d="M166 1434h938q54 0 84.5 -29t30.5 -82t-30.5 -82t-84.5 -29h-348v-1091q0 -53 -34 -87t-87 -34t-87 34t-34 87v1091h-348q-54 0 -84.5 29t-30.5 82t30.5 82t84.5 29z" unicode="T"/>
<glyph glyph-name="U" d="M1184 1313v-766q0 -259 -132 -414q-132 -153 -403 -153q-270 0 -402 153q-132 155 -132 414v766q0 53 33.5 87t86.5 34q54 0 87.5 -34t33.5 -87v-774q0 -161 81 -250q81 -88 212 -88t212 88q81 89 81 250v774q0 53 34 87t87 34t87 -34t34 -87z" unicode="U"/>
<glyph glyph-name="V" d="M641 420l326 923q33 90 112 91q55 0 88 -33t33 -90q0 -26 -10 -56l-436 -1169q-39 -98 -113 -98t-113 98l-436 1169q-10 30 -10 56q0 57 32.5 90t88.5 33q81 0 112 -91z" unicode="V"/>
<glyph glyph-name="W" d="M856 82l-221 737l-221 -737q-27 -94 -113 -94q-94 0 -104 94l-148 1212q-2 18 -2 25q0 54 29.5 84.5t81.5 30.5q109 0 121 -117l75 -705l170 576q26 90 111 90q86 0 110 -90l170 -576l76 705q12 117 121 117q51 0 81 -30.5t30 -84.5q0 -5 -2 -25l-148 -1212 q-10 -94 -104 -94q-86 0 -113 94z" unicode="W"/>
<glyph glyph-name="X" d="M1069 0q-71 0 -111 57l-337 478l-338 -478q-41 -57 -111 -57q-47 0 -78 30.5t-31 75.5q0 33 19 64l401 565l-374 529q-17 31 -19 63q0 45 31 76t78 31q66 0 106 -58l320 -444l313 444q40 56 106 58q47 0 78 -31t31 -76q0 -33 -18 -63l-377 -529l401 -565q17 -31 19 -64 q0 -45 -31 -75.5t-78 -30.5z" unicode="X"/>
<glyph glyph-name="Y" d="M514 121v491l-416 637q-20 34 -20 66q0 50 37 84q38 35 92 35q75 0 112 -66l316 -504l315 504q39 66 113 66q54 0 92 -35q37 -34 37 -84q0 -33 -21 -66l-415 -637v-491q0 -53 -34 -87t-87 -34t-87 34t-34 87z" unicode="Y"/>
<glyph glyph-name="Z" d="M1055 0h-813q-67 0 -104.5 33t-37.5 84q0 39 23 71l674 1024h-576q-54 0 -84.5 29t-30.5 82t30.5 82t84.5 29h778q63 0 99.5 -28.5t36.5 -76.5q0 -40 -31 -86l-674 -1022h625q54 0 84 -29t30 -82t-30 -81.5t-84 -28.5z" unicode="Z"/>
<glyph glyph-name="bracketleft" d="M360 -205v1581q0 66 29 94.5t94 28.5h357q55 0 86.5 -27t31.5 -75q0 -49 -31.5 -76t-86.5 -27h-250v-1417h250q55 0 86.5 -27t31.5 -75q0 -49 -31.5 -76t-86.5 -27h-357q-66 0 -94.5 28.5t-28.5 94.5z" unicode="["/>
<glyph glyph-name="backslash" d="M1036 41l-944 1225q-23 30 -22 63q0 46 30 75.5t78 29.5q52 0 84 -41l944 -1225q23 -29 23 -64q0 -45 -30.5 -74.5t-78.5 -29.5q-52 0 -84 41z" unicode="\"/>
<glyph glyph-name="bracketright" d="M909 1376v-1581q0 -66 -28.5 -94.5t-94.5 -28.5h-356q-55 0 -87 27.5t-32 75.5t32 75t87 27h250v1417h-250q-55 0 -87 27.5t-32 75.5t32 75t87 27h356q66 0 94.5 -28.5t28.5 -94.5z" unicode="]"/>
<glyph glyph-name="asciicircum" d="M104 721l461 668q31 45 78 45t78 -45l461 -670q18 -27 18 -68q0 -42 -28 -67q-26 -25 -66 -25q-64 0 -98 51l-365 523l-364 -523q-35 -51 -99 -51q-42 2 -68 27.5t-26 66.5q0 39 18 68z" unicode="^"/>
<glyph glyph-name="underscore" d="M205 0h862q113 0 113 -106q0 -107 -113 -107h-862q-113 0 -113 107q0 106 113 106z" unicode="_"/>
<glyph glyph-name="grave" d="M711 1618l-285 143q-61 33 -61 94q0 48 31.5 81.5t74.5 33.5q28 0 47 -10l285 -143q61 -33 61 -95q0 -48 -31.5 -81t-74.5 -33q-28 0 -47 10z" unicode="`"/>
<glyph glyph-name="a" d="M606 840q-123 0 -197 -86q-73 -85 -73 -242t73 -242q74 -86 197 -86q128 0 205 86q76 85 76 242t-76 242q-77 86 -205 86zM887 940q10 36 42.5 60t71.5 24q51 0 83 -30.5t32 -78.5v-806q0 -48 -32 -78.5t-83 -30.5q-41 0 -72.5 24t-41.5 60q-110 -104 -295 -104 q-223 0 -357 149q-133 149 -133 383t133 382q133 150 357 150q185 0 295 -104z" unicode="a"/>
<glyph glyph-name="b" d="M489 754q-69 -85 -69 -242q0 -156 69 -242q71 -86 193 -86q123 0 190 85q68 86 68 243t-68 243q-67 85 -190 85q-122 0 -193 -86zM420 1325v-373q110 92 276 92q222 0 349 -148q129 -148 129 -384q0 -235 -128 -384q-127 -148 -350 -148q-165 0 -280 98 q-10 -35 -40 -56.5t-71 -21.5q-51 0 -83 30.5t-32 78.5v1216q0 48 32 78.5t83 30.5t83 -30.5t32 -78.5z" unicode="b"/>
<glyph glyph-name="c" d="M883 297q46 55 104 55q49 0 81 -31t32 -81q0 -53 -43 -99q-146 -161 -403 -161h-5q-229 0 -374 148q-144 148 -144 384t144 384q145 148 374 148q259 0 408 -161q43 -44 43 -99q0 -50 -32 -81t-81 -31q-58 0 -104 55q-98 113 -234 113q-120 0 -203 -86q-81 -86 -81 -242 t81 -242q83 -86 203 -86q136 0 234 113z" unicode="c"/>
<glyph glyph-name="d" d="M811 270q70 85 70 242t-70 242q-71 86 -193 86q-123 0 -190 -85q-68 -86 -68 -243t68 -243q67 -85 190 -85q122 0 193 86zM881 952v373q0 48 31.5 78.5t82.5 30.5t83 -30.5t32 -78.5v-1216q0 -48 -32 -78.5t-83 -30.5q-41 0 -70.5 21t-39.5 57q-116 -98 -281 -98 q-222 0 -349 148q-128 149 -128 384t128 384q127 148 349 148q167 0 277 -92z" unicode="d"/>
<glyph glyph-name="e" d="M369 623h557q-19 96 -95 156q-74 61 -182 61q-105 0 -181 -57q-76 -55 -99 -160zM127 512q0 234 145 382q146 150 377 150q227 0 366 -145q140 -146 140 -356q0 -60 -30 -92.5t-81 -32.5h-675q13 -105 96 -170q82 -64 197 -64q172 0 274 109q41 41 88 41q50 0 77 -29 t27 -78q0 -51 -43 -94q-146 -153 -430 -153h-6q-240 0 -381 148t-141 384z" unicode="e"/>
<glyph glyph-name="f" d="M463 109v710h-250q-51 0 -80 27.5t-29 74.5q0 48 29 75.5t80 27.5h250q0 221 107 325q108 105 261 105q175 0 299 -92q48 -37 50 -88q0 -48 -26.5 -75.5t-70.5 -27.5q-35 0 -73 27q-74 51 -168 51q-81 0 -115.5 -53.5t-34.5 -171.5h332q51 0 80 -27.5t29 -75.5 q0 -47 -29 -74.5t-80 -27.5h-332v-710q0 -48 -32 -78.5t-83 -30.5t-82.5 30.5t-31.5 78.5z" unicode="f"/>
<glyph glyph-name="g" d="M807 286q70 80 70 236q0 157 -70 237q-71 81 -193 81t-190 -81q-68 -82 -68 -237q0 -154 68 -236q68 -81 190 -81t193 81zM356 -82q43 -76 102 -109.5t154 -33.5q118 0 191 76q74 76 74 219v22q-110 -92 -277 -92q-222 0 -349 144q-128 146 -128 378q0 235 127 378 q128 144 350 144q165 0 281 -98q10 36 39.5 57t70.5 21q51 0 83 -30.5t32 -78.5v-817q0 -256 -127.5 -392t-372.5 -136q-156 0 -278 65q-121 64 -178 172q-15 29 -17 64q0 49 34 82q35 33 81 33q69 0 108 -68z" unicode="g"/>
<glyph glyph-name="h" d="M205 109v1216q0 48 31.5 78.5t82.5 30.5t83 -30.5t32 -78.5v-426q40 61 120 103t177 42q173 0 270 -94q99 -94 99 -270v-571q0 -48 -32 -78.5t-83 -30.5t-83 30.5t-32 78.5v540q0 189 -176 191q-108 0 -185 -93q-75 -91 -75 -237v-401q0 -48 -32 -78.5t-83 -30.5 t-82.5 30.5t-31.5 78.5z" unicode="h"/>
<glyph glyph-name="i" d="M813 1303q0 -63 -45 -108q-46 -44 -106 -44q-63 0 -108 45q-44 46 -44 107q0 63 45 107q46 44 107 44q64 0 107 -45q44 -46 44 -106zM287 205h286v614h-225q-51 0 -79.5 27.5t-28.5 74.5q0 48 28.5 75.5t79.5 27.5h332q66 0 94.5 -28.5t28.5 -94.5v-696h287 q51 0 79.5 -27.5t28.5 -75.5q0 -47 -28.5 -74.5t-79.5 -27.5h-803q-51 0 -80 27.5t-29 74.5q0 48 29 75.5t80 27.5z" unicode="i"/>
<glyph glyph-name="j" d="M926 1303q0 -63 -45 -108q-46 -44 -107 -44q-64 0 -107 45q-44 46 -44 107q0 63 45 107q46 44 106 44q64 0 107 -45q45 -45 45 -106zM336 -152q116 -73 181 -73h3q166 0 166 164v880h-211q-51 0 -79.5 27.5t-28.5 74.5q0 48 28.5 75.5t79.5 27.5h318q64 0 93 -29t29 -94 v-956q0 -182 -96 -278.5t-272 -96.5q-170 0 -322 92q-61 34 -61 100q0 46 28 77.5t74 31.5q36 0 70 -23z" unicode="j"/>
<glyph glyph-name="k" d="M469 340v-231q0 -48 -32 -78.5t-83 -30.5t-82.5 30.5t-31.5 78.5v1216q0 48 31.5 78.5t82.5 30.5t83 -30.5t32 -78.5v-672l309 328q40 43 92 43q42 0 76 -29q33 -29 33 -69t-37 -80l-192 -209l303 -447q25 -39 24 -75q0 -49 -32 -82t-80 -33q-65 0 -109 68l-266 401z" unicode="k"/>
<glyph glyph-name="l" d="M287 205h286v1024h-225q-51 0 -79.5 27.5t-28.5 74.5q0 48 28.5 75.5t79.5 27.5h332q66 0 94.5 -29t28.5 -94v-1106h287q51 0 79.5 -27.5t28.5 -75.5q0 -47 -28.5 -74.5t-79.5 -27.5h-803q-51 0 -80 27.5t-29 74.5q0 48 29 75.5t80 27.5z" unicode="l"/>
<glyph glyph-name="m" d="M758 614v-505q0 -48 -32 -78.5t-83 -30.5t-83 30.5t-32 78.5v628q0 101 -90 103q-123 0 -123 -226v-505q0 -48 -31.5 -78.5t-82.5 -30.5t-83 30.5t-32 78.5v806q0 48 32 78.5t83 30.5q96 0 114 -86q63 106 209 106q148 0 203 -112q89 112 227 112h4q242 0 242 -266v-669 q0 -48 -32 -78.5t-83 -30.5t-82.5 30.5t-31.5 78.5v628q0 101 -90 103q-123 -2 -123 -226z" unicode="m"/>
<glyph glyph-name="n" d="M203 109v806q0 48 31.5 78.5t82.5 30.5t83 -30.5t32 -78.5v-16q40 61 120 103t177 42q173 0 270 -94q99 -94 99 -270v-571q0 -48 -32 -78.5t-83 -30.5t-83 30.5t-32 78.5v540q0 189 -176 191q-108 0 -185 -93q-75 -91 -75 -237v-401q0 -48 -32 -78.5t-83 -30.5 t-82.5 30.5t-31.5 78.5z" unicode="n"/>
<glyph glyph-name="o" d="M437 751q-79 -88 -79 -239t79 -239q80 -89 196 -89q117 0 195 89q79 88 79 239t-79 239q-78 89 -195 89q-116 0 -196 -89zM1000 127q-140 -147 -367 -147t-368 147q-140 148 -140 385t140 385q141 147 368 147t367 -147q141 -147 141 -385t-141 -385z" unicode="o"/>
<glyph glyph-name="p" d="M487 754q-69 -85 -69 -242q0 -156 69 -242q71 -86 193 -86q123 0 190 85q68 86 68 243t-68 243q-67 85 -190 85q-122 0 -193 -86zM418 72v-373q0 -48 -32 -78.5t-83 -30.5t-83 30.5t-32 78.5v1216q0 48 32 78.5t83 30.5q41 0 70.5 -21t40.5 -57q116 98 280 98 q222 0 349 -148q128 -149 128 -384t-128 -384q-127 -148 -349 -148q-166 0 -276 92z" unicode="p"/>
<glyph glyph-name="q" d="M827 270q70 85 70 242t-70 242q-69 86 -192 86q-124 0 -191 -85t-67 -243t67 -243t191 -85q123 0 192 86zM897 -301v373q-110 -92 -276 -92q-221 0 -350 148q-128 149 -128 384t128 384q127 148 350 148q165 0 280 -98q10 35 40 56.5t71 21.5q51 0 82.5 -30.5t31.5 -78.5 v-1216q0 -48 -31.5 -78.5t-82.5 -30.5t-83 30.5t-32 78.5z" unicode="q"/>
<glyph glyph-name="r" d="M274 109v806q0 48 32 78.5t83 30.5t83 -30.5t32 -78.5v-10q45 59 127 99q81 40 178 40q250 0 358 -213q15 -36 17 -63q0 -48 -33.5 -79.5t-81.5 -31.5q-29 0 -59.5 22.5t-46.5 55.5q-52 103 -172 105q-137 0 -212 -113t-75 -281v-337q0 -48 -32 -78.5t-83 -30.5t-83 30.5 t-32 78.5z" unicode="r"/>
<glyph glyph-name="s" d="M231 150q-32 39 -30 77q0 46 31 78.5t79 32.5q52 0 95 -49q90 -103 264 -105q96 0 150 33.5t54 89.5q0 38 -32 55q-33 21 -82 31l-52 10q-24 5 -62 9q-46 7 -62 10q-350 56 -351 307q0 155 121 234q122 81 293 81q132 0 221 -43q91 -44 168 -133q23 -29 23 -63v-6 q0 -43 -34 -73t-78 -30q-54 0 -91 45q-82 97 -213 99q-80 0 -130 -30t-50 -83q0 -1 -0.5 -4t-0.5 -5q0 -50 75 -81q22 -9 56 -16q27 -5 57 -10l67 -9q80 -11 114 -19q42 -8 101 -27q61 -19 92 -46q34 -30 57 -78.5t23 -107.5q0 -155 -125 -250q-124 -94 -307 -94 q-301 0 -441 170z" unicode="s"/>
<glyph glyph-name="t" d="M446 1024v322q0 47 32 77.5t83 30.5t83 -30.5t32 -77.5v-322h340q51 0 79.5 -27.5t28.5 -75.5q0 -47 -28.5 -74.5t-79.5 -27.5h-340v-459q0 -176 149 -176q110 0 193 70q33 27 65 27q44 0 71.5 -30.5t27.5 -74.5q0 -52 -47 -90q-133 -106 -320 -106q-155 0 -255 78 q-114 89 -114 309v452h-245q-51 0 -80 27.5t-29 74.5q0 48 29 75.5t80 27.5h245z" unicode="t"/>
<glyph glyph-name="u" d="M1098 915v-806q0 -48 -32 -78.5t-83 -30.5t-83 30.5t-32 78.5v16q-40 -61 -120 -103q-78 -42 -177 -42q-173 0 -270 94q-98 95 -98 270v571q0 48 31.5 78.5t82.5 30.5t83 -30.5t32 -78.5v-540q0 -189 176 -191q112 0 185 88q75 88 75 242v401q0 48 32 78.5t83 30.5 t83 -30.5t32 -78.5z" unicode="u"/>
<glyph glyph-name="v" d="M516 96l-348 758q-14 33 -14 61q0 48 32.5 78.5t81.5 30.5q84 0 119 -78l258 -594l258 594q35 78 119 78q50 0 82.5 -30t32.5 -79q0 -31 -15 -61l-348 -758q-44 -96 -129 -96t-129 96z" unicode="v"/>
<glyph glyph-name="w" d="M365 0q-89 0 -111 88l-203 801q-4 17 -4 31q0 46 35 75t80 29q86 0 106 -86l127 -526l129 346q28 82 111 82q82 0 110 -82l129 -346l127 526q20 86 107 86q45 0 80 -29t35 -75q0 -12 -4 -31l-203 -801q-22 -88 -111 -88q-77 0 -106 72l-164 440l-164 -440 q-29 -72 -106 -72z" unicode="w"/>
<glyph glyph-name="x" d="M489 514l-272 334q-25 31 -24 65q0 46 32 78.5t80 32.5q51 0 84 -39l240 -297l239 297q33 39 84 39q48 0 80.5 -32.5t32.5 -78.5q0 -36 -25 -65l-272 -334l279 -338q25 -31 24 -65q0 -51 -30.5 -81t-82.5 -30t-84 39l-245 301l-246 -301q-31 -39 -84 -39q-51 0 -82 30 t-31 81q0 36 25 65z" unicode="x"/>
<glyph glyph-name="y" d="M295 -430q-101 0 -155 37.5t-54 97.5q0 94 94 94q24 0 55 -12q33 -12 64 -12q65 0 111 44q44 42 94 161l22 53l-366 829q-11 26 -13 51q0 49 33 80t86 31q74 0 107 -74l278 -637l277 635q33 76 108 76q51 0 83 -30.5t32 -80.5q0 -25 -12 -55l-387 -858 q-117 -256 -204 -343t-253 -87z" unicode="y"/>
<glyph glyph-name="z" d="M969 0h-682q-53 0 -84 28t-31 74t27 80l524 637h-418q-51 0 -79.5 27.5t-28.5 74.5q0 48 28.5 75.5t79.5 27.5h627q112 0 112 -103q0 -45 -22 -71l-526 -645h473q51 0 79.5 -27.5t28.5 -75.5q0 -47 -28.5 -74.5t-79.5 -27.5z" unicode="z"/>
<glyph glyph-name="braceleft" d="M432 913v463q0 65 29.5 94t93.5 29h326q55 0 86.5 -27t31.5 -75q0 -49 -31.5 -76t-86.5 -27h-219v-362q0 -96 -22.5 -168.5t-57.5 -111.5q-32 -37 -82 -66q51 -31 82 -67q32 -37 56 -107q24 -71 24 -172v-363h219q55 0 86.5 -27t31.5 -75q0 -49 -31.5 -76t-86.5 -27h-326 q-64 0 -93.5 29t-29.5 94v463q0 225 -180 225q-55 0 -87 27.5t-32 75.5t32 75t87 27q180 0 180 225z" unicode="{"/>
<glyph glyph-name="bar" d="M520 -33v1499q0 54 31 87.5t84 33.5t84 -33.5t31 -87.5v-1499q0 -54 -31 -87.5t-84 -33.5t-84 33.5t-31 87.5z" unicode="|"/>
<glyph glyph-name="braceright" d="M838 1376v-463q0 -225 180 -225q55 0 87 -27t32 -75t-32 -75.5t-87 -27.5q-180 0 -180 -225v-463q0 -65 -29.5 -94t-93.5 -29h-326q-55 0 -87 27.5t-32 75.5t32 75t87 27h219v363q0 96 22 168t57 111q30 34 83 67q-52 32 -83 66q-33 37 -56 106q-23 72 -23 174v362h-219 q-55 0 -87 27.5t-32 75.5t32 75t87 27h326q64 0 93.5 -29t29.5 -94z" unicode="}"/>
<glyph glyph-name="asciitilde" d="M348 545q-40 -37 -86 -37q-44 0 -71 26t-27 74q0 46 41 90q91 98 246 99q85 0 213 -60q114 -55 182 -55q58 0 102 39q38 37 86 37q44 0 71.5 -26t27.5 -75q0 -46 -41 -90q-92 -98 -246 -98q-84 0 -213 59q-113 54 -182 56q-59 0 -103 -39z" unicode="~"/>
<glyph glyph-name="uni00A0" unicode=" "/>
<glyph glyph-name="exclamdown" d="M502 704q-53 55 -53 134q0 80 53 133t133 53t133 -53t53 -133q0 -79 -53 -134q-53 -53 -133 -53t-133 53zM477 -279l53 713q4 46 31.5 74.5t73.5 28.5t73 -28.5t31 -74.5l54 -713q0 -71 -40.5 -111t-117.5 -40t-117.5 40t-40.5 111z" unicode="¡"/>
<glyph glyph-name="cent" d="M535 401v631q-89 -30 -141 -111.5t-52 -203.5t52 -204t141 -112zM860 502q45 55 105 55q49 0 80.5 -31t31.5 -82q0 -54 -43 -98q-112 -124 -303 -153v-97q0 -116 -96 -116h-2q-98 0 -98 116v97q-193 28 -310 171q-116 143 -116 353t116 353q117 143 310 171v96 q0 117 98 117t98 -117v-96q185 -26 303 -154q43 -44 43 -98q0 -50 -31.5 -81t-80.5 -31q-59 0 -105 55q-66 72 -129 96v-622q63 22 129 96z" unicode="¢"/>
<glyph glyph-name="sterling" d="M979 0h-801q-45 0 -72.5 27t-27.5 69q0 70 106 109q73 27 104 86.5t31 175.5v149h-65q-113 0 -113 102q0 103 113 103h65v248q0 186 99 285q100 100 260 100q237 0 340 -211q14 -30 14 -61q0 -50 -30.5 -77.5t-79.5 -27.5q-59 0 -86 58q-52 114 -155 114h-3 q-137 0 -137 -190v-238h209q112 0 112 -100q0 -105 -112 -105h-209v-147q0 -195 -86 -264h422v141q0 42 30 70q31 30 72 30t71 -30q31 -28 31 -70v-256q0 -90 -102 -90z" unicode="£"/>
<glyph glyph-name="currency" d="M441 924q-56 -54 -56 -138t56 -138q57 -54 141 -54t140 54t56 138t-56 138q-55 55 -140 55t-141 -55zM211 559l35 33q-54 88 -56 194q0 104 56 195l-35 33q-37 37 -37 78q0 46 29 75t76 29q41 0 77 -37l41 -43q84 45 184 45q101 0 185 -45l41 43q37 37 78 37 q47 0 75.5 -29t28.5 -75q0 -41 -37 -78l-34 -33q55 -89 55 -195q0 -105 -55 -194l34 -33q37 -37 37 -78q0 -46 -28.5 -75t-75.5 -29q-41 0 -78 37l-41 43q-84 -45 -185 -45q-100 0 -184 45l-41 -43q-37 -37 -77 -37q-47 0 -76 29.5t-29 74.5q0 41 37 78z" unicode="¤"/>
<glyph glyph-name="yen" d="M895 825h90q113 0 113 -107q0 -106 -113 -106h-229v-127h229q113 0 113 -107q0 -106 -113 -106h-229v-151q0 -53 -34 -87t-87 -34t-87 34t-34 87v151h-229q-113 0 -113 106q0 107 113 107h229v127h-229q-113 0 -113 106q0 107 113 107h90l-277 424q-20 34 -20 66 q0 50 37 84q38 35 92 35q75 0 112 -66l316 -504l315 504q39 66 113 66q54 0 92 -35q37 -34 37 -84q0 -33 -21 -66z" unicode="¥"/>
<glyph glyph-name="brokenbar" d="M748 524v-557q0 -54 -31 -87.5t-84 -33.5t-84 33.5t-31 87.5v557q0 54 31 87.5t84 33.5t84 -33.5t31 -87.5zM748 1466v-557q0 -54 -31 -87.5t-84 -33.5t-84 33.5t-31 87.5v557q0 54 31 87.5t84 33.5t84 -33.5t31 -87.5z" unicode="¦"/>
<glyph glyph-name="section" d="M741 461q0 70 -66 115q-32 22 -66 40q-31 16 -87 42q-47 22 -86 42q-55 -58 -55 -137q0 -68 66 -116q42 -28 66 -40q31 -17 87 -42q63 -29 86 -41q55 58 55 137zM963 469q0 -135 -115 -262q92 -107 92 -264q0 -178 -109 -275q-109 -98 -270 -98q-145 0 -233 46 q-89 47 -156 148q-18 27 -18 68q0 50 32 80.5t82 30.5q60 0 101 -56q42 -62 85 -87t107 -25q71 0 114.5 41.5t43.5 115.5q0 66 -39.5 117.5t-105.5 80.5q-80 37 -135 64q-77 40 -135 76q-63 40 -103 113q-41 74 -41 172q0 135 114 262q-92 103 -92 264q0 177 108 275 q110 98 271 98q145 0 233 -46q89 -47 156 -148q17 -26 19 -68q0 -50 -32.5 -80.5t-82.5 -30.5q-61 0 -100 56q-42 62 -85.5 87t-107.5 25q-71 0 -114.5 -41.5t-43.5 -115.5q0 -66 39.5 -117.5t104.5 -80.5q76 -34 136 -65q73 -36 135 -75q63 -39 104 -113t41 -172z" unicode="§"/>
<glyph glyph-name="dieresis" d="M937 1818q42 -42 42 -100q0 -57 -42 -99t-100 -42q-57 0 -99 42t-42 99q0 58 42 100t99 42q58 0 100 -42zM531 1818q42 -42 42 -100q0 -57 -42 -99t-99 -42t-99 42t-42 99q0 58 42 100t99 42t99 -42z" unicode="¨"/>
<glyph glyph-name="copyright" d="M340 1021q-109 -121 -109 -296q0 -174 109 -295t299 -121q191 0 300 121q110 122 110 295q0 174 -110 296t-300 122q-189 0 -299 -122zM47 725q0 253 174 420q173 166 418 166q243 0 419 -167q175 -166 175 -419q0 -252 -175 -418t-419 -166q-245 0 -418 166 q-174 167 -174 418zM629 1018q154 0 235 -86q23 -23 23 -60q0 -73 -71 -73h-3q-36 0 -68 35q-45 49 -116 49q-63 0 -101.5 -45t-38.5 -119q0 -75 38.5 -120.5t101.5 -45.5q73 0 116 49q32 35 68 35q74 0 74 -74q0 -36 -23 -59q-83 -86 -235 -86q-131 0 -213 85t-82 216 q0 129 82 214t213 85z" unicode="©"/>
<glyph glyph-name="ordfeminine" d="M827 1028q0 122 -58 189t-161 67q-96 0 -149 -66.5t-53 -189.5t53 -189.5t149 -66.5q101 0 160 68t59 188zM829 1362q8 28 32.5 46.5t53.5 18.5q39 0 65 -24.5t26 -59.5v-628q0 -37 -26 -61.5t-65 -24.5q-30 0 -53.5 18.5t-32.5 46.5q-85 -80 -233 -80q-174 0 -275 116 q-100 115 -100 298q0 181 101 299q102 117 274 117q151 0 233 -82z" unicode="ª"/>
<glyph glyph-name="guillemotleft" d="M1006 68l-379 387q-39 42 -39 79q0 38 39 80l379 387q39 39 84 39q94 0 94 -94q0 -49 -41 -90l-307 -321l307 -322q41 -41 41 -90q0 -94 -94 -94q-45 0 -84 39zM535 68l-379 387q-39 42 -39 79q0 38 39 80l379 387q39 39 83 39q94 0 95 -94q0 -49 -41 -90l-307 -321 l307 -322q41 -41 41 -90q0 -94 -95 -94q-44 0 -83 39z" unicode="«"/>
<glyph glyph-name="logicalnot" d="M895 401v299h-684q-48 0 -79.5 27.5t-31.5 71.5t31.5 71t79.5 27h793q55 0 82 -26t26 -78v-392q0 -48 -31.5 -80t-77.5 -32q-45 0 -76.5 32t-31.5 80z" unicode="¬"/>
<glyph glyph-name="uni00AD" d="M317 723h639q113 0 113 -107q0 -106 -113 -106h-639q-113 0 -113 106q0 107 113 107z" unicode="­"/>
<glyph glyph-name="registered" d="M340 1021q-109 -121 -109 -296q0 -174 109 -295t299 -121q191 0 300 121q110 122 110 295q0 174 -110 296t-300 122q-189 0 -299 -122zM47 725q0 253 174 420q173 166 418 166q243 0 419 -167q175 -166 175 -419q0 -252 -175 -418t-419 -166q-245 0 -418 166 q-174 167 -174 418zM668 899h-111v-135h111q44 0 62 14.5t18 52.5t-18 53t-62 15zM483 1012h207q97 0 150 -48t53 -133q0 -125 -111 -165l92 -117q14 -18 15 -43q0 -68 -68 -68q-39 0 -59 29l-141 182h-64v-135q0 -33 -21.5 -54.5t-54.5 -21.5q-32 0 -51.5 21.5t-19.5 54.5 v428q0 30 21 50t52 20z" unicode="®"/>
<glyph glyph-name="overscore" d="M438 1823h328q45 0 75.5 -29t30.5 -74t-30.5 -73.5t-75.5 -28.5h-328q-45 0 -75.5 28.5t-30.5 73.5t30.5 74t75.5 29z" unicode="¯"/>
<glyph glyph-name="degree" d="M422 1135q0 -70 38.5 -113t104.5 -43q69 0 108.5 42.5t39.5 113.5q0 73 -39.5 116t-108.5 43q-67 0 -105 -43t-38 -116zM238 1135q0 142 91 234q91 93 236 93q146 0 239 -93t93 -234q0 -139 -93 -232q-94 -92 -239 -92q-144 0 -236 92q-91 92 -91 232z" unicode="°"/>
<glyph glyph-name="plusminus" d="M217 213h862q113 0 113 -107q0 -106 -113 -106h-862q-113 0 -113 106q0 107 113 107zM754 1272v-324h325q113 0 113 -107q0 -106 -113 -106h-325v-325q0 -113 -107 -113q-106 0 -106 113v325h-324q-113 0 -113 106q0 107 113 107h324v324q0 113 106 113q107 0 107 -113z " unicode="±"/>
<glyph glyph-name="uni00B2" d="M848 756h-406q-23 0 -38 16t-15 39v29q0 108 59 172q60 63 164 102q73 28 99 53q26 26 26 62q0 71 -86 71h-4q-89 0 -102 -79q-10 -60 -72 -62q-35 0 -54.5 19.5t-19.5 50.5q0 97 72 155q72 60 176 60q112 0 179 -56q67 -55 67 -143q0 -89 -43 -138q-44 -49 -135 -93 l-46 -21q-28 -11 -46 -20q-20 -12 -31 -19q-30 -19 -35 -55h291q31 0 51.5 -20t20.5 -52q0 -31 -20.5 -51t-51.5 -20z" unicode="²"/>
<glyph glyph-name="uni00B3" d="M721 967q0 86 -90 86h-15q-31 0 -50 18.5t-19 48.5t19.5 50t49.5 20h21q30 0 47.5 18.5t17.5 48.5q0 56 -77 58q-35 0 -59.5 -22t-30.5 -56q-12 -51 -66 -51q-33 0 -53.5 21t-20.5 57q0 74 66 127q68 53 164 53q104 0 163.5 -48t59.5 -130q0 -48 -24 -84.5t-62 -48.5 q115 -45 115 -166q0 -102 -71 -162q-70 -60 -182 -60q-110 0 -181 59q-70 60 -70 152q0 34 19 55t52 21q59 0 74 -67q18 -86 107 -86q96 0 96 88z" unicode="³"/>
<glyph glyph-name="acute" d="M803 1761l-285 -143q-19 -10 -47 -10q-43 0 -74.5 33t-31.5 81q0 61 61 95l285 143q19 10 47 10q42 0 74 -33q32 -32 32 -82q0 -61 -61 -94z" unicode="´"/>
<glyph glyph-name="mu" d="M1098 915v-806q0 -48 -32 -78.5t-83 -30.5t-83 30.5t-32 78.5v16q-40 -61 -120 -103q-78 -42 -177 -42q-70 0 -139 20v-301q0 -48 -32 -78.5t-83 -30.5t-82.5 30.5t-31.5 78.5v1216q0 48 31.5 78.5t82.5 30.5t83 -30.5t32 -78.5v-550q0 -179 176 -181q109 0 184 92 q76 92 76 238v401q0 48 32 78.5t83 30.5t83 -30.5t32 -78.5z" unicode="µ"/>
<glyph glyph-name="mu" d="M1098 915v-806q0 -48 -32 -78.5t-83 -30.5t-83 30.5t-32 78.5v16q-40 -61 -120 -103q-78 -42 -177 -42q-70 0 -139 20v-301q0 -48 -32 -78.5t-83 -30.5t-82.5 30.5t-31.5 78.5v1216q0 48 31.5 78.5t82.5 30.5t83 -30.5t32 -78.5v-550q0 -179 176 -181q109 0 184 92 q76 92 76 238v401q0 48 32 78.5t83 30.5t83 -30.5t32 -78.5z" unicode="μ"/>
<glyph glyph-name="paragraph" d="M514 1434h606q49 0 81 -28t32 -75q0 -46 -31.5 -74t-81.5 -28v-1260q0 -55 -31.5 -88t-83.5 -33q-51 0 -82.5 33t-31.5 88v1260h-148v-1260q0 -55 -31.5 -88t-82.5 -33t-83 33.5t-32 87.5v684q-168 0 -279 113q-110 113 -110 276t110 278q111 114 279 114z" unicode="¶"/>
<glyph glyph-name="middot" d="M502 481q-53 55 -53 133q0 80 53 133q52 54 133 54t133 -54q53 -53 53 -133q0 -78 -53 -133q-53 -53 -133 -53t-133 53z" unicode="·"/>
<glyph glyph-name="cedilla" d="M424 -385l82 205q27 65 89 65h3q41 0 66.5 -25.5t25.5 -64.5q0 -24 -8 -43l-82 -205q-27 -65 -89 -65h-3q-41 0 -66.5 25.5t-25.5 64.5q0 24 8 43z" unicode="¸"/>
<glyph glyph-name="uni00B9" d="M745 1366v-516q0 -94 -78 -94q-77 0 -77 94v385l-78 -51q-19 -13 -43 -15q-32 0 -51 20t-19 50q0 37 35 57l184 121q24 15 62 17q30 0 47.5 -18.5t17.5 -49.5z" unicode="¹"/>
<glyph glyph-name="ordmasculine" d="M414 1030q0 -116 60 -187q62 -69 153 -69q92 0 152 69q61 70 61 187q0 116 -61 184q-60 70 -152 70t-153 -70q-60 -69 -60 -184zM914 730q-110 -116 -287 -116q-178 0 -288 116t-110 300q0 183 110 299q109 115 288 115q178 0 287 -115q110 -116 110 -299 q0 -184 -110 -300z" unicode="º"/>
<glyph glyph-name="guillemotright" d="M643 455l-379 -387q-39 -39 -84 -39q-94 0 -94 94q0 49 41 90l307 322l-307 321q-41 41 -41 90q0 94 94 94q45 0 84 -39l379 -387q39 -42 39 -80q0 -37 -39 -79zM1114 455l-379 -387q-39 -39 -84 -39q-94 0 -94 94q0 49 41 90l307 322l-307 321q-41 41 -41 90q0 94 94 94 q45 0 84 -39l379 -387q39 -42 39 -80q0 -37 -39 -79z" unicode="»"/>
<glyph glyph-name="onequarter" d="M143 473l889 621q28 18 53 18q84 0 84 -84q0 -42 -36 -67l-889 -621q-27 -18 -54 -18q-37 0 -60.5 23t-23.5 61q0 40 37 67zM463 1366v-516q0 -94 -78 -94t-78 94v385l-78 -51q-19 -13 -43 -15q-32 0 -50.5 20t-18.5 50q0 37 35 57l184 121q24 15 61 17q31 0 48.5 -18.5 t17.5 -49.5zM764 272h98v140zM862 84v45h-215q-36 0 -58 21t-22 53q0 28 19 53l266 367q31 43 80 43q37 0 61.5 -24.5t24.5 -63.5v-306h49q70 0 70 -72q0 -71 -70 -71h-49v-45q0 -84 -78 -84t-78 84z" unicode="¼"/>
<glyph glyph-name="onehalf" d="M1155 0h-405q-23 0 -38.5 16.5t-15.5 38.5v29q0 108 59 172q60 63 165 102q73 28 99 53q25 25 25 62q0 72 -90 72q-88 0 -102 -80q-10 -60 -72 -62q-34 0 -53.5 19.5t-19.5 50.5q0 96 71 155q72 60 176 60q114 0 179 -55q67 -55 67 -144t-43 -138t-135 -93l-46 -21 q-32 -12 -45 -20q-20 -12 -31 -19q-31 -20 -36 -55h291q31 0 51.5 -19.5t20.5 -51.5q0 -31 -20.5 -51.5t-51.5 -20.5zM143 473l889 621q28 18 53 18q84 0 84 -84q0 -42 -36 -67l-889 -621q-27 -18 -54 -18q-37 0 -60.5 23t-23.5 61q0 40 37 67zM463 1366v-516q0 -94 -78 -94 t-78 94v385l-78 -51q-19 -13 -43 -15q-32 0 -50.5 20t-18.5 50q0 37 35 57l184 121q24 15 61 17q31 0 48.5 -18.5t17.5 -49.5z" unicode="½"/>
<glyph glyph-name="threequarters" d="M393 967q0 86 -90 86h-14q-31 0 -50.5 18.5t-19.5 48.5t20 50t50 20h20q30 0 48 18.5t18 48.5q0 57 -78 58q-35 0 -59.5 -22t-30.5 -56q-12 -51 -66 -51q-33 0 -53 21t-20 57q0 74 66 127q68 53 163 53q104 0 163.5 -48t59.5 -130q0 -48 -24 -84.5t-62 -48.5 q115 -45 115 -166q0 -102 -71 -162q-70 -60 -181 -60t-182 59q-70 60 -70 152q0 34 19 55t53 21q60 0 73 -67q18 -86 107 -86q96 0 96 88zM143 473l889 621q28 18 53 18q84 0 84 -84q0 -42 -36 -67l-889 -621q-27 -18 -54 -18q-37 0 -60.5 23t-23.5 61q0 40 37 67zM764 272 h98v140zM862 84v45h-215q-36 0 -58 21t-22 53q0 28 19 53l266 367q31 43 80 43q37 0 61.5 -24.5t24.5 -63.5v-306h49q70 0 70 -72q0 -71 -70 -71h-49v-45q0 -84 -78 -84t-78 84z" unicode="¾"/>
<glyph glyph-name="questiondown" d="M414 -90q0 -62 43.5 -98.5t115.5 -36.5q180 0 222 155q16 60 42 84.5t74 24.5q52 0 80.5 -31.5t28.5 -83.5q0 -141 -124 -247q-125 -107 -314 -107q-184 0 -291 89t-107 241q0 111 51 184q55 76 146 149q103 84 113 201q7 101 104 103q47 0 75.5 -33t28.5 -82 q0 -110 -36 -175q-34 -62 -125 -138q-127 -106 -127 -199zM731 971q53 -53 53 -133q0 -79 -53 -134q-53 -53 -133 -53t-133 53q-53 55 -53 134q0 80 53 133t133 53t133 -53z" unicode="¿"/>
<glyph glyph-name="Agrave" d="M698 1577l-284 143q-60 32 -62 95q0 48 32 81t75 33q28 0 47 -10l285 -143q61 -33 61 -95q0 -48 -32 -81t-75 -33q-28 0 -47 10zM780 612l-145 389l-146 -389h291zM408 391l-113 -301q-33 -90 -111 -90q-54 0 -87.5 33.5t-33.5 89.5q0 24 11 55l448 1172q38 96 113 96 t113 -96l448 -1172q10 -30 10 -55q0 -57 -33 -90t-88 -33q-79 0 -110 90l-113 301h-454z" unicode="À"/>
<glyph glyph-name="Aacute" d="M807 1720l-285 -143q-19 -10 -47 -10q-43 0 -74.5 33t-31.5 81q0 61 61 95l285 143q19 10 47 10q43 0 74.5 -33t31.5 -81q0 -62 -61 -95zM780 612l-145 389l-146 -389h291zM408 391l-113 -301q-33 -90 -111 -90q-54 0 -87.5 33.5t-33.5 89.5q0 24 11 55l448 1172 q38 96 113 96t113 -96l448 -1172q10 -30 10 -55q0 -57 -33 -90t-88 -33q-79 0 -110 90l-113 301h-454z" unicode="Á"/>
<glyph glyph-name="Acircumflex" d="M635 1722l-170 -129q-28 -20 -68 -20q-45 0 -71.5 28.5t-26.5 77.5q0 44 43 78l221 174q33 27 72 27t72 -27l221 -174q43 -34 43 -78q0 -49 -26.5 -77.5t-72.5 -28.5q-41 0 -67 20zM780 612l-145 389l-146 -389h291zM408 391l-113 -301q-33 -90 -111 -90 q-54 0 -87.5 33.5t-33.5 89.5q0 24 11 55l448 1172q38 96 113 96t113 -96l448 -1172q10 -30 10 -55q0 -57 -33 -90t-88 -33q-79 0 -110 90l-113 301h-454z" unicode="Â"/>
<glyph glyph-name="Atilde" d="M416 1638q-30 -32 -67 -32h-3q-40 0 -62 24t-22 64q0 38 29 69q49 53 90 80q38 25 102 25q60 0 152 -47t137 -47q47 0 82 38q32 33 70 33q40 0 62 -24t22 -64q0 -38 -29 -69q-49 -53 -90 -80q-38 -25 -103 -25q-60 0 -152 47t-136 47q-48 0 -82 -39zM780 612l-145 389 l-146 -389h291zM408 391l-113 -301q-33 -90 -111 -90q-54 0 -87.5 33.5t-33.5 89.5q0 24 11 55l448 1172q38 96 113 96t113 -96l448 -1172q10 -30 10 -55q0 -57 -33 -90t-88 -33q-79 0 -110 90l-113 301h-454z" unicode="Ã"/>
<glyph glyph-name="Adieresis" d="M937 1818q42 -42 42 -100q0 -57 -42 -99t-100 -42q-57 0 -99 42t-42 99q0 58 42 100t99 42q58 0 100 -42zM531 1818q42 -42 42 -100q0 -57 -42 -99t-99 -42t-99 42t-42 99q0 58 42 100t99 42t99 -42zM780 612l-145 389l-146 -389h291zM408 391l-113 -301 q-33 -90 -111 -90q-54 0 -87.5 33.5t-33.5 89.5q0 24 11 55l448 1172q38 96 113 96t113 -96l448 -1172q10 -30 10 -55q0 -57 -33 -90t-88 -33q-79 0 -110 90l-113 301h-454z" unicode="Ä"/>
<glyph glyph-name="Aring" d="M582 1822q-19 -22 -19 -51t19 -51q20 -20 53 -20q32 0 52 20t20 51t-20 51q-19 21 -52 21t-53 -21zM478 1614q-64 64 -64 157t64 157q65 65 157 65q91 0 156 -65t65 -157t-65 -157q-64 -64 -156 -64q-93 0 -157 64zM780 612l-145 389l-146 -389h291zM408 391l-113 -301 q-33 -90 -111 -90q-54 0 -87.5 33.5t-33.5 89.5q0 24 11 55l448 1172q38 96 113 96t113 -96l448 -1172q10 -30 10 -55q0 -57 -33 -90t-88 -33q-79 0 -110 90l-113 301h-454z" unicode="Å"/>
<glyph glyph-name="AE" d="M485 1212l-120 -600h145v600h-25zM371 1434h704q54 0 84.5 -29t30.5 -82t-30.5 -82t-84.5 -29h-323v-364h219q54 0 84 -29t30 -82t-30 -81.5t-84 -28.5h-219v-406h362q54 0 84.5 -29t30.5 -82t-30.5 -81.5t-84.5 -28.5h-477q-59 0 -93 34t-34 93v264h-195l-59 -278 q-26 -113 -131 -113q-51 0 -82 34t-31 91q0 28 4 43l258 1165q23 101 97 101z" unicode="Æ"/>
<glyph glyph-name="Ccedilla" d="M506 -385l82 205q27 65 89 65h3q41 0 66.5 -25.5t25.5 -64.5q0 -24 -8 -43l-82 -205q-27 -65 -89 -65h-3q-41 0 -66.5 25.5t-25.5 64.5q0 24 8 43zM696 1454q285 0 457 -172q47 -47 47 -106q0 -48 -31.5 -80.5t-76.5 -32.5q-46 0 -93 45q-125 125 -303 125 q-126 0 -211 -78t-123 -191q-36 -113 -36 -247q0 -295 159 -439q86 -77 211 -77q178 0 303 125q45 45 93 45q45 0 76.5 -32.5t31.5 -80.5q0 -59 -47 -106q-172 -172 -457 -172q-279 0 -448 193q-168 193 -168 544q0 350 169 543q170 194 447 194z" unicode="Ç"/>
<glyph glyph-name="Egrave" d="M717 1577l-285 143q-61 33 -61 95q0 48 31.5 81t74.5 33q28 0 47 -10l285 -143q61 -33 61 -95q0 -48 -31.5 -81t-74.5 -33q-28 0 -47 10zM266 1434h727q54 0 84.5 -29t30.5 -82t-30.5 -82t-84.5 -29h-612v-364h446q54 0 84.5 -29t30.5 -82t-30.5 -81.5t-84.5 -28.5h-446 v-406h651q54 0 84.5 -29t30.5 -82t-30.5 -81.5t-84.5 -28.5h-766q-59 0 -93 34t-34 93v1180q0 59 34 93t93 34z" unicode="È"/>
<glyph glyph-name="Eacute" d="M823 1720l-284 -143q-19 -10 -47 -10q-43 0 -75 33t-32 81q0 61 61 95l285 143q19 10 47 10q43 0 75 -33t32 -81q-2 -63 -62 -95zM266 1434h727q54 0 84.5 -29t30.5 -82t-30.5 -82t-84.5 -29h-612v-364h446q54 0 84.5 -29t30.5 -82t-30.5 -81.5t-84.5 -28.5h-446v-406 h651q54 0 84.5 -29t30.5 -82t-30.5 -81.5t-84.5 -28.5h-766q-59 0 -93 34t-34 93v1180q0 59 34 93t93 34z" unicode="É"/>
<glyph glyph-name="Ecircumflex" d="M635 1722l-170 -129q-28 -20 -68 -20q-45 0 -71.5 28.5t-26.5 77.5q0 44 43 78l221 174q33 27 72 27t72 -27l221 -174q43 -34 43 -78q0 -49 -26.5 -77.5t-72.5 -28.5q-41 0 -67 20zM266 1434h727q54 0 84.5 -29t30.5 -82t-30.5 -82t-84.5 -29h-612v-364h446 q54 0 84.5 -29t30.5 -82t-30.5 -81.5t-84.5 -28.5h-446v-406h651q54 0 84.5 -29t30.5 -82t-30.5 -81.5t-84.5 -28.5h-766q-59 0 -93 34t-34 93v1180q0 59 34 93t93 34z" unicode="Ê"/>
<glyph glyph-name="Edieresis" d="M1023 1818q42 -42 42 -100q0 -57 -42 -99t-100 -42q-57 0 -99 42t-42 99q0 58 42 100t99 42q58 0 100 -42zM617 1818q42 -42 42 -100q0 -57 -42 -99t-99 -42t-99 42t-42 99q0 58 42 100t99 42t99 -42zM266 1434h727q54 0 84.5 -29t30.5 -82t-30.5 -82t-84.5 -29h-612 v-364h446q54 0 84.5 -29t30.5 -82t-30.5 -81.5t-84.5 -28.5h-446v-406h651q54 0 84.5 -29t30.5 -82t-30.5 -81.5t-84.5 -28.5h-766q-59 0 -93 34t-34 93v1180q0 59 34 93t93 34z" unicode="Ë"/>
<glyph glyph-name="Igrave" d="M711 1577l-285 143q-61 33 -61 95q0 48 31.5 81t74.5 33q28 0 47 -10l285 -143q61 -33 61 -95q0 -48 -31.5 -81t-74.5 -33q-28 0 -47 10zM973 0h-721q-54 0 -84.5 28.5t-30.5 81.5t30.5 82t84.5 29h240v991h-240q-54 0 -84.5 29t-30.5 82t30.5 82t84.5 29h721 q54 0 84 -29t30 -82t-30 -82t-84 -29h-240v-991h240q54 0 84 -29t30 -82t-30 -81.5t-84 -28.5z" unicode="Ì"/>
<glyph glyph-name="Iacute" d="M813 1720l-285 -143q-19 -10 -47 -10q-43 0 -74.5 33t-31.5 81q0 61 61 95l285 143q19 10 47 10q43 0 74.5 -33t31.5 -81q0 -62 -61 -95zM973 0h-721q-54 0 -84.5 28.5t-30.5 81.5t30.5 82t84.5 29h240v991h-240q-54 0 -84.5 29t-30.5 82t30.5 82t84.5 29h721 q54 0 84 -29t30 -82t-30 -82t-84 -29h-240v-991h240q54 0 84 -29t30 -82t-30 -81.5t-84 -28.5z" unicode="Í"/>
<glyph glyph-name="Icircumflex" d="M616 1722l-170 -129q-28 -20 -67 -20q-45 0 -71.5 28.5t-26.5 77.5q0 44 43 78l221 174q33 27 71 27q39 0 72 -27l221 -174q43 -34 43 -78q0 -49 -26.5 -77.5t-71.5 -28.5q-40 0 -68 20zM973 0h-721q-54 0 -84.5 28.5t-30.5 81.5t30.5 82t84.5 29h240v991h-240 q-54 0 -84.5 29t-30.5 82t30.5 82t84.5 29h721q54 0 84 -29t30 -82t-30 -82t-84 -29h-240v-991h240q54 0 84 -29t30 -82t-30 -81.5t-84 -28.5z" unicode="Î"/>
<glyph glyph-name="Idieresis" d="M921 1818q42 -42 42 -100q0 -57 -42 -99t-100 -42q-57 0 -99 42t-42 99q0 58 42 100t99 42q58 0 100 -42zM515 1818q42 -42 42 -100q0 -57 -42 -99t-100 -42q-57 0 -99 42t-42 99q0 58 42 100t99 42q58 0 100 -42zM973 0h-721q-54 0 -84.5 28.5t-30.5 81.5t30.5 82 t84.5 29h240v991h-240q-54 0 -84.5 29t-30.5 82t30.5 82t84.5 29h721q54 0 84 -29t30 -82t-30 -82t-84 -29h-240v-991h240q54 0 84 -29t30 -82t-30 -81.5t-84 -28.5z" unicode="Ï"/>
<glyph glyph-name="Eth" d="M393 1212v-389h94q113 0 113 -107q0 -106 -113 -106h-94v-389h187q178 0 283 128q106 127 106 367q0 241 -106 368q-105 128 -283 128h-187zM104 823h48v484q0 59 33.5 93t93.5 34h311q283 0 451 -196q169 -196 169 -522q0 -325 -169 -521q-169 -195 -451 -195h-311 q-59 0 -93 34t-34 93v483h-48q-113 0 -113 106q0 107 113 107z" unicode="Ð"/>
<glyph glyph-name="Ntilde" d="M416 1638q-30 -32 -67 -32h-3q-40 0 -62 24t-22 64q0 38 29 69q49 53 90 80q38 25 102 25q60 0 152 -47t137 -47q47 0 82 38q32 33 70 33q40 0 62 -24t22 -64q0 -38 -29 -69q-49 -53 -90 -80q-38 -25 -103 -25q-60 0 -152 47t-136 47q-48 0 -82 -39zM104 121v1192 q0 53 31 87t88 34q60 0 96 -54l605 -864v797q0 53 33.5 87t86.5 34q54 0 87.5 -34t33.5 -87v-1192q0 -54 -30.5 -87.5t-88.5 -33.5t-96 53l-604 860v-792q0 -53 -33.5 -87t-87.5 -34q-53 0 -87 34t-34 87z" unicode="Ñ"/>
<glyph glyph-name="Ograve" d="M756 1577l-285 143q-61 33 -61 95q0 48 31.5 81t74.5 33q28 0 47 -10l285 -143q61 -33 61 -95q0 -48 -31.5 -81t-74.5 -33q-28 0 -47 10zM884 344q85 142 85 372q0 231 -85 373q-86 144 -249 144t-249 -144q-85 -142 -85 -373q0 -230 85 -372q86 -143 249 -143t249 143z M1062 1248q152 -206 152 -532q0 -325 -152 -531q-151 -205 -428 -205t-428 205t-151 531q0 327 151 532q152 206 428 206t428 -206z" unicode="Ò"/>
<glyph glyph-name="Oacute" d="M805 1720l-285 -143q-19 -10 -47 -10q-43 0 -74.5 33t-31.5 81q0 61 61 95l285 143q19 10 47 10q43 0 74.5 -33t31.5 -81q0 -62 -61 -95zM884 344q85 142 85 372q0 231 -85 373q-86 144 -249 144t-249 -144q-85 -142 -85 -373q0 -230 85 -372q86 -143 249 -143t249 143z M1062 1248q152 -206 152 -532q0 -325 -152 -531q-151 -205 -428 -205t-428 205t-151 531q0 327 151 532q152 206 428 206t428 -206z" unicode="Ó"/>
<glyph glyph-name="Ocircumflex" d="M635 1722l-170 -129q-28 -20 -68 -20q-45 0 -71.5 28.5t-26.5 77.5q0 44 43 78l221 174q33 27 72 27t72 -27l221 -174q43 -34 43 -78q0 -49 -26.5 -77.5t-72.5 -28.5q-41 0 -67 20zM884 344q85 142 85 372q0 231 -85 373q-86 144 -249 144t-249 -144q-85 -142 -85 -373 q0 -230 85 -372q86 -143 249 -143t249 143zM1062 1248q152 -206 152 -532q0 -325 -152 -531q-151 -205 -428 -205t-428 205t-151 531q0 327 151 532q152 206 428 206t428 -206z" unicode="Ô"/>
<glyph glyph-name="Otilde" d="M416 1638q-30 -32 -67 -32h-3q-40 0 -62 24t-22 64q0 38 29 69q49 53 90 80q38 25 102 25q60 0 152 -47t137 -47q47 0 82 38q32 33 70 33q40 0 62 -24t22 -64q0 -38 -29 -69q-49 -53 -90 -80q-38 -25 -103 -25q-60 0 -152 47t-136 47q-48 0 -82 -39zM884 344 q85 142 85 372q0 231 -85 373q-86 144 -249 144t-249 -144q-85 -142 -85 -373q0 -230 85 -372q86 -143 249 -143t249 143zM1062 1248q152 -206 152 -532q0 -325 -152 -531q-151 -205 -428 -205t-428 205t-151 531q0 327 151 532q152 206 428 206t428 -206z" unicode="Õ"/>
<glyph glyph-name="Odieresis" d="M937 1818q42 -42 42 -100q0 -57 -42 -99t-100 -42q-57 0 -99 42t-42 99q0 58 42 100t99 42q58 0 100 -42zM531 1818q42 -42 42 -100q0 -57 -42 -99t-99 -42t-99 42t-42 99q0 58 42 100t99 42t99 -42zM884 344q85 142 85 372q0 231 -85 373q-86 144 -249 144t-249 -144 q-85 -142 -85 -373q0 -230 85 -372q86 -143 249 -143t249 143zM1062 1248q152 -206 152 -532q0 -325 -152 -531q-151 -205 -428 -205t-428 205t-151 531q0 327 151 532q152 206 428 206t428 -206z" unicode="Ö"/>
<glyph glyph-name="multiply" d="M498 616l-230 230q-41 41 -41 82q0 38 35 73t74 35q43 0 82 -39l231 -229l232 229q39 39 82 39q38 0 73 -35t35 -73q0 -41 -41 -82l-229 -230l229 -229q41 -41 41 -82q0 -39 -35 -74q-34 -34 -73 -34q-43 0 -82 39l-232 229l-231 -229q-39 -39 -82 -39q-40 0 -74 34 q-35 35 -35 74q0 41 41 82z" unicode="×"/>
<glyph glyph-name="Oslash" d="M301 717q0 -127 27 -225l508 659q-82 82 -201 82q-163 0 -249 -144q-85 -142 -85 -372zM969 717q0 127 -27 225l-508 -659q82 -82 201 -82q163 0 249 143q85 143 85 373zM248 41q-32 -41 -84 -41q-48 0 -78.5 29.5t-30.5 74.5q0 35 23 64l78 100q-99 186 -101 449 q0 326 151 531q152 206 429 206q204 0 346 -119l41 58q32 41 84 41q48 0 78 -29.5t30 -75.5q0 -35 -22 -63l-78 -101q100 -187 100 -448q0 -326 -152 -532q-151 -205 -427 -205q-206 0 -346 118z" unicode="Ø"/>
<glyph glyph-name="Ugrave" d="M731 1577l-285 143q-61 33 -61 95q0 48 32 81t75 33q28 0 47 -10l284 -143q60 -32 62 -95q0 -48 -32 -81t-75 -33q-28 0 -47 10zM1184 1313v-766q0 -259 -132 -414q-132 -153 -403 -153q-270 0 -402 153q-132 155 -132 414v766q0 53 33.5 87t86.5 34q54 0 87.5 -34 t33.5 -87v-774q0 -161 81 -250q81 -88 212 -88t212 88q81 89 81 250v774q0 53 34 87t87 34t87 -34t34 -87z" unicode="Ù"/>
<glyph glyph-name="Uacute" d="M831 1720l-284 -143q-19 -10 -47 -10q-43 0 -75 33t-32 81q0 60 62 95l284 143q19 10 47 10q43 0 75 -33t32 -81q-2 -63 -62 -95zM1184 1313v-766q0 -259 -132 -414q-132 -153 -403 -153q-270 0 -402 153q-132 155 -132 414v766q0 53 33.5 87t86.5 34q54 0 87.5 -34 t33.5 -87v-774q0 -161 81 -250q81 -88 212 -88t212 88q81 89 81 250v774q0 53 34 87t87 34t87 -34t34 -87z" unicode="Ú"/>
<glyph glyph-name="Ucircumflex" d="M649 1722l-170 -129q-28 -20 -67 -20q-45 0 -72 28.5t-27 77.5q0 44 43 78l222 174q33 27 72 27q38 0 71 -27l221 -174q43 -34 43 -78q0 -49 -26.5 -77.5t-71.5 -28.5q-40 0 -68 20zM1184 1313v-766q0 -259 -132 -414q-132 -153 -403 -153q-270 0 -402 153 q-132 155 -132 414v766q0 53 33.5 87t86.5 34q54 0 87.5 -34t33.5 -87v-774q0 -161 81 -250q81 -88 212 -88t212 88q81 89 81 250v774q0 53 34 87t87 34t87 -34t34 -87z" unicode="Û"/>
<glyph glyph-name="Udieresis" d="M951 1818q42 -42 42 -100q0 -57 -42 -99t-99 -42t-99 42t-42 99q0 58 42 100t99 42t99 -42zM546 1818q42 -42 42 -100q0 -57 -42 -99t-100 -42q-57 0 -99 42t-42 99q0 58 42 100t99 42q58 0 100 -42zM1184 1313v-766q0 -259 -132 -414q-132 -153 -403 -153 q-270 0 -402 153q-132 155 -132 414v766q0 53 33.5 87t86.5 34q54 0 87.5 -34t33.5 -87v-774q0 -161 81 -250q81 -88 212 -88t212 88q81 89 81 250v774q0 53 34 87t87 34t87 -34t34 -87z" unicode="Ü"/>
<glyph glyph-name="Yacute" d="M805 1720l-285 -143q-19 -10 -47 -10q-43 0 -74.5 33t-31.5 81q0 61 61 95l285 143q19 10 47 10q43 0 74.5 -33t31.5 -81q0 -62 -61 -95zM514 121v491l-416 637q-20 34 -20 66q0 50 37 84q38 35 92 35q75 0 112 -66l316 -504l315 504q39 66 113 66q54 0 92 -35 q37 -34 37 -84q0 -33 -21 -66l-415 -637v-491q0 -53 -34 -87t-87 -34t-87 34t-34 87z" unicode="Ý"/>
<glyph glyph-name="Thorn" d="M702 948h-296v-463h296q264 0 264 231q0 232 -264 232zM164 121v1192q0 53 33.5 87t86.5 34q54 0 88 -34t34 -87v-144h282q255 0 387.5 -115t132.5 -337t-132.5 -337.5t-387.5 -115.5h-282v-143q0 -53 -34 -87t-88 -34q-53 0 -86.5 34t-33.5 87z" unicode="Þ"/>
<glyph glyph-name="germandbls" d="M698 0h-32q-51 0 -80 27.5t-29 74.5q0 48 28.5 75.5t80.5 27.5h18q136 0 201 55.5t65 175.5q0 108 -64 163.5t-177 55.5h-47q-51 0 -80 28t-29 75q0 48 29 75t80 27h18q96 0 140 51.5t44 155.5q0 89 -48.5 135.5t-135.5 46.5q-83 0 -132.5 -56.5t-49.5 -164.5v-926 q0 -46 -33 -74t-82 -28t-82 28t-33 74v717h-90q-51 0 -79.5 27.5t-28.5 74.5q0 48 28.5 75.5t79.5 27.5h90q0 204 117 316q117 114 287 114q203 0 312.5 -98t109.5 -289q0 -166 -133 -272q219 -104 219 -359q0 -221 -132 -329q-131 -107 -350 -107z" unicode="ß"/>
<glyph glyph-name="agrave" d="M705 1188l-285 143q-60 32 -62 94q0 48 32 81.5t75 33.5q28 0 47 -10l285 -144q61 -33 61 -94q0 -48 -31.5 -81t-74.5 -33q-28 0 -47 10zM598 840q-123 0 -197 -86q-73 -85 -73 -242t73 -242q74 -86 197 -86q128 0 205 86q76 85 76 242t-76 242q-77 86 -205 86zM879 940 q10 36 41.5 60t72.5 24q51 0 83 -30.5t32 -78.5v-806q0 -48 -32 -78.5t-83 -30.5q-41 0 -72.5 24t-41.5 60q-110 -104 -295 -104q-223 0 -357 149q-133 149 -133 383t133 382q133 150 357 150q185 0 295 -104z" unicode="à"/>
<glyph glyph-name="aacute" d="M778 1331l-284 -143q-19 -10 -48 -10q-43 0 -74.5 33t-31.5 81q0 61 61 94l285 144q19 10 47 10q43 0 75 -33q32 -32 32 -82q-2 -62 -62 -94zM598 840q-123 0 -197 -86q-73 -85 -73 -242t73 -242q74 -86 197 -86q128 0 205 86q76 85 76 242t-76 242q-77 86 -205 86z M879 940q10 36 41.5 60t72.5 24q51 0 83 -30.5t32 -78.5v-806q0 -48 -32 -78.5t-83 -30.5q-41 0 -72.5 24t-41.5 60q-110 -104 -295 -104q-223 0 -357 149q-133 149 -133 383t133 382q133 150 357 150q185 0 295 -104z" unicode="á"/>
<glyph glyph-name="acircumflex" d="M614 1313l-170 -129q-27 -20 -67 -21q-45 0 -71.5 29t-26.5 78q0 44 43 78l221 174q33 27 71 27q39 0 72 -27l221 -174q43 -34 43 -78q0 -49 -26.5 -78t-71.5 -29q-41 0 -68 21zM598 840q-123 0 -197 -86q-73 -85 -73 -242t73 -242q74 -86 197 -86q128 0 205 86 q76 85 76 242t-76 242q-77 86 -205 86zM879 940q10 36 41.5 60t72.5 24q51 0 83 -30.5t32 -78.5v-806q0 -48 -32 -78.5t-83 -30.5q-41 0 -72.5 24t-41.5 60q-110 -104 -295 -104q-223 0 -357 149q-133 149 -133 383t133 382q133 150 357 150q185 0 295 -104z" unicode="â"/>
<glyph glyph-name="atilde" d="M391 1229q-31 -33 -69 -33h-7q-35 0 -56 25.5t-21 60.5q0 41 28 72q50 54 90 79q38 25 103 25q60 0 152 -47t137 -47q46 0 81 39q31 33 70 33h6q35 0 56.5 -25t21.5 -60q0 -41 -29 -73q-49 -53 -90 -80q-39 -24 -102 -24q-61 0 -153 47t-136 47q-47 0 -82 -39zM598 840 q-123 0 -197 -86q-73 -85 -73 -242t73 -242q74 -86 197 -86q128 0 205 86q76 85 76 242t-76 242q-77 86 -205 86zM879 940q10 36 41.5 60t72.5 24q51 0 83 -30.5t32 -78.5v-806q0 -48 -32 -78.5t-83 -30.5q-41 0 -72.5 24t-41.5 60q-110 -104 -295 -104q-223 0 -357 149 q-133 149 -133 383t133 382q133 150 357 150q185 0 295 -104z" unicode="ã"/>
<glyph glyph-name="adieresis" d="M916 1412q42 -42 42 -100q0 -57 -42 -99t-99 -42t-99 42t-42 99q0 58 42 100t99 42t99 -42zM511 1412q42 -42 42 -100q0 -57 -42 -99t-100 -42q-57 0 -99 42t-42 99q0 58 42 100t99 42q58 0 100 -42zM598 840q-123 0 -197 -86q-73 -85 -73 -242t73 -242q74 -86 197 -86 q128 0 205 86q76 85 76 242t-76 242q-77 86 -205 86zM879 940q10 36 41.5 60t72.5 24q51 0 83 -30.5t32 -78.5v-806q0 -48 -32 -78.5t-83 -30.5q-41 0 -72.5 24t-41.5 60q-110 -104 -295 -104q-223 0 -357 149q-133 149 -133 383t133 382q133 150 357 150q185 0 295 -104z " unicode="ä"/>
<glyph glyph-name="aring" d="M547 1454q-19 -22 -19 -51q0 -30 19 -52q20 -20 53 -20q32 0 52 20t20 52q0 31 -20 51q-20 21 -52 21q-34 0 -53 -21zM443 1246q-64 64 -64 157q0 92 64 156q65 65 157 65q91 0 156 -65t65 -156q0 -92 -65 -157q-64 -64 -156 -64q-93 0 -157 64zM598 840q-123 0 -197 -86 q-73 -85 -73 -242t73 -242q74 -86 197 -86q128 0 205 86q76 85 76 242t-76 242q-77 86 -205 86zM879 940q10 36 41.5 60t72.5 24q51 0 83 -30.5t32 -78.5v-806q0 -48 -32 -78.5t-83 -30.5q-41 0 -72.5 24t-41.5 60q-110 -104 -295 -104q-223 0 -357 149q-133 149 -133 383 t133 382q133 150 357 150q185 0 295 -104z" unicode="å"/>
<glyph glyph-name="ae" d="M494 338v80q-107 0 -159 -31.5t-52 -107.5q0 -48 25 -76.5t67 -28.5q119 0 119 164zM715 623h280q-12 238 -143 238t-137 -238zM852 1044q365 0 365 -483q0 -66 -33.5 -104.5t-83.5 -38.5h-385v-64q0 -90 40.5 -135t108.5 -45q92 0 150 94q32 51 84 51q45 0 72.5 -27.5 t27.5 -72.5q0 -35 -24 -76q-100 -163 -320 -163h-4q-72 0 -142 30q-69 31 -106 76q-78 -106 -252 -106q-132 0 -214 78q-83 80 -83 221q0 164 121 254q122 90 320 90v69q0 168 -117 168q-52 0 -82.5 -22t-48.5 -76q-22 -70 -92 -70q-42 0 -68.5 25t-26.5 67q0 24 7 41 q33 104 114 161q82 58 187 58q176 0 251 -102q92 102 234 102z" unicode="æ"/>
<glyph glyph-name="ccedilla" d="M506 -385l82 205q27 65 89 65h3q41 0 66.5 -25.5t25.5 -64.5q0 -24 -8 -43l-82 -205q-27 -65 -89 -65h-3q-41 0 -66.5 25.5t-25.5 64.5q0 24 8 43zM883 297q46 55 104 55q49 0 81 -31t32 -81q0 -53 -43 -99q-146 -161 -403 -161h-5q-229 0 -374 148q-144 148 -144 384 t144 384q145 148 374 148q259 0 408 -161q43 -44 43 -99q0 -50 -32 -81t-81 -31q-58 0 -104 55q-98 113 -234 113q-120 0 -203 -86q-81 -86 -81 -242t81 -242q83 -86 203 -86q136 0 234 113z" unicode="ç"/>
<glyph glyph-name="egrave" d="M758 1188l-285 143q-61 33 -61 94q0 48 31.5 81.5t74.5 33.5q28 0 47 -10l285 -144q61 -33 61 -94q0 -48 -31.5 -81t-74.5 -33q-28 0 -47 10zM369 623h557q-19 96 -95 156q-74 61 -182 61q-105 0 -181 -57q-76 -55 -99 -160zM127 512q0 234 145 382q146 150 377 150 q227 0 366 -145q140 -146 140 -356q0 -60 -30 -92.5t-81 -32.5h-675q13 -105 96 -170q82 -64 197 -64q172 0 274 109q41 41 88 41q50 0 77 -29t27 -78q0 -51 -43 -94q-146 -153 -430 -153h-6q-240 0 -381 148t-141 384z" unicode="è"/>
<glyph glyph-name="eacute" d="M823 1331l-284 -143q-19 -10 -47 -10q-43 0 -75 33t-32 81q0 61 61 94l285 144q19 10 47 10q44 0 75 -33q32 -32 32 -82q-2 -62 -62 -94zM369 623h557q-19 96 -95 156q-74 61 -182 61q-105 0 -181 -57q-76 -55 -99 -160zM127 512q0 234 145 382q146 150 377 150 q227 0 366 -145q140 -146 140 -356q0 -60 -30 -92.5t-81 -32.5h-675q13 -105 96 -170q82 -64 197 -64q172 0 274 109q41 41 88 41q50 0 77 -29t27 -78q0 -51 -43 -94q-146 -153 -430 -153h-6q-240 0 -381 148t-141 384z" unicode="é"/>
<glyph glyph-name="ecircumflex" d="M635 1313l-170 -129q-27 -19 -68 -21q-45 0 -71.5 29t-26.5 78q0 44 43 78l221 174q33 27 71 27q40 0 73 -27l221 -174q43 -34 43 -78q0 -49 -26.5 -78t-72.5 -29q-42 0 -67 21zM369 623h557q-19 96 -95 156q-74 61 -182 61q-105 0 -181 -57q-76 -55 -99 -160zM127 512 q0 234 145 382q146 150 377 150q227 0 366 -145q140 -146 140 -356q0 -60 -30 -92.5t-81 -32.5h-675q13 -105 96 -170q82 -64 197 -64q172 0 274 109q41 41 88 41q50 0 77 -29t27 -78q0 -51 -43 -94q-146 -153 -430 -153h-6q-240 0 -381 148t-141 384z" unicode="ê"/>
<glyph glyph-name="edieresis" d="M951 1412q42 -42 42 -100q0 -57 -42 -99t-99 -42t-99 42t-42 99q0 58 42 100t99 42t99 -42zM546 1412q42 -42 42 -100q0 -57 -42 -99t-100 -42q-57 0 -99 42t-42 99q0 58 42 100t99 42q58 0 100 -42zM369 623h557q-19 96 -95 156q-74 61 -182 61q-105 0 -181 -57 q-76 -55 -99 -160zM127 512q0 234 145 382q146 150 377 150q227 0 366 -145q140 -146 140 -356q0 -60 -30 -92.5t-81 -32.5h-675q13 -105 96 -170q82 -64 197 -64q172 0 274 109q41 41 88 41q50 0 77 -29t27 -78q0 -51 -43 -94q-146 -153 -430 -153h-6q-240 0 -381 148 t-141 384z" unicode="ë"/>
<glyph glyph-name="igrave" d="M702 1188l-284 143q-60 32 -62 94q0 48 32 81.5t75 33.5q28 0 47 -10l285 -144q61 -33 61 -94q0 -48 -31.5 -81t-74.5 -33q-29 0 -48 10zM285 205h286v614h-225q-51 0 -79.5 27.5t-28.5 74.5q0 48 28.5 75.5t79.5 27.5h332q64 0 93.5 -29t29.5 -94v-696h286 q51 0 80 -27.5t29 -75.5t-29 -75t-80 -27h-802q-51 0 -80 27.5t-29 74.5q0 48 29 75.5t80 27.5z" unicode="ì"/>
<glyph glyph-name="iacute" d="M823 1331l-284 -143q-19 -10 -47 -10q-43 0 -75 33t-32 81q0 61 61 94l285 144q19 10 47 10q44 0 75 -33q32 -32 32 -82q-2 -62 -62 -94zM285 205h286v614h-225q-51 0 -79.5 27.5t-28.5 74.5q0 48 28.5 75.5t79.5 27.5h332q64 0 93.5 -29t29.5 -94v-696h286 q51 0 80 -27.5t29 -75.5t-29 -75t-80 -27h-802q-51 0 -80 27.5t-29 74.5q0 48 29 75.5t80 27.5z" unicode="í"/>
<glyph glyph-name="icircumflex" d="M635 1313l-170 -129q-27 -19 -68 -21q-45 0 -71.5 29t-26.5 78q0 44 43 78l221 174q33 27 71 27q40 0 73 -27l221 -174q43 -34 43 -78q0 -49 -26.5 -78t-72.5 -29q-42 0 -67 21zM285 205h286v614h-225q-51 0 -79.5 27.5t-28.5 74.5q0 48 28.5 75.5t79.5 27.5h332 q64 0 93.5 -29t29.5 -94v-696h286q51 0 80 -27.5t29 -75.5t-29 -75t-80 -27h-802q-51 0 -80 27.5t-29 74.5q0 48 29 75.5t80 27.5z" unicode="î"/>
<glyph glyph-name="idieresis" d="M943 1412q42 -42 42 -100q0 -57 -42 -99t-100 -42q-57 0 -99 42t-42 99q0 58 42 100t99 42q58 0 100 -42zM538 1412q42 -42 42 -100q0 -57 -42 -99t-100 -42q-57 0 -99 42t-42 99q0 58 42 100t99 42q58 0 100 -42zM285 205h286v614h-225q-51 0 -79.5 27.5t-28.5 74.5 q0 48 28.5 75.5t79.5 27.5h332q64 0 93.5 -29t29.5 -94v-696h286q51 0 80 -27.5t29 -75.5t-29 -75t-80 -27h-802q-51 0 -80 27.5t-29 74.5q0 48 29 75.5t80 27.5z" unicode="ï"/>
<glyph glyph-name="eth" d="M439 751q-77 -89 -77 -239t77 -239t194 -89q116 0 193 89t77 239t-77 239t-193 89q-117 0 -194 -89zM426 1270l96 22l-16 4q-78 33 -78 105q0 43 29.5 73.5t72.5 30.5q36 0 66 -14q129 -57 223 -139l129 26q17 4 33 4q43 0 67.5 -25.5t24.5 -68.5q0 -72 -88 -90l-27 -6 q177 -258 179 -623v-57q0 -238 -138 -385q-137 -147 -366 -147q-227 0 -366 147q-138 147 -138 385t138 385q139 147 366 147q95 0 180 -36q-37 79 -86 137l-264 -55q-11 -3 -33 -5q-42 0 -67 25.5t-25 69.5q0 72 88 90z" unicode="ð"/>
<glyph glyph-name="ntilde" d="M416 1229q-31 -33 -70 -33h-7q-35 0 -56 25t-21 60q0 41 29 73q50 54 90 79q38 25 102 25q60 0 152 -47t137 -47q48 0 82 39q32 33 70 33h6q35 0 56.5 -25t21.5 -60q0 -41 -29 -73q-49 -53 -90 -80q-39 -24 -103 -24q-60 0 -152 47t-136 47q-48 0 -82 -39zM203 109v806 q0 48 31.5 78.5t82.5 30.5t83 -30.5t32 -78.5v-16q40 61 120 103t177 42q173 0 270 -94q99 -94 99 -270v-571q0 -48 -32 -78.5t-83 -30.5t-83 30.5t-32 78.5v540q0 189 -176 191q-108 0 -185 -93q-75 -91 -75 -237v-401q0 -48 -32 -78.5t-83 -30.5t-82.5 30.5t-31.5 78.5z " unicode="ñ"/>
<glyph glyph-name="ograve" d="M731 1188l-285 143q-61 33 -61 94q0 48 32 81.5t75 33.5q28 0 47 -10l284 -144q60 -32 62 -94q0 -48 -32 -81t-75 -33q-28 0 -47 10zM437 751q-79 -88 -79 -239t79 -239q80 -89 196 -89q117 0 195 89q79 88 79 239t-79 239q-78 89 -195 89q-116 0 -196 -89zM1000 127 q-140 -147 -367 -147t-368 147q-140 148 -140 385t140 385q141 147 368 147t367 -147q141 -147 141 -385t-141 -385z" unicode="ò"/>
<glyph glyph-name="oacute" d="M823 1331l-284 -143q-19 -10 -47 -10q-43 0 -75 33t-32 81q0 61 61 94l285 144q19 10 47 10q44 0 75 -33q32 -32 32 -82q-2 -62 -62 -94zM437 751q-79 -88 -79 -239t79 -239q80 -89 196 -89q117 0 195 89q79 88 79 239t-79 239q-78 89 -195 89q-116 0 -196 -89zM1000 127 q-140 -147 -367 -147t-368 147q-140 148 -140 385t140 385q141 147 368 147t367 -147q141 -147 141 -385t-141 -385z" unicode="ó"/>
<glyph glyph-name="ocircumflex" d="M635 1313l-170 -129q-27 -19 -68 -21q-45 0 -71.5 29t-26.5 78q0 44 43 78l221 174q33 27 71 27q40 0 73 -27l221 -174q43 -34 43 -78q0 -49 -26.5 -78t-72.5 -29q-42 0 -67 21zM437 751q-79 -88 -79 -239t79 -239q80 -89 196 -89q117 0 195 89q79 88 79 239t-79 239 q-78 89 -195 89q-116 0 -196 -89zM1000 127q-140 -147 -367 -147t-368 147q-140 148 -140 385t140 385q141 147 368 147t367 -147q141 -147 141 -385t-141 -385z" unicode="ô"/>
<glyph glyph-name="otilde" d="M410 1229q-32 -33 -70 -33h-7q-35 0 -56 25t-21 60q0 41 29 73q50 54 90 79q38 25 102 25q60 0 152 -47t137 -47q48 0 82 39q32 33 70 33h6q35 0 56 -25t21 -60q0 -41 -28 -73q-49 -53 -90 -80q-39 -24 -103 -24q-60 0 -152 47t-136 47q-48 0 -82 -39zM437 751 q-79 -88 -79 -239t79 -239q80 -89 196 -89q117 0 195 89q79 88 79 239t-79 239q-78 89 -195 89q-116 0 -196 -89zM1000 127q-140 -147 -367 -147t-368 147q-140 148 -140 385t140 385q141 147 368 147t367 -147q141 -147 141 -385t-141 -385z" unicode="õ"/>
<glyph glyph-name="odieresis" d="M935 1412q42 -42 42 -100q0 -57 -42 -99t-100 -42q-57 0 -99 42t-42 99q0 58 42 100t99 42q58 0 100 -42zM529 1412q42 -42 42 -100q0 -57 -42 -99t-99 -42t-99 42t-42 99q0 58 42 100t99 42t99 -42zM437 751q-79 -88 -79 -239t79 -239q80 -89 196 -89q117 0 195 89 q79 88 79 239t-79 239q-78 89 -195 89q-116 0 -196 -89zM1000 127q-140 -147 -367 -147t-368 147q-140 148 -140 385t140 385q141 147 368 147t367 -147q141 -147 141 -385t-141 -385z" unicode="ö"/>
<glyph glyph-name="divide" d="M205 723h862q113 0 113 -107q0 -106 -113 -106h-862q-113 0 -113 106q0 107 113 107zM504 872q-53 55 -53 133q0 80 53 133q52 54 133 54t133 -54q53 -53 53 -133q0 -78 -53 -133q-53 -53 -133 -53t-133 53zM504 94q-53 53 -53 133t53 133q52 54 133 54t133 -54 q53 -53 53 -133t-53 -133t-133 -53t-133 53z" unicode="÷"/>
<glyph glyph-name="oslash" d="M358 512q0 -78 27 -147l350 454q-51 19 -102 21q-116 0 -196 -89q-79 -88 -79 -239zM907 512q0 77 -26 147l-351 -454q51 -20 103 -21q117 0 195 89q79 88 79 239zM387 20q-31 -40 -81 -40h-3q-48 0 -78 29.5t-30 74.5q0 35 22 63l14 19q-106 140 -106 346q0 237 140 385 q141 147 368 147q129 0 237 -53l9 13q31 40 81 40h3q48 0 78 -29.5t30 -74.5q0 -35 -22 -63l-15 -19q105 -140 107 -346q0 -237 -140 -385q-139 -147 -368 -147q-130 0 -238 53z" unicode="ø"/>
<glyph glyph-name="ugrave" d="M731 1188l-285 143q-61 33 -61 94q0 48 32 81.5t75 33.5q28 0 47 -10l284 -144q60 -32 62 -94q0 -48 -32 -81t-75 -33q-28 0 -47 10zM1098 915v-806q0 -48 -32 -78.5t-83 -30.5t-83 30.5t-32 78.5v16q-40 -61 -120 -103q-78 -42 -177 -42q-173 0 -270 94q-98 95 -98 270 v571q0 48 31.5 78.5t82.5 30.5t83 -30.5t32 -78.5v-540q0 -189 176 -191q112 0 185 88q75 88 75 242v401q0 48 32 78.5t83 30.5t83 -30.5t32 -78.5z" unicode="ù"/>
<glyph glyph-name="uacute" d="M840 1331l-285 -143q-19 -10 -47 -10q-43 0 -75 33t-32 81q0 61 62 94l285 144q19 10 47 10q43 0 74 -33q32 -32 32 -82q0 -61 -61 -94zM1098 915v-806q0 -48 -32 -78.5t-83 -30.5t-83 30.5t-32 78.5v16q-40 -61 -120 -103q-78 -42 -177 -42q-173 0 -270 94 q-98 95 -98 270v571q0 48 31.5 78.5t82.5 30.5t83 -30.5t32 -78.5v-540q0 -189 176 -191q112 0 185 88q75 88 75 242v401q0 48 32 78.5t83 30.5t83 -30.5t32 -78.5z" unicode="ú"/>
<glyph glyph-name="ucircumflex" d="M635 1313l-170 -129q-27 -19 -68 -21q-45 0 -71.5 29t-26.5 78q0 44 43 78l221 174q33 27 71 27q40 0 73 -27l221 -174q43 -34 43 -78q0 -49 -26.5 -78t-72.5 -29q-42 0 -67 21zM1098 915v-806q0 -48 -32 -78.5t-83 -30.5t-83 30.5t-32 78.5v16q-40 -61 -120 -103 q-78 -42 -177 -42q-173 0 -270 94q-98 95 -98 270v571q0 48 31.5 78.5t82.5 30.5t83 -30.5t32 -78.5v-540q0 -189 176 -191q112 0 185 88q75 88 75 242v401q0 48 32 78.5t83 30.5t83 -30.5t32 -78.5z" unicode="û"/>
<glyph glyph-name="udieresis" d="M951 1412q42 -42 42 -100q0 -57 -42 -99t-99 -42t-99 42t-42 99q0 58 42 100t99 42t99 -42zM546 1412q42 -42 42 -100q0 -57 -42 -99t-100 -42q-57 0 -99 42t-42 99q0 58 42 100t99 42q58 0 100 -42zM1098 915v-806q0 -48 -32 -78.5t-83 -30.5t-83 30.5t-32 78.5v16 q-40 -61 -120 -103q-78 -42 -177 -42q-173 0 -270 94q-98 95 -98 270v571q0 48 31.5 78.5t82.5 30.5t83 -30.5t32 -78.5v-540q0 -189 176 -191q112 0 185 88q75 88 75 242v401q0 48 32 78.5t83 30.5t83 -30.5t32 -78.5z" unicode="ü"/>
<glyph glyph-name="yacute" d="M821 1331l-284 -143q-19 -10 -48 -10q-43 0 -74.5 33t-31.5 81q0 61 61 94l285 144q19 10 47 10q44 0 75 -33q32 -32 32 -82q-2 -62 -62 -94zM285 -430q-101 0 -155 37.5t-54 97.5q0 94 94 94q24 0 55 -12q33 -12 64 -12q66 0 110 44q45 44 95 161l22 53l-366 829 q-11 26 -13 51q0 49 33 80t86 31q74 0 106 -74l279 -637l277 635q33 76 108 76q51 0 83 -30.5t32 -80.5q0 -26 -13 -55l-387 -858q-117 -256 -204 -343q-85 -87 -252 -87z" unicode="ý"/>
<glyph glyph-name="thorn" d="M491 754q-69 -85 -69 -242q0 -156 69 -242q71 -86 193 -86q123 0 190 85q68 86 68 243t-68 243q-67 85 -190 85q-122 0 -193 -86zM193 -301v1626q0 48 31.5 78.5t82.5 30.5t83 -30.5t32 -78.5v-373q110 92 276 92q222 0 349 -148q129 -148 129 -384q0 -235 -128 -384 q-127 -148 -350 -148q-163 0 -276 94v-375q0 -48 -32 -78.5t-83 -30.5t-82.5 30.5t-31.5 78.5z" unicode="þ"/>
<glyph glyph-name="OE" d="M586 221v991q-287 -44 -287 -496q0 -451 287 -495zM625 1434h491q54 0 84.5 -29t30.5 -82t-30.5 -82t-84.5 -29h-289v-364h181q54 0 84 -29t30 -82t-30 -81.5t-84 -28.5h-181v-406h308q54 0 84 -29t30 -82t-30 -81.5t-84 -28.5h-510q-272 0 -422 194q-150 195 -150 522 q0 328 150 523t422 195z" unicode="Œ"/>
<glyph glyph-name="oe" d="M920 623q-13 67 -58 124t-102 76v-200h160zM547 201v622q-80 -27 -128 -111q-48 -82 -48 -200q0 -116 47.5 -199.5t128.5 -111.5zM655 -20q-229 0 -374 148q-144 148 -144 384t144 384q145 148 374 148q223 -1 358 -146q136 -143 136 -355q0 -59 -30.5 -92t-80.5 -33 h-278v-230q87 11 174 107q33 35 76 35q51 0 80.5 -30t29.5 -81q0 -47 -39 -86q-147 -153 -426 -153z" unicode="œ"/>
<glyph glyph-name="Scaron" d="M455 1933l170 -129l170 129q27 20 67 21q45 0 72 -29t27 -78q0 -44 -43 -78l-222 -174q-33 -27 -71 -27q-39 0 -72 27l-221 174q-43 34 -43 78q0 49 26.5 78t71.5 29q41 -2 68 -21zM92 225q-31 44 -31 88q0 54 34.5 88.5t90.5 34.5q66 0 103 -51q66 -96 146 -140 q82 -44 210 -44q131 0 207 54t76 142q0 81 -61 130q-61 52 -150 71q-68 15 -196 49q-101 27 -195 65q-89 36 -151 119q-60 84 -60 211q0 198 147 305q149 107 361 107q336 0 467 -221q25 -43 24 -80q0 -59 -32 -91t-89 -32q-63 0 -102 64q-88 139 -268 139 q-125 0 -196 -47.5t-71 -138.5q0 -77 84 -124q80 -45 203 -74q128 -31 238 -67q119 -39 204 -131q84 -91 84 -237q0 -210 -151 -322q-149 -112 -373 -112h-5q-383 0 -548 245z" unicode="Š"/>
<glyph glyph-name="scaron" d="M485 1528l170 -129l170 129q28 20 68 20q45 0 71.5 -28.5t26.5 -77.5q0 -44 -43 -78l-221 -174q-33 -27 -72 -27q-38 0 -71 27l-222 174q-43 34 -43 78q0 49 27 77.5t72 28.5q39 0 67 -20zM233 150q-32 39 -30 77q0 46 31 78.5t79 32.5q52 0 95 -49q88 -103 264 -105 q97 0 151 33.5t54 89.5q0 37 -33 55q-33 21 -82 31l-52 10q-24 5 -62 9q-46 7 -62 10q-350 56 -350 307q0 155 120 234q122 81 293 81q129 0 219.5 -42t169.5 -134q23 -29 23 -63v-6q0 -43 -34 -73t-78 -30q-54 0 -91 45q-82 97 -213 99q-80 0 -130 -30t-50 -83 q0 -1 -0.5 -4t-0.5 -5q0 -50 75 -81q22 -9 56 -16q27 -5 57 -10l67 -9q80 -11 114 -19q42 -8 101 -27q61 -19 92 -46q34 -30 57 -78.5t23 -107.5q0 -155 -125 -250q-124 -94 -307 -94q-301 0 -441 170z" unicode="š"/>
<glyph glyph-name="Ydieresis" d="M937 1818q42 -42 42 -100q0 -57 -42 -99t-100 -42q-57 0 -99 42t-42 99q0 58 42 100t99 42q58 0 100 -42zM531 1818q42 -42 42 -100q0 -57 -42 -99t-99 -42t-99 42t-42 99q0 58 42 100t99 42t99 -42zM514 121v491l-416 637q-20 34 -20 66q0 50 37 84q38 35 92 35 q75 0 112 -66l316 -504l315 504q39 66 113 66q54 0 92 -35q37 -34 37 -84q0 -33 -21 -66l-415 -637v-491q0 -53 -34 -87t-87 -34t-87 34t-34 87z" unicode="Ÿ"/>
<glyph glyph-name="circumflex" d="M614 1681l-170 -129q-28 -20 -67 -20q-45 0 -71.5 28.5t-26.5 77.5q0 44 43 78l221 174q33 27 71 27q39 0 72 -27l221 -174q43 -34 43 -78q0 -49 -26.5 -77.5t-71.5 -28.5q-40 0 -68 20z" unicode="ˆ"/>
<glyph glyph-name="tilde" d="M414 1638q-30 -32 -67 -32h-3q-40 0 -62 24t-22 64q0 38 29 69q49 53 90 80q38 25 102 25q60 0 152 -47t137 -47q47 0 82 38q32 33 70 33q40 0 62 -24t22 -64q0 -38 -29 -69q-49 -53 -90 -80q-38 -25 -103 -25q-60 0 -152 47t-136 47q-48 0 -82 -39z" unicode="˜"/>
<glyph glyph-name="pi" d="M1094 0h-226q-51 0 -82.5 30.5t-31.5 78.5v710h-238v-710q0 -48 -32 -78.5t-83 -30.5t-82.5 30.5t-31.5 78.5v710h-148q-51 0 -79.5 27.5t-28.5 74.5q0 48 28.5 75.5t79.5 27.5h991q51 0 80 -27.5t29 -75.5t-29 -75t-80 -27h-147v-614h111q51 0 79.5 -27.5t28.5 -75.5 q0 -47 -28.5 -74.5t-79.5 -27.5z" unicode="π"/>
<glyph glyph-name="uni2002" horiz-adv-x="1015" unicode=" "/>
<glyph glyph-name="uni2003" horiz-adv-x="2033" unicode=" "/>
<glyph glyph-name="uni2009" horiz-adv-x="405" unicode=" "/>
<glyph glyph-name="endash" d="M217 723h862q113 0 113 -107q0 -106 -113 -106h-862q-113 0 -113 106q0 107 113 107z" unicode="–"/>
<glyph glyph-name="emdash" d="M143 723h981q113 0 113 -107q0 -106 -113 -106h-981q-113 0 -113 106q0 107 113 107z" unicode="—"/>
<glyph glyph-name="quoteleft" d="M709 1014q86 -47 86 -152q0 -79 -53 -134q-52 -54 -132 -54t-134 55q-54 56 -54 133v17q0 132 64 247q64 116 182 195q50 33 94 33q31 0 50 -19.5t19 -50.5q0 -37 -32 -57q-131 -77 -131 -146q0 -44 41 -67z" unicode="‘"/>
<glyph glyph-name="quotesinglbase" d="M545 10q-86 47 -86 152q0 81 52 134q53 54 132 54q80 0 134 -55t54 -133v-17q0 -131 -65 -247q-64 -117 -180 -195q-50 -33 -94 -33q-31 0 -50.5 19.5t-19.5 50.5q0 38 33 57q131 77 131 146q0 44 -41 67z" unicode="‚"/>
<glyph glyph-name="quotedblleft" d="M483 1014q86 -47 86 -152q0 -81 -52 -134q-53 -54 -132 -54q-80 0 -134 55t-54 133v17q0 132 64 247q64 116 181 195q50 33 95 33q31 0 50 -19.5t19 -50.5q0 -38 -33 -57q-131 -77 -131 -146q0 -44 41 -67zM946 1014q86 -47 86 -152q0 -81 -52 -134q-52 -54 -132 -54 t-135 55q-54 56 -54 133v17q0 132 64 247q64 116 182 195q50 33 94 33q31 0 50.5 -19.5t19.5 -50.5q0 -38 -33 -57q-131 -77 -131 -146q0 -44 41 -67z" unicode="“"/>
<glyph glyph-name="quotedblright" d="M782 1014q-86 47 -86 151q0 81 52 134q52 55 133 55q80 0 134 -56t54 -133v-16q0 -130 -65 -248t-181 -194q-49 -33 -94 -33q-31 0 -50.5 19.5t-19.5 49.5q0 37 33 58q131 77 131 145q0 45 -41 68zM319 1014q-86 47 -86 151q0 81 52 134q52 55 133 55q80 0 134 -56 t54 -133v-16q0 -130 -65 -248t-181 -194q-50 -33 -94 -33q-31 0 -50 19.5t-19 49.5q0 37 32 58q131 77 131 145q0 45 -41 68z" unicode="”"/>
<glyph glyph-name="dagger" d="M315 1024h205v309q0 54 31 87.5t84 33.5t84 -33.5t31 -87.5v-309h204q113 0 113 -107q0 -106 -113 -106h-204v-977q0 -54 -31 -87.5t-84 -33.5t-84 33.5t-31 87.5v977h-205q-113 0 -113 106q0 107 113 107z" unicode="†"/>
<glyph glyph-name="daggerdbl" d="M954 143h-204v-309q0 -54 -31 -87.5t-84 -33.5t-84 33.5t-31 87.5v309h-205q-113 0 -113 106q2 107 113 107h205v455h-205q-113 0 -113 106q2 107 113 107h205v309q0 54 31 87.5t84 33.5t84 -33.5t31 -87.5v-309h204q113 0 113 -107q0 -106 -113 -106h-204v-455h204 q113 0 113 -107q0 -106 -113 -106z" unicode="‡"/>
<glyph glyph-name="ellipsis" d="M932 53q-53 53 -53 133t53 133q52 54 133 54t133 -54q53 -53 53 -133t-53 -133t-133 -53t-133 53zM502 53q-53 53 -53 133t53 133q52 54 133 54t133 -54q53 -53 53 -133t-53 -133t-133 -53t-133 53zM71 53q-53 53 -53 133t53 133q54 54 134 54q81 0 133 -54 q53 -53 53 -133t-53 -133t-133 -53q-79 0 -134 53z" unicode="…"/>
<glyph glyph-name="perthousand" d="M406 254q0 -58 32 -93.5t86 -35.5q55 0 87 35.5t32 93.5q0 60 -32 96.5t-87 36.5q-54 0 -86 -36.5t-32 -96.5zM203 1176q0 -58 32 -93.5t86 -35.5q56 0 87.5 35t31.5 94q0 60 -32 96.5t-87 36.5q-54 0 -86 -36.5t-32 -96.5zM813 254q0 -58 32.5 -93.5t86.5 -35.5 t86.5 35.5t32.5 93.5q0 60 -32.5 96.5t-86.5 36.5t-86.5 -36.5t-32.5 -96.5zM70 639l968 500q22 12 47 12q35 0 57.5 -23t22.5 -57q0 -51 -45 -78l-968 -499q-19 -11 -48 -13q-35 0 -57 23t-22 57q0 51 45 78zM33 1176q0 121 81 199q80 79 208 79t207 -79q81 -79 81 -199 q0 -119 -81 -197q-79 -78 -207 -78q-127 0 -208 78t-81 197zM236 254q0 121 80 199q80 79 208 79q122 0 205 -75q81 75 198 75h5q128 0 208 -79q81 -78 81 -199q0 -119 -81 -197q-82 -77 -208 -77q-122 0 -205 71q-77 -71 -198 -71h-5q-126 0 -208 77q-80 78 -80 197z" unicode="‰"/>
<glyph glyph-name="guilsinglleft" d="M698 68l-379 387q-39 42 -39 79q0 36 39 80l379 387q39 39 84 39q94 0 95 -94q0 -49 -41 -90l-308 -321l308 -322q41 -41 41 -90q0 -94 -95 -94q-45 0 -84 39z" unicode="‹"/>
<glyph glyph-name="guilsinglright" d="M889 455l-379 -387q-39 -39 -84 -39q-94 0 -94 94q0 49 41 90l307 322l-307 321q-41 41 -41 90q0 94 94 94q45 0 84 -39l379 -387q39 -42 39 -80q0 -37 -39 -79z" unicode="›"/>
<glyph glyph-name="fraction" d="M143 473l889 621q28 18 53 18q84 0 84 -84q0 -42 -36 -67l-889 -621q-27 -18 -54 -18q-37 0 -60.5 23t-23.5 61q0 40 37 67z" unicode="⁄"/>
<glyph glyph-name="Euro" d="M166 989h57q7 201 138 333q130 132 356 132q157 0 251 -53q93 -53 165 -150q37 -49 36 -96q0 -48 -33 -79.5t-79 -31.5q-55 0 -88 52q-57 85 -113 117t-145 32q-111 0 -182 -68t-72 -188h334q112 0 112 -104q0 -109 -112 -109h-334v-119h334q112 0 112 -104 q0 -109 -112 -109h-334q1 -122 72 -189q70 -67 182 -67q89 0 145 32q53 30 113 118q33 51 88 51q46 0 79 -31t33 -79q0 -47 -36 -97q-73 -97 -166 -149q-94 -53 -250 -53q-226 0 -357 131q-130 131 -137 333h-57q-113 0 -113 106q0 107 113 107h57v119h-57q-113 0 -113 106 q0 107 113 107z" unicode="€"/>
<glyph glyph-name="trademark" d="M1243 1378v-602q0 -35 -20.5 -57.5t-53.5 -22.5q-32 0 -52.5 22.5t-20.5 57.5v350l-105 -180q-22 -31 -49 -31t-49 31l-102 180v-350q0 -35 -21.5 -57.5t-54.5 -22.5t-54.5 22.5t-21.5 57.5v602q0 25 22 43.5t54 18.5q39 0 63 -37l164 -264l166 264q22 37 61 37 q30 0 52 -18.5t22 -43.5zM80 1434h424h5q29 0 45 -20t16 -48t-16 -48t-45 -20h-5h-137v-522q0 -35 -20.5 -57.5t-53.5 -22.5t-54.5 22.5t-21.5 57.5v522h-137h-5q-29 0 -45.5 20t-16.5 48t16.5 48t45.5 20h5z" unicode="™"/>
<glyph glyph-name="partialdiff" d="M344 453q0 -129 61 -199t160 -70q159 0 248 111q88 110 88 283q0 122 -55 192t-156 70q-172 0 -259 -110t-87 -277zM549 -20q-195 0 -315 138q-119 139 -119 341q0 257 152 421q153 164 419 164q91 0 166.5 -32.5t114.5 -89.5q0 311 -246 311q-75 0 -137 -74 q-45 -51 -105 -51q-50 0 -82 28t-32 74q0 32 14 60q106 184 342 184q224 0 352 -155q127 -154 127 -453q0 -268 -64 -452.5t-209 -297.5q-149 -116 -378 -116z" unicode="∂"/>
<glyph glyph-name="product" d="M147 1434h969q54 0 84.5 -29t30.5 -82t-30.5 -82t-84.5 -29h-104v-1091q0 -53 -34 -87t-87 -34t-87 34t-34 87v1091h-276v-1091q0 -53 -34 -87t-88 -34q-53 0 -86.5 34t-33.5 87v1091h-105q-54 0 -84 29t-30 82t30 82t84 29z" unicode="∏"/>
<glyph glyph-name="summation" d="M954 1434q46 0 75.5 -29.5t29.5 -73.5q0 -43 -29.5 -72.5t-75.5 -29.5h-577l334 -596q23 -41 23 -71t-23 -73l-334 -595h659q46 0 75.5 -29.5t29.5 -73.5q0 -43 -29.5 -72.5t-75.5 -29.5h-862q-46 0 -75 28t-29 70q0 31 18 61l414 713l-414 713q-18 32 -18 61q0 43 29 71 t79 28h776z" unicode="∑"/>
<glyph glyph-name="minus" d="M217 723h862q113 0 113 -107q0 -106 -113 -106h-862q-113 0 -113 106q0 107 113 107z" unicode="−"/>
<glyph glyph-name="radical" d="M152 451q-45 0 -75 29.5t-30 72.5t30 72.5t75 29.5h200q72 0 88 -63l103 -361l405 1180q22 70 94 70q43 0 71 -24.5t28 -63.5q0 -17 -6 -37l-504 -1452q-25 -76 -96 -76q-68 0 -93 76l-172 547h-118z" unicode="√"/>
<glyph glyph-name="infinity" d="M757 718q-36 -42 -36 -106q0 -63 36 -105t105 -42q70 0 106 42t36 105q0 64 -36 106t-106 42q-69 0 -105 -42zM302 718q-36 -42 -36 -106q0 -63 36 -105t105 -42q70 0 106 42t36 105q0 64 -36 106t-106 42q-69 0 -105 -42zM408 907q156 0 227 -102q72 102 227 102 q130 0 213 -81q82 -81 82 -214t-82 -214q-83 -81 -213 -81q-157 0 -227 103q-72 -101 -227 -103q-130 0 -213 81q-82 81 -82 214t81 214q82 81 214 81z" unicode="∞"/>
<glyph glyph-name="approxequal" d="M348 729q-40 -37 -86 -37q-44 0 -71 26t-27 75q0 46 41 90q92 98 246 98q84 0 213 -59q113 -54 182 -56q58 0 102 39q38 37 86 37q44 0 71.5 -26.5t27.5 -73.5q0 -46 -41 -90q-92 -98 -246 -99q-86 0 -213 60q-114 55 -182 55q-59 0 -103 -39zM348 340q-40 -37 -86 -37 q-44 0 -71 26t-27 74q0 47 41 91q92 98 246 98q85 0 213 -60q114 -55 182 -55q58 0 102 39q38 37 86 37q44 0 71.5 -26.5t27.5 -73.5t-41 -91q-92 -98 -246 -98q-86 0 -213 60q-114 55 -182 55q-59 0 -103 -39z" unicode="≈"/>
<glyph glyph-name="notequal" d="M225 156l119 198h-127q-113 0 -113 106q0 107 113 107h250l119 201h-369q-113 0 -113 106q0 107 113 107h490l182 307q34 60 92 62q51 0 81 -28t30 -75q0 -33 -21 -67l-119 -199h127q113 0 113 -107q0 -106 -113 -106h-248l-118 -201h366q113 0 113 -107 q0 -106 -113 -106h-489l-182 -307q-34 -61 -93 -61q-51 0 -80.5 27.5t-29.5 74.5q0 33 20 68z" unicode="≠"/>
<glyph glyph-name="lessequal" d="M205 213h862q113 0 113 -107q0 -106 -113 -106h-862q-113 0 -113 106q0 107 113 107zM911 412l-673 444q-41 27 -41 78t41 78l673 444q27 18 68 18h4q38 0 62 -27q26 -29 26 -67q0 -64 -51 -98l-522 -348l522 -348q51 -34 51 -99q0 -40 -25.5 -67t-66.5 -27q-42 2 -68 19 z" unicode="≤"/>
<glyph glyph-name="greaterequal" d="M205 213h862q113 0 113 -107q0 -106 -113 -106h-862q-113 0 -113 106q0 107 113 107zM1032 856l-674 -444q-26 -17 -68 -19q-41 0 -66 28t-25 66q0 63 51 99l522 348l-522 348q-51 34 -51 98q0 40 26 67.5t66 27.5q42 0 67 -19l674 -444q41 -27 41 -78t-41 -78z" unicode="≥"/>
<glyph glyph-name="lozenge" d="M336 717l287 -424l286 424l-286 424zM106 772l433 612q38 50 85 50t83 -50l432 -612q18 -27 18 -55t-18 -55l-432 -613q-37 -49 -84 -49t-84 49l-433 613q-18 27 -18 55t18 55z" unicode="◊"/>
</font>
</defs>
</svg>
